<mxfile host="app.diagrams.net" modified="2024-06-11T07:00:23.697Z" agent="Mozilla/5.0 (Macintosh; Intel Mac OS X 10_15_7) AppleWebKit/537.36 (KHTML, like Gecko) Chrome/125.0.0.0 Safari/537.36" etag="wNSelxLyyzSK-AF6laRV" version="24.4.14" type="github">
  <diagram name="第 1 页" id="twFxSAl-rutGVDbyKCKj">
    <mxGraphModel dx="6040" dy="6567" grid="1" gridSize="10" guides="1" tooltips="1" connect="1" arrows="1" fold="1" page="1" pageScale="1" pageWidth="827" pageHeight="1169" math="0" shadow="0">
      <root>
        <mxCell id="0" />
        <mxCell id="1" parent="0" />
        <mxCell id="f0wCPN4-28QZL9eDYPKT-1" style="edgeStyle=orthogonalEdgeStyle;rounded=0;orthogonalLoop=1;jettySize=auto;html=1;sketch=1;curveFitting=1;jiggle=2;fontFamily=Comic Sans MS;" parent="1" source="f0wCPN4-28QZL9eDYPKT-2" target="f0wCPN4-28QZL9eDYPKT-3" edge="1">
          <mxGeometry relative="1" as="geometry" />
        </mxCell>
        <mxCell id="f0wCPN4-28QZL9eDYPKT-2" value="riscv_pmu_alloc" style="rounded=0;whiteSpace=wrap;html=1;sketch=1;curveFitting=1;jiggle=2;fontFamily=Comic Sans MS;" parent="1" vertex="1">
          <mxGeometry x="110" y="230" width="120" height="60" as="geometry" />
        </mxCell>
        <mxCell id="f0wCPN4-28QZL9eDYPKT-3" value="&lt;div&gt;&lt;span style=&quot;white-space: normal;&quot;&gt;&lt;span style=&quot;white-space:pre&quot;&gt;&#x9;&lt;/span&gt;pmu-&amp;gt;pmu = (struct pmu) {&lt;/span&gt;&lt;/div&gt;&lt;div&gt;&lt;span style=&quot;white-space: normal;&quot;&gt;&lt;span style=&quot;white-space:pre&quot;&gt;&#x9;&#x9;&lt;/span&gt;.event_init&lt;span style=&quot;white-space:pre&quot;&gt;&#x9;&lt;/span&gt;= riscv_pmu_event_init,&lt;/span&gt;&lt;/div&gt;&lt;div&gt;&lt;span style=&quot;white-space: normal;&quot;&gt;&lt;span style=&quot;white-space:pre&quot;&gt;&#x9;&#x9;&lt;/span&gt;.event_mapped&lt;span style=&quot;white-space:pre&quot;&gt;&#x9;&lt;/span&gt;= riscv_pmu_event_mapped,&lt;/span&gt;&lt;/div&gt;&lt;div&gt;&lt;span style=&quot;white-space: normal;&quot;&gt;&lt;span style=&quot;white-space:pre&quot;&gt;&#x9;&#x9;&lt;/span&gt;.event_unmapped&lt;span style=&quot;white-space:pre&quot;&gt;&#x9;&lt;/span&gt;= riscv_pmu_event_unmapped,&lt;/span&gt;&lt;/div&gt;&lt;div&gt;&lt;span style=&quot;white-space: normal;&quot;&gt;&lt;span style=&quot;white-space:pre&quot;&gt;&#x9;&#x9;&lt;/span&gt;.event_idx&lt;span style=&quot;white-space:pre&quot;&gt;&#x9;&lt;/span&gt;= riscv_pmu_event_idx,&lt;/span&gt;&lt;/div&gt;&lt;div&gt;&lt;span style=&quot;white-space: normal;&quot;&gt;&lt;span style=&quot;white-space:pre&quot;&gt;&#x9;&#x9;&lt;/span&gt;.add&lt;span style=&quot;white-space:pre&quot;&gt;&#x9;&#x9;&lt;/span&gt;= riscv_pmu_add,&lt;/span&gt;&lt;/div&gt;&lt;div&gt;&lt;span style=&quot;white-space: normal;&quot;&gt;&lt;span style=&quot;white-space:pre&quot;&gt;&#x9;&#x9;&lt;/span&gt;.del&lt;span style=&quot;white-space:pre&quot;&gt;&#x9;&#x9;&lt;/span&gt;= riscv_pmu_del,&lt;/span&gt;&lt;/div&gt;&lt;div&gt;&lt;span style=&quot;white-space: normal;&quot;&gt;&lt;span style=&quot;white-space:pre&quot;&gt;&#x9;&#x9;&lt;/span&gt;.start&lt;span style=&quot;white-space:pre&quot;&gt;&#x9;&#x9;&lt;/span&gt;= riscv_pmu_start,&lt;/span&gt;&lt;/div&gt;&lt;div&gt;&lt;span style=&quot;white-space: normal;&quot;&gt;&lt;span style=&quot;white-space:pre&quot;&gt;&#x9;&#x9;&lt;/span&gt;.stop&lt;span style=&quot;white-space:pre&quot;&gt;&#x9;&#x9;&lt;/span&gt;= riscv_pmu_stop,&lt;/span&gt;&lt;/div&gt;&lt;div&gt;&lt;span style=&quot;white-space: normal;&quot;&gt;&lt;span style=&quot;white-space:pre&quot;&gt;&#x9;&#x9;&lt;/span&gt;.read&lt;span style=&quot;white-space:pre&quot;&gt;&#x9;&#x9;&lt;/span&gt;= riscv_pmu_read,&lt;/span&gt;&lt;/div&gt;&lt;div&gt;&lt;span style=&quot;white-space: normal;&quot;&gt;&lt;span style=&quot;white-space:pre&quot;&gt;&#x9;&lt;/span&gt;};&lt;/span&gt;&lt;/div&gt;" style="rounded=0;whiteSpace=wrap;html=1;sketch=1;curveFitting=1;jiggle=2;fontFamily=Comic Sans MS;align=left;" parent="1" vertex="1">
          <mxGeometry x="110" y="405" width="420" height="180" as="geometry" />
        </mxCell>
        <mxCell id="f0wCPN4-28QZL9eDYPKT-4" value="tools/perf/arch/riscv&lt;div&gt;tools/perf/arch/riscv64&lt;br&gt;&lt;/div&gt;&lt;div&gt;&lt;br&gt;&lt;/div&gt;&lt;div&gt;tools/perf/pmu-events/arch/riscv&lt;/div&gt;" style="rounded=0;whiteSpace=wrap;html=1;sketch=1;curveFitting=1;jiggle=2;fontFamily=Comic Sans MS;" parent="1" vertex="1">
          <mxGeometry x="-610" y="-730" width="280" height="70" as="geometry" />
        </mxCell>
        <mxCell id="f0wCPN4-28QZL9eDYPKT-5" value="drivers/perf/riscv_pmu.c&lt;div&gt;drivers/perf/riscv_pmu_sbi.c&lt;/div&gt;&lt;div&gt;drivers/perf/riscv_pmu_legacy.c&lt;/div&gt;" style="rounded=0;whiteSpace=wrap;html=1;sketch=1;curveFitting=1;jiggle=2;fontFamily=Comic Sans MS;" parent="1" vertex="1">
          <mxGeometry x="-610" y="-830" width="280" height="70" as="geometry" />
        </mxCell>
        <mxCell id="f0wCPN4-28QZL9eDYPKT-6" value="include/linux/perf/riscv_pmu.h" style="rounded=0;whiteSpace=wrap;html=1;sketch=1;curveFitting=1;jiggle=2;fontFamily=Comic Sans MS;" parent="1" vertex="1">
          <mxGeometry x="-610" y="-920" width="280" height="70" as="geometry" />
        </mxCell>
        <mxCell id="f0wCPN4-28QZL9eDYPKT-7" value="arch/riscv/include/asm/sbi.h" style="rounded=0;whiteSpace=wrap;html=1;sketch=1;curveFitting=1;jiggle=2;fontFamily=Comic Sans MS;" parent="1" vertex="1">
          <mxGeometry x="-610" y="-1010" width="280" height="70" as="geometry" />
        </mxCell>
        <mxCell id="f0wCPN4-28QZL9eDYPKT-8" value="&lt;font face=&quot;Comic Sans MS&quot; style=&quot;font-size: 48px;&quot;&gt;RISC-V Perf code&lt;/font&gt;" style="text;html=1;align=center;verticalAlign=middle;whiteSpace=wrap;rounded=0;fontSize=17;" parent="1" vertex="1">
          <mxGeometry x="-770" y="-1160" width="470" height="80" as="geometry" />
        </mxCell>
        <mxCell id="f0wCPN4-28QZL9eDYPKT-9" value="&lt;div&gt;&lt;div&gt;arch/riscv/include/asm/hwcap.h&lt;/div&gt;&lt;/div&gt;&lt;div&gt;&lt;div&gt;arch/riscv/include/asm/kvm_host.h&lt;/div&gt;&lt;/div&gt;&lt;div&gt;&lt;div&gt;arch/riscv/include/asm/kvm_vcpu_pmu.h&lt;/div&gt;arch/riscv/include/asm/kvm_vcpu_sbi.h&lt;/div&gt;&lt;div&gt;&lt;div&gt;arch/riscv/include/asm/sbi.h&lt;/div&gt;&lt;/div&gt;&lt;div&gt;&lt;br&gt;&lt;/div&gt;&lt;div&gt;&lt;br&gt;&lt;/div&gt;&lt;div&gt;arch/riscv/kvm/vcpu_pmu.c&lt;br&gt;&lt;/div&gt;&lt;div&gt;arch/riscv/kvm/vcpu_sbi_pmu.c&lt;div&gt;arch/riscv/kvm/vcpu_sbi_replace.c&lt;br class=&quot;Apple-interchange-newline&quot;&gt;arch/riscv/kvm/vcpu_sbi.c&lt;br class=&quot;Apple-interchange-newline&quot;&gt;arch/riscv/kvm/vcpu.c&lt;div&gt;&lt;div&gt;&lt;div&gt;&lt;br&gt;&lt;/div&gt;&lt;/div&gt;&lt;/div&gt;&lt;/div&gt;&lt;/div&gt;" style="rounded=0;whiteSpace=wrap;html=1;sketch=1;curveFitting=1;jiggle=2;fontFamily=Comic Sans MS;" parent="1" vertex="1">
          <mxGeometry x="-230" y="-1010" width="280" height="230" as="geometry" />
        </mxCell>
        <mxCell id="f0wCPN4-28QZL9eDYPKT-10" value="&lt;div&gt;struct riscv_pmu {&lt;/div&gt;&lt;div&gt;&lt;span style=&quot;white-space: normal;&quot;&gt;&lt;span style=&quot;white-space:pre&quot;&gt;&#x9;&lt;/span&gt;struct pmu&lt;span style=&quot;white-space:pre&quot;&gt;&#x9;&lt;/span&gt;pmu;&lt;/span&gt;&lt;/div&gt;&lt;div&gt;&lt;span style=&quot;white-space: normal;&quot;&gt;&lt;span style=&quot;white-space:pre&quot;&gt;&#x9;&lt;/span&gt;char&lt;span style=&quot;white-space:pre&quot;&gt;&#x9;&#x9;&lt;/span&gt;*name;&lt;/span&gt;&lt;/div&gt;&lt;div&gt;&lt;br&gt;&lt;/div&gt;&lt;div&gt;&lt;span style=&quot;white-space: normal;&quot;&gt;&lt;span style=&quot;white-space:pre&quot;&gt;&#x9;&lt;/span&gt;irqreturn_t&lt;span style=&quot;white-space:pre&quot;&gt;&#x9;&lt;/span&gt;(*handle_irq)(int irq_num, void *dev);&lt;/span&gt;&lt;/div&gt;&lt;div&gt;&lt;br&gt;&lt;/div&gt;&lt;div&gt;&lt;span style=&quot;white-space: normal;&quot;&gt;&lt;span style=&quot;white-space:pre&quot;&gt;&#x9;&lt;/span&gt;unsigned long&lt;span style=&quot;white-space:pre&quot;&gt;&#x9;&lt;/span&gt;cmask;&lt;/span&gt;&lt;/div&gt;&lt;div&gt;&lt;span style=&quot;white-space: normal;&quot;&gt;&lt;span style=&quot;white-space:pre&quot;&gt;&#x9;&lt;/span&gt;u64&lt;span style=&quot;white-space:pre&quot;&gt;&#x9;&#x9;&lt;/span&gt;(*ctr_read)(struct perf_event *event);&lt;/span&gt;&lt;/div&gt;&lt;div&gt;&lt;span style=&quot;white-space: normal;&quot;&gt;&lt;span style=&quot;white-space:pre&quot;&gt;&#x9;&lt;/span&gt;int&lt;span style=&quot;white-space:pre&quot;&gt;&#x9;&#x9;&lt;/span&gt;(*ctr_get_idx)(struct perf_event *event);&lt;/span&gt;&lt;/div&gt;&lt;div&gt;&lt;span style=&quot;white-space: normal;&quot;&gt;&lt;span style=&quot;white-space:pre&quot;&gt;&#x9;&lt;/span&gt;int&lt;span style=&quot;white-space:pre&quot;&gt;&#x9;&#x9;&lt;/span&gt;(*ctr_get_width)(int idx);&lt;/span&gt;&lt;/div&gt;&lt;div&gt;&lt;span style=&quot;white-space: normal;&quot;&gt;&lt;span style=&quot;white-space:pre&quot;&gt;&#x9;&lt;/span&gt;void&lt;span style=&quot;white-space:pre&quot;&gt;&#x9;&#x9;&lt;/span&gt;(*ctr_clear_idx)(struct perf_event *event);&lt;/span&gt;&lt;/div&gt;&lt;div&gt;&lt;span style=&quot;white-space: normal;&quot;&gt;&lt;span style=&quot;white-space:pre&quot;&gt;&#x9;&lt;/span&gt;void&lt;span style=&quot;white-space:pre&quot;&gt;&#x9;&#x9;&lt;/span&gt;(*ctr_start)(struct perf_event *event, u64 init_val);&lt;/span&gt;&lt;/div&gt;&lt;div&gt;&lt;span style=&quot;white-space: normal;&quot;&gt;&lt;span style=&quot;white-space:pre&quot;&gt;&#x9;&lt;/span&gt;void&lt;span style=&quot;white-space:pre&quot;&gt;&#x9;&#x9;&lt;/span&gt;(*ctr_stop)(struct perf_event *event, unsigned long flag);&lt;/span&gt;&lt;/div&gt;&lt;div&gt;&lt;span style=&quot;white-space: normal;&quot;&gt;&lt;span style=&quot;white-space:pre&quot;&gt;&#x9;&lt;/span&gt;int&lt;span style=&quot;white-space:pre&quot;&gt;&#x9;&#x9;&lt;/span&gt;(*event_map)(struct perf_event *event, u64 *config);&lt;/span&gt;&lt;/div&gt;&lt;div&gt;&lt;span style=&quot;white-space: normal;&quot;&gt;&lt;span style=&quot;white-space:pre&quot;&gt;&#x9;&lt;/span&gt;void&lt;span style=&quot;white-space:pre&quot;&gt;&#x9;&#x9;&lt;/span&gt;(*event_init)(struct perf_event *event);&lt;/span&gt;&lt;/div&gt;&lt;div&gt;&lt;span style=&quot;white-space: normal;&quot;&gt;&lt;span style=&quot;white-space:pre&quot;&gt;&#x9;&lt;/span&gt;void&lt;span style=&quot;white-space:pre&quot;&gt;&#x9;&#x9;&lt;/span&gt;(*event_mapped)(struct perf_event *event, struct mm_struct *mm);&lt;/span&gt;&lt;/div&gt;&lt;div&gt;&lt;span style=&quot;white-space: normal;&quot;&gt;&lt;span style=&quot;white-space:pre&quot;&gt;&#x9;&lt;/span&gt;void&lt;span style=&quot;white-space:pre&quot;&gt;&#x9;&#x9;&lt;/span&gt;(*event_unmapped)(struct perf_event *event, struct mm_struct *mm);&lt;/span&gt;&lt;/div&gt;&lt;div&gt;&lt;span style=&quot;white-space: normal;&quot;&gt;&lt;span style=&quot;white-space:pre&quot;&gt;&#x9;&lt;/span&gt;uint8_t&lt;span style=&quot;white-space:pre&quot;&gt;&#x9;&#x9;&lt;/span&gt;(*csr_index)(struct perf_event *event);&lt;/span&gt;&lt;/div&gt;&lt;div&gt;&lt;br&gt;&lt;/div&gt;&lt;div&gt;&lt;span style=&quot;white-space: normal;&quot;&gt;&lt;span style=&quot;white-space:pre&quot;&gt;&#x9;&lt;/span&gt;struct cpu_hw_events&lt;span style=&quot;white-space:pre&quot;&gt;&#x9;&lt;/span&gt;__percpu *hw_events;&lt;/span&gt;&lt;/div&gt;&lt;div&gt;&lt;span style=&quot;white-space: normal;&quot;&gt;&lt;span style=&quot;white-space:pre&quot;&gt;&#x9;&lt;/span&gt;struct hlist_node&lt;span style=&quot;white-space:pre&quot;&gt;&#x9;&lt;/span&gt;node;&lt;/span&gt;&lt;/div&gt;&lt;div&gt;&lt;span style=&quot;white-space: normal;&quot;&gt;&lt;span style=&quot;white-space:pre&quot;&gt;&#x9;&lt;/span&gt;struct notifier_block&amp;nbsp; &amp;nbsp;riscv_pm_nb;&lt;/span&gt;&lt;/div&gt;&lt;div&gt;};&lt;/div&gt;" style="rounded=0;whiteSpace=wrap;html=1;sketch=1;curveFitting=1;jiggle=2;fontFamily=Comic Sans MS;align=left;" parent="1" vertex="1">
          <mxGeometry x="-540" y="90" width="500" height="360" as="geometry" />
        </mxCell>
        <mxCell id="f0wCPN4-28QZL9eDYPKT-11" value="&lt;div&gt;&lt;br&gt;&lt;/div&gt;&lt;div&gt;include/linux/perf_event.h&lt;/div&gt;&lt;div&gt;&lt;br&gt;&lt;/div&gt;&lt;div&gt;struct pmu {&lt;/div&gt;&lt;div&gt;&lt;span style=&quot;white-space: normal;&quot;&gt;&lt;span style=&quot;white-space:pre&quot;&gt;&#x9;&lt;/span&gt;&lt;/span&gt;&lt;/div&gt;&lt;div&gt;};&lt;/div&gt;" style="rounded=0;whiteSpace=wrap;html=1;sketch=1;curveFitting=1;jiggle=2;fontFamily=Comic Sans MS;align=left;" parent="1" vertex="1">
          <mxGeometry x="-540" y="480" width="500" height="120" as="geometry" />
        </mxCell>
        <mxCell id="f0wCPN4-28QZL9eDYPKT-12" value="riscv_pmu_start" style="rounded=0;whiteSpace=wrap;html=1;sketch=1;curveFitting=1;jiggle=2;fontFamily=Comic Sans MS;" parent="1" vertex="1">
          <mxGeometry x="90" y="720" width="120" height="60" as="geometry" />
        </mxCell>
        <mxCell id="f0wCPN4-28QZL9eDYPKT-13" value="riscv_pmu_stop" style="rounded=0;whiteSpace=wrap;html=1;sketch=1;curveFitting=1;jiggle=2;fontFamily=Comic Sans MS;" parent="1" vertex="1">
          <mxGeometry x="360" y="720" width="120" height="60" as="geometry" />
        </mxCell>
        <mxCell id="f0wCPN4-28QZL9eDYPKT-14" value="riscv_pmu_add" style="rounded=0;whiteSpace=wrap;html=1;sketch=1;curveFitting=1;jiggle=2;fontFamily=Comic Sans MS;" parent="1" vertex="1">
          <mxGeometry x="-320" y="720" width="120" height="60" as="geometry" />
        </mxCell>
        <mxCell id="f0wCPN4-28QZL9eDYPKT-15" value="riscv_pmu_del" style="rounded=0;whiteSpace=wrap;html=1;sketch=1;curveFitting=1;jiggle=2;fontFamily=Comic Sans MS;" parent="1" vertex="1">
          <mxGeometry x="-120" y="720" width="120" height="60" as="geometry" />
        </mxCell>
        <mxCell id="f0wCPN4-28QZL9eDYPKT-16" style="edgeStyle=orthogonalEdgeStyle;rounded=0;orthogonalLoop=1;jettySize=auto;html=1;" parent="1" source="f0wCPN4-28QZL9eDYPKT-17" target="f0wCPN4-28QZL9eDYPKT-18" edge="1">
          <mxGeometry relative="1" as="geometry" />
        </mxCell>
        <mxCell id="f0wCPN4-28QZL9eDYPKT-17" value="riscv_pmu_read" style="rounded=0;whiteSpace=wrap;html=1;sketch=1;curveFitting=1;jiggle=2;fontFamily=Comic Sans MS;" parent="1" vertex="1">
          <mxGeometry x="650" y="720" width="120" height="60" as="geometry" />
        </mxCell>
        <mxCell id="f0wCPN4-28QZL9eDYPKT-18" value="riscv_pmu_event_update" style="rounded=0;whiteSpace=wrap;html=1;sketch=1;curveFitting=1;jiggle=2;fontFamily=Comic Sans MS;" parent="1" vertex="1">
          <mxGeometry x="650" y="830" width="200" height="60" as="geometry" />
        </mxCell>
        <mxCell id="f0wCPN4-28QZL9eDYPKT-19" value="&lt;div&gt;/* PMU data structure per vcpu */&lt;/div&gt;&lt;div&gt;struct kvm_pmu {&lt;/div&gt;&lt;div&gt;&lt;span style=&quot;white-space: normal;&quot;&gt;&lt;span style=&quot;white-space:pre&quot;&gt;&#x9;&lt;/span&gt;struct kvm_pmc pmc[RISCV_KVM_MAX_COUNTERS];&lt;/span&gt;&lt;/div&gt;&lt;div&gt;&lt;span style=&quot;white-space: normal;&quot;&gt;&lt;span style=&quot;white-space:pre&quot;&gt;&#x9;&lt;/span&gt;struct kvm_fw_event fw_event[RISCV_KVM_MAX_FW_CTRS];&lt;/span&gt;&lt;/div&gt;&lt;div&gt;&lt;span style=&quot;white-space: normal;&quot;&gt;&lt;span style=&quot;white-space:pre&quot;&gt;&#x9;&lt;/span&gt;/* Number of the virtual firmware counters available */&lt;/span&gt;&lt;/div&gt;&lt;div&gt;&lt;span style=&quot;white-space: normal;&quot;&gt;&lt;span style=&quot;white-space:pre&quot;&gt;&#x9;&lt;/span&gt;int num_fw_ctrs;&lt;/span&gt;&lt;/div&gt;&lt;div&gt;&lt;span style=&quot;white-space: normal;&quot;&gt;&lt;span style=&quot;white-space:pre&quot;&gt;&#x9;&lt;/span&gt;/* Number of the virtual hardware counters available */&lt;/span&gt;&lt;/div&gt;&lt;div&gt;&lt;span style=&quot;white-space: normal;&quot;&gt;&lt;span style=&quot;white-space:pre&quot;&gt;&#x9;&lt;/span&gt;int num_hw_ctrs;&lt;/span&gt;&lt;/div&gt;&lt;div&gt;&lt;span style=&quot;white-space: normal;&quot;&gt;&lt;span style=&quot;white-space:pre&quot;&gt;&#x9;&lt;/span&gt;/* A flag to indicate that pmu initialization is done */&lt;/span&gt;&lt;/div&gt;&lt;div&gt;&lt;span style=&quot;white-space: normal;&quot;&gt;&lt;span style=&quot;white-space:pre&quot;&gt;&#x9;&lt;/span&gt;bool init_done;&lt;/span&gt;&lt;/div&gt;&lt;div&gt;&lt;span style=&quot;white-space: normal;&quot;&gt;&lt;span style=&quot;white-space:pre&quot;&gt;&#x9;&lt;/span&gt;/* Bit map of all the virtual counter used */&lt;/span&gt;&lt;/div&gt;&lt;div&gt;&lt;span style=&quot;white-space: normal;&quot;&gt;&lt;span style=&quot;white-space:pre&quot;&gt;&#x9;&lt;/span&gt;DECLARE_BITMAP(pmc_in_use, RISCV_KVM_MAX_COUNTERS);&lt;/span&gt;&lt;/div&gt;&lt;div&gt;&lt;span style=&quot;white-space: normal;&quot;&gt;&lt;span style=&quot;white-space:pre&quot;&gt;&#x9;&lt;/span&gt;/* Bit map of all the virtual counter overflown */&lt;/span&gt;&lt;/div&gt;&lt;div&gt;&lt;span style=&quot;white-space: normal;&quot;&gt;&lt;span style=&quot;white-space:pre&quot;&gt;&#x9;&lt;/span&gt;DECLARE_BITMAP(pmc_overflown, RISCV_KVM_MAX_COUNTERS);&lt;/span&gt;&lt;/div&gt;&lt;div&gt;&lt;span style=&quot;white-space: normal;&quot;&gt;&lt;span style=&quot;white-space:pre&quot;&gt;&#x9;&lt;/span&gt;/* The address of the counter snapshot area (guest physical address) */&lt;/span&gt;&lt;/div&gt;&lt;div&gt;&lt;span style=&quot;white-space: normal;&quot;&gt;&lt;span style=&quot;white-space:pre&quot;&gt;&#x9;&lt;/span&gt;gpa_t snapshot_addr;&lt;/span&gt;&lt;/div&gt;&lt;div&gt;&lt;span style=&quot;white-space: normal;&quot;&gt;&lt;span style=&quot;white-space:pre&quot;&gt;&#x9;&lt;/span&gt;/* The actual data of the snapshot */&lt;/span&gt;&lt;/div&gt;&lt;div&gt;&lt;span style=&quot;white-space: normal;&quot;&gt;&lt;span style=&quot;white-space:pre&quot;&gt;&#x9;&lt;/span&gt;struct riscv_pmu_snapshot_data *sdata;&lt;/span&gt;&lt;/div&gt;&lt;div&gt;};&lt;/div&gt;" style="rounded=0;whiteSpace=wrap;html=1;sketch=1;curveFitting=1;jiggle=2;fontFamily=Comic Sans MS;align=left;" parent="1" vertex="1">
          <mxGeometry x="1000" y="190" width="460" height="310" as="geometry" />
        </mxCell>
        <mxCell id="f0wCPN4-28QZL9eDYPKT-20" value="&lt;div&gt;struct kvm_vcpu {&lt;/div&gt;&lt;div&gt;&lt;span style=&quot;white-space: normal;&quot;&gt;&lt;span style=&quot;white-space:pre&quot;&gt;&#x9;&lt;/span&gt;struct kvm *kvm;&lt;/span&gt;&lt;/div&gt;&lt;div&gt;#ifdef CONFIG_PREEMPT_NOTIFIERS&lt;/div&gt;&lt;div&gt;&lt;span style=&quot;white-space: normal;&quot;&gt;&lt;span style=&quot;white-space:pre&quot;&gt;&#x9;&lt;/span&gt;struct preempt_notifier preempt_notifier;&lt;/span&gt;&lt;/div&gt;&lt;div&gt;#endif&lt;/div&gt;&lt;div&gt;&lt;span style=&quot;white-space: normal;&quot;&gt;&lt;span style=&quot;white-space:pre&quot;&gt;&#x9;&lt;/span&gt;int cpu;&lt;/span&gt;&lt;/div&gt;&lt;div&gt;&lt;span style=&quot;white-space: normal;&quot;&gt;&lt;span style=&quot;white-space:pre&quot;&gt;&#x9;&lt;/span&gt;int vcpu_id; /* id given by userspace at creation */&lt;/span&gt;&lt;/div&gt;&lt;div&gt;&lt;span style=&quot;white-space: normal;&quot;&gt;&lt;span style=&quot;white-space:pre&quot;&gt;&#x9;&lt;/span&gt;int vcpu_idx; /* index into kvm-&amp;gt;vcpu_array */&lt;/span&gt;&lt;/div&gt;&lt;div&gt;&lt;span style=&quot;white-space: normal;&quot;&gt;&lt;span style=&quot;white-space:pre&quot;&gt;&#x9;&lt;/span&gt;int ____srcu_idx; /* Don&#39;t use this directly.&amp;nbsp; You&#39;ve been warned. */&lt;/span&gt;&lt;/div&gt;&lt;div&gt;#ifdef CONFIG_PROVE_RCU&lt;/div&gt;&lt;div&gt;&lt;span style=&quot;white-space: normal;&quot;&gt;&lt;span style=&quot;white-space:pre&quot;&gt;&#x9;&lt;/span&gt;int srcu_depth;&lt;/span&gt;&lt;/div&gt;&lt;div&gt;#endif&lt;/div&gt;&lt;div&gt;&lt;span style=&quot;white-space: normal;&quot;&gt;&lt;span style=&quot;white-space:pre&quot;&gt;&#x9;&lt;/span&gt;int mode;&lt;/span&gt;&lt;/div&gt;&lt;div&gt;&lt;span style=&quot;white-space: normal;&quot;&gt;&lt;span style=&quot;white-space:pre&quot;&gt;&#x9;&lt;/span&gt;u64 requests;&lt;/span&gt;&lt;/div&gt;&lt;div&gt;&lt;span style=&quot;white-space: normal;&quot;&gt;&lt;span style=&quot;white-space:pre&quot;&gt;&#x9;&lt;/span&gt;unsigned long guest_debug;&lt;/span&gt;&lt;/div&gt;&lt;div&gt;&lt;br&gt;&lt;/div&gt;&lt;div&gt;&lt;span style=&quot;white-space: normal;&quot;&gt;&lt;span style=&quot;white-space:pre&quot;&gt;&#x9;&lt;/span&gt;struct mutex mutex;&lt;/span&gt;&lt;/div&gt;&lt;div&gt;&lt;span style=&quot;white-space: normal;&quot;&gt;&lt;span style=&quot;white-space:pre&quot;&gt;&#x9;&lt;/span&gt;struct kvm_run *run;&lt;/span&gt;&lt;/div&gt;&lt;div&gt;&lt;br&gt;&lt;/div&gt;&lt;div&gt;#ifndef __KVM_HAVE_ARCH_WQP&lt;/div&gt;&lt;div&gt;&lt;span style=&quot;white-space: normal;&quot;&gt;&lt;span style=&quot;white-space:pre&quot;&gt;&#x9;&lt;/span&gt;struct rcuwait wait;&lt;/span&gt;&lt;/div&gt;&lt;div&gt;#endif&lt;/div&gt;&lt;div&gt;&lt;span style=&quot;white-space: normal;&quot;&gt;&lt;span style=&quot;white-space:pre&quot;&gt;&#x9;&lt;/span&gt;struct pid __rcu *pid;&lt;/span&gt;&lt;/div&gt;&lt;div&gt;&lt;span style=&quot;white-space: normal;&quot;&gt;&lt;span style=&quot;white-space:pre&quot;&gt;&#x9;&lt;/span&gt;int sigset_active;&lt;/span&gt;&lt;/div&gt;&lt;div&gt;&lt;span style=&quot;white-space: normal;&quot;&gt;&lt;span style=&quot;white-space:pre&quot;&gt;&#x9;&lt;/span&gt;sigset_t sigset;&lt;/span&gt;&lt;/div&gt;&lt;div&gt;&lt;span style=&quot;white-space: normal;&quot;&gt;&lt;span style=&quot;white-space:pre&quot;&gt;&#x9;&lt;/span&gt;unsigned int halt_poll_ns;&lt;/span&gt;&lt;/div&gt;&lt;div&gt;&lt;span style=&quot;white-space: normal;&quot;&gt;&lt;span style=&quot;white-space:pre&quot;&gt;&#x9;&lt;/span&gt;bool valid_wakeup;&lt;/span&gt;&lt;/div&gt;&lt;div&gt;&lt;br&gt;&lt;/div&gt;&lt;div&gt;#ifdef CONFIG_HAS_IOMEM&lt;/div&gt;&lt;div&gt;&lt;span style=&quot;white-space: normal;&quot;&gt;&lt;span style=&quot;white-space:pre&quot;&gt;&#x9;&lt;/span&gt;int mmio_needed;&lt;/span&gt;&lt;/div&gt;&lt;div&gt;&lt;span style=&quot;white-space: normal;&quot;&gt;&lt;span style=&quot;white-space:pre&quot;&gt;&#x9;&lt;/span&gt;int mmio_read_completed;&lt;/span&gt;&lt;/div&gt;&lt;div&gt;&lt;span style=&quot;white-space: normal;&quot;&gt;&lt;span style=&quot;white-space:pre&quot;&gt;&#x9;&lt;/span&gt;int mmio_is_write;&lt;/span&gt;&lt;/div&gt;&lt;div&gt;&lt;span style=&quot;white-space: normal;&quot;&gt;&lt;span style=&quot;white-space:pre&quot;&gt;&#x9;&lt;/span&gt;int mmio_cur_fragment;&lt;/span&gt;&lt;/div&gt;&lt;div&gt;&lt;span style=&quot;white-space: normal;&quot;&gt;&lt;span style=&quot;white-space:pre&quot;&gt;&#x9;&lt;/span&gt;int mmio_nr_fragments;&lt;/span&gt;&lt;/div&gt;&lt;div&gt;&lt;span style=&quot;white-space: normal;&quot;&gt;&lt;span style=&quot;white-space:pre&quot;&gt;&#x9;&lt;/span&gt;struct kvm_mmio_fragment mmio_fragments[KVM_MAX_MMIO_FRAGMENTS];&lt;/span&gt;&lt;/div&gt;&lt;div&gt;#endif&lt;/div&gt;&lt;div&gt;&lt;br&gt;&lt;/div&gt;&lt;div&gt;#ifdef CONFIG_KVM_ASYNC_PF&lt;/div&gt;&lt;div&gt;&lt;span style=&quot;white-space: normal;&quot;&gt;&lt;span style=&quot;white-space:pre&quot;&gt;&#x9;&lt;/span&gt;struct {&lt;/span&gt;&lt;/div&gt;&lt;div&gt;&lt;span style=&quot;white-space: normal;&quot;&gt;&lt;span style=&quot;white-space:pre&quot;&gt;&#x9;&#x9;&lt;/span&gt;u32 queued;&lt;/span&gt;&lt;/div&gt;&lt;div&gt;&lt;span style=&quot;white-space: normal;&quot;&gt;&lt;span style=&quot;white-space:pre&quot;&gt;&#x9;&#x9;&lt;/span&gt;struct list_head queue;&lt;/span&gt;&lt;/div&gt;&lt;div&gt;&lt;span style=&quot;white-space: normal;&quot;&gt;&lt;span style=&quot;white-space:pre&quot;&gt;&#x9;&#x9;&lt;/span&gt;struct list_head done;&lt;/span&gt;&lt;/div&gt;&lt;div&gt;&lt;span style=&quot;white-space: normal;&quot;&gt;&lt;span style=&quot;white-space:pre&quot;&gt;&#x9;&#x9;&lt;/span&gt;spinlock_t lock;&lt;/span&gt;&lt;/div&gt;&lt;div&gt;&lt;span style=&quot;white-space: normal;&quot;&gt;&lt;span style=&quot;white-space:pre&quot;&gt;&#x9;&lt;/span&gt;} async_pf;&lt;/span&gt;&lt;/div&gt;&lt;div&gt;#endif&lt;/div&gt;&lt;div&gt;&lt;br&gt;&lt;/div&gt;&lt;div&gt;#ifdef CONFIG_HAVE_KVM_CPU_RELAX_INTERCEPT&lt;/div&gt;&lt;div&gt;&lt;span style=&quot;white-space: normal;&quot;&gt;&lt;span style=&quot;white-space:pre&quot;&gt;&#x9;&lt;/span&gt;/*&lt;/span&gt;&lt;/div&gt;&lt;div&gt;&lt;span style=&quot;white-space: normal;&quot;&gt;&lt;span style=&quot;white-space:pre&quot;&gt;&#x9;&lt;/span&gt; * Cpu relax intercept or pause loop exit optimization&lt;/span&gt;&lt;/div&gt;&lt;div&gt;&lt;span style=&quot;white-space: normal;&quot;&gt;&lt;span style=&quot;white-space:pre&quot;&gt;&#x9;&lt;/span&gt; * in_spin_loop: set when a vcpu does a pause loop exit&lt;/span&gt;&lt;/div&gt;&lt;div&gt;&lt;span style=&quot;white-space: normal;&quot;&gt;&lt;span style=&quot;white-space:pre&quot;&gt;&#x9;&lt;/span&gt; *&amp;nbsp; or cpu relax intercepted.&lt;/span&gt;&lt;/div&gt;&lt;div&gt;&lt;span style=&quot;white-space: normal;&quot;&gt;&lt;span style=&quot;white-space:pre&quot;&gt;&#x9;&lt;/span&gt; * dy_eligible: indicates whether vcpu is eligible for directed yield.&lt;/span&gt;&lt;/div&gt;&lt;div&gt;&lt;span style=&quot;white-space: normal;&quot;&gt;&lt;span style=&quot;white-space:pre&quot;&gt;&#x9;&lt;/span&gt; */&lt;/span&gt;&lt;/div&gt;&lt;div&gt;&lt;span style=&quot;white-space: normal;&quot;&gt;&lt;span style=&quot;white-space:pre&quot;&gt;&#x9;&lt;/span&gt;struct {&lt;/span&gt;&lt;/div&gt;&lt;div&gt;&lt;span style=&quot;white-space: normal;&quot;&gt;&lt;span style=&quot;white-space:pre&quot;&gt;&#x9;&#x9;&lt;/span&gt;bool in_spin_loop;&lt;/span&gt;&lt;/div&gt;&lt;div&gt;&lt;span style=&quot;white-space: normal;&quot;&gt;&lt;span style=&quot;white-space:pre&quot;&gt;&#x9;&#x9;&lt;/span&gt;bool dy_eligible;&lt;/span&gt;&lt;/div&gt;&lt;div&gt;&lt;span style=&quot;white-space: normal;&quot;&gt;&lt;span style=&quot;white-space:pre&quot;&gt;&#x9;&lt;/span&gt;} spin_loop;&lt;/span&gt;&lt;/div&gt;&lt;div&gt;#endif&lt;/div&gt;&lt;div&gt;&lt;span style=&quot;white-space: normal;&quot;&gt;&lt;span style=&quot;white-space:pre&quot;&gt;&#x9;&lt;/span&gt;bool preempted;&lt;/span&gt;&lt;/div&gt;&lt;div&gt;&lt;span style=&quot;white-space: normal;&quot;&gt;&lt;span style=&quot;white-space:pre&quot;&gt;&#x9;&lt;/span&gt;bool ready;&lt;/span&gt;&lt;/div&gt;&lt;div&gt;&lt;span style=&quot;white-space: normal;&quot;&gt;&lt;span style=&quot;white-space:pre&quot;&gt;&#x9;&lt;/span&gt;struct kvm_vcpu_arch arch;&lt;/span&gt;&lt;/div&gt;&lt;div&gt;&lt;span style=&quot;white-space: normal;&quot;&gt;&lt;span style=&quot;white-space:pre&quot;&gt;&#x9;&lt;/span&gt;struct kvm_vcpu_stat stat;&lt;/span&gt;&lt;/div&gt;&lt;div&gt;&lt;span style=&quot;white-space: normal;&quot;&gt;&lt;span style=&quot;white-space:pre&quot;&gt;&#x9;&lt;/span&gt;char stats_id[KVM_STATS_NAME_SIZE];&lt;/span&gt;&lt;/div&gt;&lt;div&gt;&lt;span style=&quot;white-space: normal;&quot;&gt;&lt;span style=&quot;white-space:pre&quot;&gt;&#x9;&lt;/span&gt;struct kvm_dirty_ring dirty_ring;&lt;/span&gt;&lt;/div&gt;&lt;div&gt;&lt;br&gt;&lt;/div&gt;&lt;div&gt;&lt;span style=&quot;white-space: normal;&quot;&gt;&lt;span style=&quot;white-space:pre&quot;&gt;&#x9;&lt;/span&gt;/*&lt;/span&gt;&lt;/div&gt;&lt;div&gt;&lt;span style=&quot;white-space: normal;&quot;&gt;&lt;span style=&quot;white-space:pre&quot;&gt;&#x9;&lt;/span&gt; * The most recently used memslot by this vCPU and the slots generation&lt;/span&gt;&lt;/div&gt;&lt;div&gt;&lt;span style=&quot;white-space: normal;&quot;&gt;&lt;span style=&quot;white-space:pre&quot;&gt;&#x9;&lt;/span&gt; * for which it is valid.&lt;/span&gt;&lt;/div&gt;&lt;div&gt;&lt;span style=&quot;white-space: normal;&quot;&gt;&lt;span style=&quot;white-space:pre&quot;&gt;&#x9;&lt;/span&gt; * No wraparound protection is needed since generations won&#39;t overflow in&lt;/span&gt;&lt;/div&gt;&lt;div&gt;&lt;span style=&quot;white-space: normal;&quot;&gt;&lt;span style=&quot;white-space:pre&quot;&gt;&#x9;&lt;/span&gt; * thousands of years, even assuming 1M memslot operations per second.&lt;/span&gt;&lt;/div&gt;&lt;div&gt;&lt;span style=&quot;white-space: normal;&quot;&gt;&lt;span style=&quot;white-space:pre&quot;&gt;&#x9;&lt;/span&gt; */&lt;/span&gt;&lt;/div&gt;&lt;div&gt;&lt;span style=&quot;white-space: normal;&quot;&gt;&lt;span style=&quot;white-space:pre&quot;&gt;&#x9;&lt;/span&gt;struct kvm_memory_slot *last_used_slot;&lt;/span&gt;&lt;/div&gt;&lt;div&gt;&lt;span style=&quot;white-space: normal;&quot;&gt;&lt;span style=&quot;white-space:pre&quot;&gt;&#x9;&lt;/span&gt;u64 last_used_slot_gen;&lt;/span&gt;&lt;/div&gt;&lt;div&gt;};&lt;/div&gt;" style="rounded=0;whiteSpace=wrap;html=1;sketch=1;curveFitting=1;jiggle=2;fontFamily=Comic Sans MS;align=left;" parent="1" vertex="1">
          <mxGeometry x="1000" y="580" width="520" height="1110" as="geometry" />
        </mxCell>
        <mxCell id="f0wCPN4-28QZL9eDYPKT-21" value="Perf Event" style="text;html=1;align=center;verticalAlign=middle;whiteSpace=wrap;rounded=0;fontSize=48;fontFamily=Comic Sans MS;" parent="1" vertex="1">
          <mxGeometry x="-750" y="2130" width="260" height="90" as="geometry" />
        </mxCell>
        <mxCell id="f0wCPN4-28QZL9eDYPKT-22" value="&lt;div&gt;inlcude/linux/perf_event.h&lt;/div&gt;&lt;div&gt;&lt;br&gt;&lt;/div&gt;&lt;div&gt;/**&lt;/div&gt;&lt;div&gt;&amp;nbsp;* struct perf_event - performance event kernel representation:&lt;/div&gt;&lt;div&gt;&amp;nbsp;*/&lt;/div&gt;&lt;div&gt;struct perf_event {&lt;/div&gt;&lt;div&gt;&lt;br&gt;&lt;/div&gt;&lt;div&gt;&lt;span style=&quot;white-space: pre;&quot;&gt;&#x9;&lt;/span&gt;&lt;span style=&quot;background-color: initial;&quot;&gt;struct perf_event_attr&#x9;&#x9;attr;&lt;/span&gt;&lt;br&gt;&lt;/div&gt;&lt;div&gt;&lt;span style=&quot;background-color: initial;&quot;&gt;&lt;span style=&quot;white-space: normal;&quot;&gt;&lt;span style=&quot;white-space:pre&quot;&gt;&#x9;&lt;/span&gt;struct hw_perf_event&lt;span style=&quot;white-space:pre&quot;&gt;&#x9;&#x9;&lt;/span&gt;hw;&lt;/span&gt;&lt;br&gt;&lt;/span&gt;&lt;/div&gt;&lt;div&gt;};&lt;/div&gt;" style="rounded=0;whiteSpace=wrap;html=1;sketch=1;curveFitting=1;jiggle=2;fontFamily=Comic Sans MS;align=left;" parent="1" vertex="1">
          <mxGeometry x="-730" y="2260" width="600" height="180" as="geometry" />
        </mxCell>
        <mxCell id="f0wCPN4-28QZL9eDYPKT-23" value="&lt;div&gt;include/uapi/linux/perf_event.h&lt;/div&gt;&lt;div&gt;&lt;br&gt;&lt;/div&gt;&lt;div&gt;/*&lt;/div&gt;&lt;div&gt;&amp;nbsp;* Hardware event_id to monitor via a performance monitoring event:&lt;/div&gt;&lt;div&gt;&amp;nbsp;*&lt;/div&gt;&lt;div&gt;&amp;nbsp;* @sample_max_stack: Max number of frame pointers in a callchain,&lt;/div&gt;&lt;div&gt;&amp;nbsp;*&lt;span style=&quot;white-space:pre&quot;&gt;&#x9;&#x9;&lt;/span&gt;&amp;nbsp; &amp;nbsp; &amp;nbsp; should be &amp;lt; /proc/sys/kernel/perf_event_max_stack&lt;/div&gt;&lt;div&gt;&amp;nbsp;*/&lt;/div&gt;&lt;div&gt;&lt;div&gt;struct perf_event_attr {&lt;/div&gt;&lt;div&gt;&lt;br&gt;&lt;/div&gt;&lt;div&gt;&lt;span style=&quot;white-space: normal;&quot;&gt;&lt;span style=&quot;white-space:pre&quot;&gt;&#x9;&lt;/span&gt;/*&lt;/span&gt;&lt;/div&gt;&lt;div&gt;&lt;span style=&quot;white-space: normal;&quot;&gt;&lt;span style=&quot;white-space:pre&quot;&gt;&#x9;&lt;/span&gt; * Major type: hardware/software/tracepoint/etc.&lt;/span&gt;&lt;/div&gt;&lt;div&gt;&lt;span style=&quot;white-space: normal;&quot;&gt;&lt;span style=&quot;white-space:pre&quot;&gt;&#x9;&lt;/span&gt; */&lt;/span&gt;&lt;/div&gt;&lt;div&gt;&lt;span style=&quot;white-space: normal;&quot;&gt;&lt;span style=&quot;white-space:pre&quot;&gt;&#x9;&lt;/span&gt;__u32&lt;span style=&quot;white-space:pre&quot;&gt;&#x9;&#x9;&#x9;&lt;/span&gt;type;&lt;/span&gt;&lt;/div&gt;&lt;div&gt;&lt;br&gt;&lt;/div&gt;&lt;div&gt;&lt;span style=&quot;white-space: normal;&quot;&gt;&lt;span style=&quot;white-space:pre&quot;&gt;&#x9;&lt;/span&gt;/*&lt;/span&gt;&lt;/div&gt;&lt;div&gt;&lt;span style=&quot;white-space: normal;&quot;&gt;&lt;span style=&quot;white-space:pre&quot;&gt;&#x9;&lt;/span&gt; * Size of the attr structure, for fwd/bwd compat.&lt;/span&gt;&lt;/div&gt;&lt;div&gt;&lt;span style=&quot;white-space: normal;&quot;&gt;&lt;span style=&quot;white-space:pre&quot;&gt;&#x9;&lt;/span&gt; */&lt;/span&gt;&lt;/div&gt;&lt;div&gt;&lt;span style=&quot;white-space: normal;&quot;&gt;&lt;span style=&quot;white-space:pre&quot;&gt;&#x9;&lt;/span&gt;__u32&lt;span style=&quot;white-space:pre&quot;&gt;&#x9;&#x9;&#x9;&lt;/span&gt;size;&lt;/span&gt;&lt;/div&gt;&lt;div&gt;&lt;br&gt;&lt;/div&gt;&lt;div&gt;&lt;span style=&quot;white-space: normal;&quot;&gt;&lt;span style=&quot;white-space:pre&quot;&gt;&#x9;&lt;/span&gt;/*&lt;/span&gt;&lt;/div&gt;&lt;div&gt;&lt;span style=&quot;white-space: normal;&quot;&gt;&lt;span style=&quot;white-space:pre&quot;&gt;&#x9;&lt;/span&gt; * Type specific configuration information.&lt;/span&gt;&lt;/div&gt;&lt;div&gt;&lt;span style=&quot;white-space: normal;&quot;&gt;&lt;span style=&quot;white-space:pre&quot;&gt;&#x9;&lt;/span&gt; */&lt;/span&gt;&lt;/div&gt;&lt;div&gt;&lt;span style=&quot;white-space: normal;&quot;&gt;&lt;span style=&quot;white-space:pre&quot;&gt;&#x9;&lt;/span&gt;__u64&lt;span style=&quot;white-space:pre&quot;&gt;&#x9;&#x9;&#x9;&lt;/span&gt;config;&lt;/span&gt;&lt;/div&gt;&lt;/div&gt;&lt;div&gt;};&lt;/div&gt;" style="rounded=0;whiteSpace=wrap;html=1;sketch=1;curveFitting=1;jiggle=2;fontFamily=Comic Sans MS;align=left;" parent="1" vertex="1">
          <mxGeometry x="-730" y="2560" width="600" height="440" as="geometry" />
        </mxCell>
        <mxCell id="f0wCPN4-28QZL9eDYPKT-24" value="&lt;div&gt;include/uapi/linux/perf_event.h&lt;/div&gt;&lt;div&gt;&lt;br&gt;&lt;/div&gt;&lt;div&gt;&lt;div&gt;/*&lt;/div&gt;&lt;div&gt;&amp;nbsp;* attr.type&lt;/div&gt;&lt;div&gt;&amp;nbsp;*/&lt;/div&gt;&lt;div&gt;enum perf_type_id {&lt;/div&gt;&lt;div&gt;&lt;span style=&quot;white-space: normal;&quot;&gt;&lt;span style=&quot;white-space:pre&quot;&gt;&#x9;&lt;/span&gt;PERF_TYPE_HARDWARE&lt;span style=&quot;white-space:pre&quot;&gt;&#x9;&#x9;&#x9;&lt;/span&gt;= 0,&lt;/span&gt;&lt;/div&gt;&lt;div&gt;&lt;span style=&quot;white-space: normal;&quot;&gt;&lt;span style=&quot;white-space:pre&quot;&gt;&#x9;&lt;/span&gt;PERF_TYPE_SOFTWARE&lt;span style=&quot;white-space:pre&quot;&gt;&#x9;&#x9;&#x9;&lt;/span&gt;= 1,&lt;/span&gt;&lt;/div&gt;&lt;div&gt;&lt;span style=&quot;white-space: normal;&quot;&gt;&lt;span style=&quot;white-space:pre&quot;&gt;&#x9;&lt;/span&gt;PERF_TYPE_TRACEPOINT&lt;span style=&quot;white-space:pre&quot;&gt;&#x9;&#x9;&#x9;&lt;/span&gt;= 2,&lt;/span&gt;&lt;/div&gt;&lt;div&gt;&lt;span style=&quot;white-space: normal;&quot;&gt;&lt;span style=&quot;white-space:pre&quot;&gt;&#x9;&lt;/span&gt;PERF_TYPE_HW_CACHE&lt;span style=&quot;white-space:pre&quot;&gt;&#x9;&#x9;&#x9;&lt;/span&gt;= 3,&lt;/span&gt;&lt;/div&gt;&lt;div&gt;&lt;span style=&quot;white-space: normal;&quot;&gt;&lt;span style=&quot;white-space:pre&quot;&gt;&#x9;&lt;/span&gt;PERF_TYPE_RAW&lt;span style=&quot;white-space:pre&quot;&gt;&#x9;&#x9;&#x9;&#x9;&lt;/span&gt;= 4,&lt;/span&gt;&lt;/div&gt;&lt;div&gt;&lt;span style=&quot;white-space: normal;&quot;&gt;&lt;span style=&quot;white-space:pre&quot;&gt;&#x9;&lt;/span&gt;PERF_TYPE_BREAKPOINT&lt;span style=&quot;white-space:pre&quot;&gt;&#x9;&#x9;&#x9;&lt;/span&gt;= 5,&lt;/span&gt;&lt;/div&gt;&lt;div&gt;&lt;br&gt;&lt;/div&gt;&lt;div&gt;&lt;span style=&quot;white-space: normal;&quot;&gt;&lt;span style=&quot;white-space:pre&quot;&gt;&#x9;&lt;/span&gt;PERF_TYPE_MAX,&lt;span style=&quot;white-space:pre&quot;&gt;&#x9;&#x9;&#x9;&#x9;&lt;/span&gt;/* non-ABI */&lt;/span&gt;&lt;/div&gt;&lt;div&gt;};&lt;/div&gt;&lt;/div&gt;" style="rounded=0;whiteSpace=wrap;html=1;sketch=1;curveFitting=1;jiggle=2;fontFamily=Comic Sans MS;align=left;" parent="1" vertex="1">
          <mxGeometry x="-730" y="3070" width="360" height="302" as="geometry" />
        </mxCell>
        <mxCell id="f0wCPN4-28QZL9eDYPKT-25" value="&lt;ul style=&quot;box-sizing: border-box; scrollbar-width: auto; scrollbar-color: var(--scrollbar-thumb)transparent; background-color: rgb(255, 255, 255);&quot;&gt;&lt;li style=&quot;box-sizing: border-box; scrollbar-width: auto; scrollbar-color: var(--scrollbar-thumb)transparent;&quot;&gt;&lt;font style=&quot;font-size: 12px;&quot; face=&quot;Comic Sans MS&quot;&gt;&lt;span style=&quot;box-sizing: border-box; scrollbar-width: auto; scrollbar-color: var(--scrollbar-thumb)transparent;&quot;&gt;Hardware Event&lt;/span&gt;：CPU 性能计数器（performance monitoring counters）&lt;/font&gt;&lt;/li&gt;&lt;li style=&quot;box-sizing: border-box; scrollbar-width: auto; scrollbar-color: var(--scrollbar-thumb)transparent;&quot;&gt;&lt;font style=&quot;font-size: 12px;&quot; face=&quot;Comic Sans MS&quot;&gt;&lt;span style=&quot;box-sizing: border-box; scrollbar-width: auto; scrollbar-color: var(--scrollbar-thumb)transparent;&quot;&gt;Software event&lt;/span&gt;：内核计数器事件&lt;/font&gt;&lt;/li&gt;&lt;li style=&quot;box-sizing: border-box; scrollbar-width: auto; scrollbar-color: var(--scrollbar-thumb)transparent;&quot;&gt;&lt;span style=&quot;box-sizing: border-box; scrollbar-width: auto; scrollbar-color: var(--scrollbar-thumb)transparent;&quot;&gt;Hardware cache event&lt;/span&gt;：CPU Cache 事件&lt;/li&gt;&lt;li style=&quot;box-sizing: border-box; scrollbar-width: auto; scrollbar-color: var(--scrollbar-thumb)transparent;&quot;&gt;&lt;span style=&quot;box-sizing: border-box; scrollbar-width: auto; scrollbar-color: var(--scrollbar-thumb)transparent;&quot;&gt;Kernel PMU event&lt;/span&gt;：Performance Monitoring Unit (PMU) 事件&lt;/li&gt;&lt;li style=&quot;box-sizing: border-box; scrollbar-width: auto; scrollbar-color: var(--scrollbar-thumb)transparent;&quot;&gt;&lt;span style=&quot;box-sizing: border-box; scrollbar-width: auto; scrollbar-color: var(--scrollbar-thumb)transparent;&quot;&gt;Tracepoint event&lt;/span&gt;：包含了静态和动态代码追踪事件&lt;ul style=&quot;box-sizing: border-box; scrollbar-width: auto; scrollbar-color: var(--scrollbar-thumb)transparent;&quot;&gt;&lt;li style=&quot;box-sizing: border-box; scrollbar-width: auto; scrollbar-color: var(--scrollbar-thumb)transparent;&quot;&gt;&lt;span style=&quot;box-sizing: border-box; scrollbar-width: auto; scrollbar-color: var(--scrollbar-thumb)transparent;&quot;&gt;Kernel tracepoints&lt;/span&gt;：在 kernel 中关键位置的静态追踪代码&lt;/li&gt;&lt;li style=&quot;box-sizing: border-box; scrollbar-width: auto; scrollbar-color: var(--scrollbar-thumb)transparent;&quot;&gt;&lt;span style=&quot;box-sizing: border-box; scrollbar-width: auto; scrollbar-color: var(--scrollbar-thumb)transparent;&quot;&gt;kprobes&lt;/span&gt;：在内核中的任意位置动态地被插入追踪代码&lt;/li&gt;&lt;li style=&quot;box-sizing: border-box; scrollbar-width: auto; scrollbar-color: var(--scrollbar-thumb)transparent;&quot;&gt;&lt;span style=&quot;box-sizing: border-box; scrollbar-width: auto; scrollbar-color: var(--scrollbar-thumb)transparent;&quot;&gt;uprobes&lt;/span&gt;：与kprobes类似，但用于用户空间。动态地在应用程序和库中的任意位置插入追踪代码&lt;/li&gt;&lt;li style=&quot;box-sizing: border-box; scrollbar-width: auto; scrollbar-color: var(--scrollbar-thumb)transparent;&quot;&gt;&lt;span style=&quot;box-sizing: border-box; scrollbar-width: auto; scrollbar-color: var(--scrollbar-thumb)transparent;&quot;&gt;USDT&lt;/span&gt;：是 tracepoints 在用户空间的对应技术，是应用程序和库在它们的代码中提前加入的静态追踪代码&lt;/li&gt;&lt;/ul&gt;&lt;/li&gt;&lt;/ul&gt;" style="rounded=0;whiteSpace=wrap;html=1;sketch=1;curveFitting=1;jiggle=2;fontFamily=Comic Sans MS;align=left;" parent="1" vertex="1">
          <mxGeometry x="-300" y="3125" width="680" height="192" as="geometry" />
        </mxCell>
        <mxCell id="f0wCPN4-28QZL9eDYPKT-26" value="&lt;div&gt;/*&lt;/div&gt;&lt;div&gt;&amp;nbsp;* attr.config layout for type PERF_TYPE_HARDWARE and PERF_TYPE_HW_CACHE&lt;/div&gt;&lt;div&gt;&amp;nbsp;* PERF_TYPE_HARDWARE:&lt;span style=&quot;white-space:pre&quot;&gt;&#x9;&#x9;&#x9;&lt;/span&gt;0xEEEEEEEE000000AA&lt;/div&gt;&lt;div&gt;&amp;nbsp;*&lt;span style=&quot;white-space:pre&quot;&gt;&#x9;&#x9;&#x9;&#x9;&#x9;&lt;/span&gt;AA: hardware event ID&lt;/div&gt;&lt;div&gt;&amp;nbsp;*&lt;span style=&quot;white-space:pre&quot;&gt;&#x9;&#x9;&#x9;&#x9;&#x9;&lt;/span&gt;EEEEEEEE: PMU type ID&lt;/div&gt;&lt;div&gt;&amp;nbsp;* PERF_TYPE_HW_CACHE:&lt;span style=&quot;white-space:pre&quot;&gt;&#x9;&#x9;&#x9;&lt;/span&gt;0xEEEEEEEE00DDCCBB&lt;/div&gt;&lt;div&gt;&amp;nbsp;*&lt;span style=&quot;white-space:pre&quot;&gt;&#x9;&#x9;&#x9;&#x9;&#x9;&lt;/span&gt;BB: hardware cache ID&lt;/div&gt;&lt;div&gt;&amp;nbsp;*&lt;span style=&quot;white-space:pre&quot;&gt;&#x9;&#x9;&#x9;&#x9;&#x9;&lt;/span&gt;CC: hardware cache op ID&lt;/div&gt;&lt;div&gt;&amp;nbsp;*&lt;span style=&quot;white-space:pre&quot;&gt;&#x9;&#x9;&#x9;&#x9;&#x9;&lt;/span&gt;DD: hardware cache op result ID&lt;/div&gt;&lt;div&gt;&amp;nbsp;*&lt;span style=&quot;white-space:pre&quot;&gt;&#x9;&#x9;&#x9;&#x9;&#x9;&lt;/span&gt;EEEEEEEE: PMU type ID&lt;/div&gt;&lt;div&gt;&amp;nbsp;* If the PMU type ID is 0, the PERF_TYPE_RAW will be applied.&lt;/div&gt;&lt;div&gt;&amp;nbsp;*/&lt;/div&gt;&lt;div&gt;#define PERF_PMU_TYPE_SHIFT&lt;span style=&quot;white-space:pre&quot;&gt;&#x9;&#x9;&lt;/span&gt;32&lt;/div&gt;&lt;div&gt;#define PERF_HW_EVENT_MASK&lt;span style=&quot;white-space:pre&quot;&gt;&#x9;&#x9;&lt;/span&gt;0xffffffff&lt;/div&gt;&lt;div&gt;&lt;br&gt;&lt;/div&gt;" style="rounded=0;whiteSpace=wrap;html=1;sketch=1;curveFitting=1;jiggle=2;fontFamily=Comic Sans MS;align=left;" parent="1" vertex="1">
          <mxGeometry x="-730" y="3440" width="530" height="250" as="geometry" />
        </mxCell>
        <mxCell id="f0wCPN4-28QZL9eDYPKT-27" value="SBI PMU event type" style="text;html=1;align=center;verticalAlign=middle;whiteSpace=wrap;rounded=0;fontSize=48;fontFamily=Comic Sans MS;" parent="1" vertex="1">
          <mxGeometry x="-4020" y="2140" width="620" height="90" as="geometry" />
        </mxCell>
        <mxCell id="f0wCPN4-28QZL9eDYPKT-28" value="&lt;div&gt;arch/riscv/include/asm/sbi.h&lt;/div&gt;&lt;div&gt;&lt;br&gt;&lt;/div&gt;&lt;div&gt;&lt;br&gt;&lt;/div&gt;&lt;div&gt;&lt;br&gt;&lt;/div&gt;&lt;div&gt;&lt;br&gt;&lt;/div&gt;&lt;div&gt;/* SBI PMU event types */&lt;/div&gt;&lt;div&gt;enum sbi_pmu_event_type {&lt;/div&gt;&lt;div&gt;&lt;span style=&quot;white-space: normal;&quot;&gt;&lt;span style=&quot;white-space:pre&quot;&gt;&#x9;&lt;/span&gt;SBI_PMU_EVENT_TYPE_HW = 0x0,&lt;/span&gt;&lt;/div&gt;&lt;div&gt;&lt;span style=&quot;white-space: normal;&quot;&gt;&lt;span style=&quot;white-space:pre&quot;&gt;&#x9;&lt;/span&gt;SBI_PMU_EVENT_TYPE_CACHE = 0x1,&lt;/span&gt;&lt;/div&gt;&lt;div&gt;&lt;span style=&quot;white-space: normal;&quot;&gt;&lt;span style=&quot;white-space:pre&quot;&gt;&#x9;&lt;/span&gt;SBI_PMU_EVENT_TYPE_RAW = 0x2,&lt;/span&gt;&lt;/div&gt;&lt;div&gt;&lt;span style=&quot;white-space: normal;&quot;&gt;&lt;span style=&quot;white-space:pre&quot;&gt;&#x9;&lt;/span&gt;SBI_PMU_EVENT_TYPE_FW = 0xf,&lt;/span&gt;&lt;/div&gt;&lt;div&gt;};&lt;/div&gt;" style="rounded=0;whiteSpace=wrap;html=1;sketch=1;curveFitting=1;jiggle=2;fontFamily=Comic Sans MS;align=left;" parent="1" vertex="1">
          <mxGeometry x="-3940" y="2340" width="600" height="230" as="geometry" />
        </mxCell>
        <mxCell id="f0wCPN4-28QZL9eDYPKT-29" value="&lt;span style=&quot;color: rgb(31, 35, 40); font-size: 16px; font-style: normal; font-variant-ligatures: normal; font-variant-caps: normal; font-weight: 400; letter-spacing: normal; orphans: 2; text-align: start; text-indent: 0px; text-transform: none; widows: 2; word-spacing: 0px; -webkit-text-stroke-width: 0px; white-space: normal; background-color: rgb(255, 255, 255); text-decoration-thickness: initial; text-decoration-style: initial; text-decoration-color: initial; float: none; display: inline !important;&quot;&gt;&lt;font face=&quot;Comic Sans MS&quot;&gt;Table 1. PMU Hardware Events&lt;/font&gt;&lt;/span&gt;&lt;table id=&quot;user-content-table_pmu_hardware_events&quot; style=&quot;box-sizing: border-box; border-spacing: 0px; border-collapse: collapse; margin-top: 0px; margin-bottom: 16px; display: block; width: max-content; max-width: 100%; overflow: auto; color: rgb(31, 35, 40); font-size: 16px; font-style: normal; font-variant-ligatures: normal; font-variant-caps: normal; font-weight: 400; letter-spacing: normal; orphans: 2; text-align: start; text-transform: none; widows: 2; word-spacing: 0px; -webkit-text-stroke-width: 0px; white-space: normal; background-color: rgb(255, 255, 255); text-decoration-thickness: initial; text-decoration-style: initial; text-decoration-color: initial;&quot;&gt;&lt;thead style=&quot;box-sizing: border-box;&quot;&gt;&lt;tr style=&quot;box-sizing: border-box; background-color: var(--bgColor-default, var(--color-canvas-default)); border-top: 1px solid var(--borderColor-muted, var(--color-border-muted));&quot;&gt;&lt;th style=&quot;box-sizing: border-box; padding: 6px 13px; font-weight: var(--base-text-weight-semibold, 600); border: 1px solid var(--borderColor-default, var(--color-border-default));&quot;&gt;&lt;font face=&quot;S3zxL0_sOqIlktY2SnAq&quot;&gt;General Event Name&lt;/font&gt;&lt;/th&gt;&lt;th style=&quot;box-sizing: border-box; padding: 6px 13px; font-weight: var(--base-text-weight-semibold, 600); border: 1px solid var(--borderColor-default, var(--color-border-default));&quot;&gt;&lt;font face=&quot;S3zxL0_sOqIlktY2SnAq&quot;&gt;Code&lt;/font&gt;&lt;/th&gt;&lt;th style=&quot;box-sizing: border-box; padding: 6px 13px; font-weight: var(--base-text-weight-semibold, 600); border: 1px solid var(--borderColor-default, var(--color-border-default));&quot;&gt;&lt;font face=&quot;S3zxL0_sOqIlktY2SnAq&quot;&gt;Description&lt;/font&gt;&lt;/th&gt;&lt;/tr&gt;&lt;/thead&gt;&lt;tbody style=&quot;box-sizing: border-box;&quot;&gt;&lt;tr style=&quot;box-sizing: border-box; background-color: var(--bgColor-default, var(--color-canvas-default)); border-top: 1px solid var(--borderColor-muted, var(--color-border-muted));&quot;&gt;&lt;td style=&quot;box-sizing: border-box; padding: 6px 13px; border: 1px solid var(--borderColor-default, var(--color-border-default));&quot;&gt;&lt;p dir=&quot;auto&quot; style=&quot;box-sizing: border-box; margin-top: 0px; margin-bottom: 0px;&quot;&gt;&lt;font face=&quot;S3zxL0_sOqIlktY2SnAq&quot;&gt;SBI_PMU_HW_NO_EVENT&lt;/font&gt;&lt;/p&gt;&lt;/td&gt;&lt;td style=&quot;box-sizing: border-box; padding: 6px 13px; border: 1px solid var(--borderColor-default, var(--color-border-default));&quot;&gt;&lt;p dir=&quot;auto&quot; style=&quot;box-sizing: border-box; margin-top: 0px; margin-bottom: 0px;&quot;&gt;&lt;font face=&quot;S3zxL0_sOqIlktY2SnAq&quot;&gt;0&lt;/font&gt;&lt;/p&gt;&lt;/td&gt;&lt;td style=&quot;box-sizing: border-box; padding: 6px 13px; border: 1px solid var(--borderColor-default, var(--color-border-default));&quot;&gt;&lt;p dir=&quot;auto&quot; style=&quot;box-sizing: border-box; margin-top: 0px; margin-bottom: 0px;&quot;&gt;&lt;font face=&quot;S3zxL0_sOqIlktY2SnAq&quot;&gt;Unused event because&lt;span&gt;&amp;nbsp;&lt;/span&gt;&lt;code style=&quot;box-sizing: border-box; font-size: 13.6px; padding: 0.2em 0.4em; margin: 0px; white-space: break-spaces; background-color: var(--bgColor-neutral-muted, var(--color-neutral-muted)); border-radius: 6px;&quot;&gt;event_idx&lt;/code&gt;&lt;span&gt;&amp;nbsp;&lt;/span&gt;cannot be zero&lt;/font&gt;&lt;/p&gt;&lt;/td&gt;&lt;/tr&gt;&lt;tr style=&quot;box-sizing: border-box; background-color: var(--bgColor-muted, var(--color-canvas-subtle)); border-top: 1px solid var(--borderColor-muted, var(--color-border-muted));&quot;&gt;&lt;td style=&quot;box-sizing: border-box; padding: 6px 13px; border: 1px solid var(--borderColor-default, var(--color-border-default));&quot;&gt;&lt;p dir=&quot;auto&quot; style=&quot;box-sizing: border-box; margin-top: 0px; margin-bottom: 0px;&quot;&gt;&lt;font face=&quot;S3zxL0_sOqIlktY2SnAq&quot;&gt;SBI_PMU_HW_CPU_CYCLES&lt;/font&gt;&lt;/p&gt;&lt;/td&gt;&lt;td style=&quot;box-sizing: border-box; padding: 6px 13px; border: 1px solid var(--borderColor-default, var(--color-border-default));&quot;&gt;&lt;p dir=&quot;auto&quot; style=&quot;box-sizing: border-box; margin-top: 0px; margin-bottom: 0px;&quot;&gt;&lt;font face=&quot;S3zxL0_sOqIlktY2SnAq&quot;&gt;1&lt;/font&gt;&lt;/p&gt;&lt;/td&gt;&lt;td style=&quot;box-sizing: border-box; padding: 6px 13px; border: 1px solid var(--borderColor-default, var(--color-border-default));&quot;&gt;&lt;p dir=&quot;auto&quot; style=&quot;box-sizing: border-box; margin-top: 0px; margin-bottom: 0px;&quot;&gt;&lt;font face=&quot;S3zxL0_sOqIlktY2SnAq&quot;&gt;Event for each CPU cycle&lt;/font&gt;&lt;/p&gt;&lt;/td&gt;&lt;/tr&gt;&lt;tr style=&quot;box-sizing: border-box; background-color: var(--bgColor-default, var(--color-canvas-default)); border-top: 1px solid var(--borderColor-muted, var(--color-border-muted));&quot;&gt;&lt;td style=&quot;box-sizing: border-box; padding: 6px 13px; border: 1px solid var(--borderColor-default, var(--color-border-default));&quot;&gt;&lt;p dir=&quot;auto&quot; style=&quot;box-sizing: border-box; margin-top: 0px; margin-bottom: 0px;&quot;&gt;&lt;font face=&quot;S3zxL0_sOqIlktY2SnAq&quot;&gt;SBI_PMU_HW_INSTRUCTIONS&lt;/font&gt;&lt;/p&gt;&lt;/td&gt;&lt;td style=&quot;box-sizing: border-box; padding: 6px 13px; border: 1px solid var(--borderColor-default, var(--color-border-default));&quot;&gt;&lt;p dir=&quot;auto&quot; style=&quot;box-sizing: border-box; margin-top: 0px; margin-bottom: 0px;&quot;&gt;&lt;font face=&quot;S3zxL0_sOqIlktY2SnAq&quot;&gt;2&lt;/font&gt;&lt;/p&gt;&lt;/td&gt;&lt;td style=&quot;box-sizing: border-box; padding: 6px 13px; border: 1px solid var(--borderColor-default, var(--color-border-default));&quot;&gt;&lt;p dir=&quot;auto&quot; style=&quot;box-sizing: border-box; margin-top: 0px; margin-bottom: 0px;&quot;&gt;&lt;font face=&quot;S3zxL0_sOqIlktY2SnAq&quot;&gt;Event for each completed instruction&lt;/font&gt;&lt;/p&gt;&lt;/td&gt;&lt;/tr&gt;&lt;tr style=&quot;box-sizing: border-box; background-color: var(--bgColor-muted, var(--color-canvas-subtle)); border-top: 1px solid var(--borderColor-muted, var(--color-border-muted));&quot;&gt;&lt;td style=&quot;box-sizing: border-box; padding: 6px 13px; border: 1px solid var(--borderColor-default, var(--color-border-default));&quot;&gt;&lt;p dir=&quot;auto&quot; style=&quot;box-sizing: border-box; margin-top: 0px; margin-bottom: 0px;&quot;&gt;&lt;font face=&quot;S3zxL0_sOqIlktY2SnAq&quot;&gt;SBI_PMU_HW_CACHE_REFERENCES&lt;/font&gt;&lt;/p&gt;&lt;/td&gt;&lt;td style=&quot;box-sizing: border-box; padding: 6px 13px; border: 1px solid var(--borderColor-default, var(--color-border-default));&quot;&gt;&lt;p dir=&quot;auto&quot; style=&quot;box-sizing: border-box; margin-top: 0px; margin-bottom: 0px;&quot;&gt;&lt;font face=&quot;S3zxL0_sOqIlktY2SnAq&quot;&gt;3&lt;/font&gt;&lt;/p&gt;&lt;/td&gt;&lt;td style=&quot;box-sizing: border-box; padding: 6px 13px; border: 1px solid var(--borderColor-default, var(--color-border-default));&quot;&gt;&lt;p dir=&quot;auto&quot; style=&quot;box-sizing: border-box; margin-top: 0px; margin-bottom: 0px;&quot;&gt;&lt;font face=&quot;S3zxL0_sOqIlktY2SnAq&quot;&gt;Event for cache hit&lt;/font&gt;&lt;/p&gt;&lt;/td&gt;&lt;/tr&gt;&lt;tr style=&quot;box-sizing: border-box; background-color: var(--bgColor-default, var(--color-canvas-default)); border-top: 1px solid var(--borderColor-muted, var(--color-border-muted));&quot;&gt;&lt;td style=&quot;box-sizing: border-box; padding: 6px 13px; border: 1px solid var(--borderColor-default, var(--color-border-default));&quot;&gt;&lt;p dir=&quot;auto&quot; style=&quot;box-sizing: border-box; margin-top: 0px; margin-bottom: 0px;&quot;&gt;&lt;font face=&quot;S3zxL0_sOqIlktY2SnAq&quot;&gt;SBI_PMU_HW_CACHE_MISSES&lt;/font&gt;&lt;/p&gt;&lt;/td&gt;&lt;td style=&quot;box-sizing: border-box; padding: 6px 13px; border: 1px solid var(--borderColor-default, var(--color-border-default));&quot;&gt;&lt;p dir=&quot;auto&quot; style=&quot;box-sizing: border-box; margin-top: 0px; margin-bottom: 0px;&quot;&gt;&lt;font face=&quot;S3zxL0_sOqIlktY2SnAq&quot;&gt;4&lt;/font&gt;&lt;/p&gt;&lt;/td&gt;&lt;td style=&quot;box-sizing: border-box; padding: 6px 13px; border: 1px solid var(--borderColor-default, var(--color-border-default));&quot;&gt;&lt;p dir=&quot;auto&quot; style=&quot;box-sizing: border-box; margin-top: 0px; margin-bottom: 0px;&quot;&gt;&lt;font face=&quot;S3zxL0_sOqIlktY2SnAq&quot;&gt;Event for cache miss&lt;/font&gt;&lt;/p&gt;&lt;/td&gt;&lt;/tr&gt;&lt;tr style=&quot;box-sizing: border-box; background-color: var(--bgColor-muted, var(--color-canvas-subtle)); border-top: 1px solid var(--borderColor-muted, var(--color-border-muted));&quot;&gt;&lt;td style=&quot;box-sizing: border-box; padding: 6px 13px; border: 1px solid var(--borderColor-default, var(--color-border-default));&quot;&gt;&lt;p dir=&quot;auto&quot; style=&quot;box-sizing: border-box; margin-top: 0px; margin-bottom: 0px;&quot;&gt;&lt;font face=&quot;S3zxL0_sOqIlktY2SnAq&quot;&gt;SBI_PMU_HW_BRANCH_INSTRUCTIONS&lt;/font&gt;&lt;/p&gt;&lt;/td&gt;&lt;td style=&quot;box-sizing: border-box; padding: 6px 13px; border: 1px solid var(--borderColor-default, var(--color-border-default));&quot;&gt;&lt;p dir=&quot;auto&quot; style=&quot;box-sizing: border-box; margin-top: 0px; margin-bottom: 0px;&quot;&gt;&lt;font face=&quot;S3zxL0_sOqIlktY2SnAq&quot;&gt;5&lt;/font&gt;&lt;/p&gt;&lt;/td&gt;&lt;td style=&quot;box-sizing: border-box; padding: 6px 13px; border: 1px solid var(--borderColor-default, var(--color-border-default));&quot;&gt;&lt;p dir=&quot;auto&quot; style=&quot;box-sizing: border-box; margin-top: 0px; margin-bottom: 0px;&quot;&gt;&lt;font face=&quot;S3zxL0_sOqIlktY2SnAq&quot;&gt;Event for a branch instruction&lt;/font&gt;&lt;/p&gt;&lt;/td&gt;&lt;/tr&gt;&lt;tr style=&quot;box-sizing: border-box; background-color: var(--bgColor-default, var(--color-canvas-default)); border-top: 1px solid var(--borderColor-muted, var(--color-border-muted));&quot;&gt;&lt;td style=&quot;box-sizing: border-box; padding: 6px 13px; border: 1px solid var(--borderColor-default, var(--color-border-default));&quot;&gt;&lt;p dir=&quot;auto&quot; style=&quot;box-sizing: border-box; margin-top: 0px; margin-bottom: 0px;&quot;&gt;&lt;font face=&quot;S3zxL0_sOqIlktY2SnAq&quot;&gt;SBI_PMU_HW_BRANCH_MISSES&lt;/font&gt;&lt;/p&gt;&lt;/td&gt;&lt;td style=&quot;box-sizing: border-box; padding: 6px 13px; border: 1px solid var(--borderColor-default, var(--color-border-default));&quot;&gt;&lt;p dir=&quot;auto&quot; style=&quot;box-sizing: border-box; margin-top: 0px; margin-bottom: 0px;&quot;&gt;&lt;font face=&quot;S3zxL0_sOqIlktY2SnAq&quot;&gt;6&lt;/font&gt;&lt;/p&gt;&lt;/td&gt;&lt;td style=&quot;box-sizing: border-box; padding: 6px 13px; border: 1px solid var(--borderColor-default, var(--color-border-default));&quot;&gt;&lt;p dir=&quot;auto&quot; style=&quot;box-sizing: border-box; margin-top: 0px; margin-bottom: 0px;&quot;&gt;&lt;font face=&quot;S3zxL0_sOqIlktY2SnAq&quot;&gt;Event for a branch misprediction&lt;/font&gt;&lt;/p&gt;&lt;/td&gt;&lt;/tr&gt;&lt;tr style=&quot;box-sizing: border-box; background-color: var(--bgColor-muted, var(--color-canvas-subtle)); border-top: 1px solid var(--borderColor-muted, var(--color-border-muted));&quot;&gt;&lt;td style=&quot;box-sizing: border-box; padding: 6px 13px; border: 1px solid var(--borderColor-default, var(--color-border-default));&quot;&gt;&lt;p dir=&quot;auto&quot; style=&quot;box-sizing: border-box; margin-top: 0px; margin-bottom: 0px;&quot;&gt;&lt;font face=&quot;S3zxL0_sOqIlktY2SnAq&quot;&gt;SBI_PMU_HW_BUS_CYCLES&lt;/font&gt;&lt;/p&gt;&lt;/td&gt;&lt;td style=&quot;box-sizing: border-box; padding: 6px 13px; border: 1px solid var(--borderColor-default, var(--color-border-default));&quot;&gt;&lt;p dir=&quot;auto&quot; style=&quot;box-sizing: border-box; margin-top: 0px; margin-bottom: 0px;&quot;&gt;&lt;font face=&quot;S3zxL0_sOqIlktY2SnAq&quot;&gt;7&lt;/font&gt;&lt;/p&gt;&lt;/td&gt;&lt;td style=&quot;box-sizing: border-box; padding: 6px 13px; border: 1px solid var(--borderColor-default, var(--color-border-default));&quot;&gt;&lt;p dir=&quot;auto&quot; style=&quot;box-sizing: border-box; margin-top: 0px; margin-bottom: 0px;&quot;&gt;&lt;font face=&quot;S3zxL0_sOqIlktY2SnAq&quot;&gt;Event for each BUS cycle&lt;/font&gt;&lt;/p&gt;&lt;/td&gt;&lt;/tr&gt;&lt;tr style=&quot;box-sizing: border-box; background-color: var(--bgColor-default, var(--color-canvas-default)); border-top: 1px solid var(--borderColor-muted, var(--color-border-muted));&quot;&gt;&lt;td style=&quot;box-sizing: border-box; padding: 6px 13px; border: 1px solid var(--borderColor-default, var(--color-border-default));&quot;&gt;&lt;p dir=&quot;auto&quot; style=&quot;box-sizing: border-box; margin-top: 0px; margin-bottom: 0px;&quot;&gt;&lt;font face=&quot;S3zxL0_sOqIlktY2SnAq&quot;&gt;SBI_PMU_HW_STALLED_CYCLES_FRONTEND&lt;/font&gt;&lt;/p&gt;&lt;/td&gt;&lt;td style=&quot;box-sizing: border-box; padding: 6px 13px; border: 1px solid var(--borderColor-default, var(--color-border-default));&quot;&gt;&lt;p dir=&quot;auto&quot; style=&quot;box-sizing: border-box; margin-top: 0px; margin-bottom: 0px;&quot;&gt;&lt;font face=&quot;S3zxL0_sOqIlktY2SnAq&quot;&gt;8&lt;/font&gt;&lt;/p&gt;&lt;/td&gt;&lt;td style=&quot;box-sizing: border-box; padding: 6px 13px; border: 1px solid var(--borderColor-default, var(--color-border-default));&quot;&gt;&lt;p dir=&quot;auto&quot; style=&quot;box-sizing: border-box; margin-top: 0px; margin-bottom: 0px;&quot;&gt;&lt;font face=&quot;S3zxL0_sOqIlktY2SnAq&quot;&gt;Event for a stalled cycle in microarchitecture frontend&lt;/font&gt;&lt;/p&gt;&lt;/td&gt;&lt;/tr&gt;&lt;tr style=&quot;box-sizing: border-box; background-color: var(--bgColor-muted, var(--color-canvas-subtle)); border-top: 1px solid var(--borderColor-muted, var(--color-border-muted));&quot;&gt;&lt;td style=&quot;box-sizing: border-box; padding: 6px 13px; border: 1px solid var(--borderColor-default, var(--color-border-default));&quot;&gt;&lt;p dir=&quot;auto&quot; style=&quot;box-sizing: border-box; margin-top: 0px; margin-bottom: 0px;&quot;&gt;&lt;font face=&quot;S3zxL0_sOqIlktY2SnAq&quot;&gt;SBI_PMU_HW_STALLED_CYCLES_BACKEND&lt;/font&gt;&lt;/p&gt;&lt;/td&gt;&lt;td style=&quot;box-sizing: border-box; padding: 6px 13px; border: 1px solid var(--borderColor-default, var(--color-border-default));&quot;&gt;&lt;p dir=&quot;auto&quot; style=&quot;box-sizing: border-box; margin-top: 0px; margin-bottom: 0px;&quot;&gt;&lt;font face=&quot;S3zxL0_sOqIlktY2SnAq&quot;&gt;9&lt;/font&gt;&lt;/p&gt;&lt;/td&gt;&lt;td style=&quot;box-sizing: border-box; padding: 6px 13px; border: 1px solid var(--borderColor-default, var(--color-border-default));&quot;&gt;&lt;p dir=&quot;auto&quot; style=&quot;box-sizing: border-box; margin-top: 0px; margin-bottom: 0px;&quot;&gt;&lt;font face=&quot;S3zxL0_sOqIlktY2SnAq&quot;&gt;Event for a stalled cycle in microarchitecture backend&lt;/font&gt;&lt;/p&gt;&lt;/td&gt;&lt;/tr&gt;&lt;tr style=&quot;box-sizing: border-box; background-color: var(--bgColor-default, var(--color-canvas-default)); border-top: 1px solid var(--borderColor-muted, var(--color-border-muted));&quot;&gt;&lt;td style=&quot;box-sizing: border-box; padding: 6px 13px; border: 1px solid var(--borderColor-default, var(--color-border-default));&quot;&gt;&lt;p dir=&quot;auto&quot; style=&quot;box-sizing: border-box; margin-top: 0px; margin-bottom: 0px;&quot;&gt;&lt;font face=&quot;S3zxL0_sOqIlktY2SnAq&quot;&gt;SBI_PMU_HW_REF_CPU_CYCLES&lt;/font&gt;&lt;/p&gt;&lt;/td&gt;&lt;td style=&quot;box-sizing: border-box; padding: 6px 13px; border: 1px solid var(--borderColor-default, var(--color-border-default));&quot;&gt;&lt;p dir=&quot;auto&quot; style=&quot;box-sizing: border-box; margin-top: 0px; margin-bottom: 0px;&quot;&gt;&lt;font face=&quot;S3zxL0_sOqIlktY2SnAq&quot;&gt;10&lt;/font&gt;&lt;/p&gt;&lt;/td&gt;&lt;td style=&quot;box-sizing: border-box; padding: 6px 13px; border: 1px solid var(--borderColor-default, var(--color-border-default));&quot;&gt;&lt;p dir=&quot;auto&quot; style=&quot;box-sizing: border-box; margin-top: 0px; margin-bottom: 0px;&quot;&gt;&lt;font face=&quot;S3zxL0_sOqIlktY2SnAq&quot;&gt;Event for each reference CPU cycle&lt;/font&gt;&lt;/p&gt;&lt;/td&gt;&lt;/tr&gt;&lt;/tbody&gt;&lt;/table&gt;" style="text;whiteSpace=wrap;html=1;" parent="1" vertex="1">
          <mxGeometry x="-4010" y="2710" width="880" height="440" as="geometry" />
        </mxCell>
        <UserObject label="&lt;div class=&quot;markdown-heading&quot; dir=&quot;auto&quot; style=&quot;box-sizing: border-box; position: relative; color: rgb(31, 35, 40); font-size: 16px; font-style: normal; font-variant-ligatures: normal; font-variant-caps: normal; font-weight: 400; letter-spacing: normal; orphans: 2; text-align: start; text-indent: 0px; text-transform: none; widows: 2; word-spacing: 0px; -webkit-text-stroke-width: 0px; white-space: normal; background-color: rgb(255, 255, 255); text-decoration-thickness: initial; text-decoration-style: initial; text-decoration-color: initial;&quot;&gt;&lt;h3 id=&quot;user-content-event-hardware-raw-events-type-2&quot; tabindex=&quot;-1&quot; class=&quot;heading-element&quot; dir=&quot;auto&quot; style=&quot;box-sizing: border-box; margin-top: 24px; margin-bottom: 16px; font-size: 1.25em; font-weight: var(--base-text-weight-semibold, 600); line-height: 1.25;&quot;&gt;&lt;font face=&quot;Comic Sans MS&quot;&gt;&lt;br&gt;&lt;br&gt;&lt;/font&gt;&lt;/h3&gt;&lt;h3 id=&quot;user-content-event-hardware-raw-events-type-2&quot; tabindex=&quot;-1&quot; class=&quot;heading-element&quot; dir=&quot;auto&quot; style=&quot;box-sizing: border-box; margin-top: 24px; margin-bottom: 16px; font-size: 1.25em; font-weight: var(--base-text-weight-semibold, 600); line-height: 1.25;&quot;&gt;&lt;font face=&quot;Comic Sans MS&quot;&gt;PMU: Hardware raw events (Type #2)&lt;/font&gt;&lt;/h3&gt;&lt;h3 tabindex=&quot;-1&quot; class=&quot;heading-element&quot; dir=&quot;auto&quot; style=&quot;box-sizing: border-box; margin-top: 24px; margin-bottom: 16px; font-size: 1.25em; font-weight: var(--base-text-weight-semibold, 600); line-height: 1.25;&quot;&gt;&lt;div class=&quot;markdown-heading&quot; dir=&quot;auto&quot; style=&quot;box-sizing: border-box; position: relative; font-size: 16px; font-weight: 400;&quot;&gt;&lt;a id=&quot;user-content-event-hardware-raw-events-type-2&quot; class=&quot;anchor&quot; aria-label=&quot;Permalink: Event: Hardware raw events (Type #2)&quot; href=&quot;https://github.com/riscv-non-isa/riscv-sbi-doc/blob/master/src/ext-pmu.adoc#event-hardware-raw-events-type-2&quot; style=&quot;box-sizing: border-box; background-color: transparent; float: left; padding-right: 4px; margin: auto; line-height: 1; position: absolute; top: 12.5px; left: -28px; display: flex; width: 28px; height: 28px; border-radius: 6px; opacity: 0; justify-content: center; align-items: center; transform: translateY(-50%); text-underline-offset: 0.2rem;&quot;&gt;&lt;svg class=&quot;octicon octicon-link&quot; viewBox=&quot;0 0 16 16&quot; version=&quot;1.1&quot; width=&quot;16&quot; height=&quot;16&quot; aria-hidden=&quot;true&quot;&gt;&lt;/svg&gt;&lt;font face=&quot;Comic Sans MS&quot;&gt;&lt;/font&gt;&lt;/a&gt;&lt;/div&gt;&lt;div dir=&quot;auto&quot; style=&quot;box-sizing: border-box; font-size: 16px; font-weight: 400;&quot;&gt;&lt;p dir=&quot;auto&quot; style=&quot;box-sizing: border-box; margin-top: 0px; margin-bottom: 16px;&quot;&gt;&lt;font face=&quot;Comic Sans MS&quot;&gt;The&amp;nbsp;&lt;code style=&quot;box-sizing: border-box; font-size: 13.6px; padding: 0.2em 0.4em; margin: 0px; white-space-collapse: break-spaces; background-color: var(--bgColor-neutral-muted, var(--color-neutral-muted)); border-radius: 6px;&quot;&gt;event_idx.type&lt;/code&gt;&amp;nbsp;(i.e.&amp;nbsp;&lt;span style=&quot;box-sizing: border-box; font-weight: var(--base-text-weight-semibold, 600);&quot;&gt;event type&lt;/span&gt;) should be&amp;nbsp;&lt;code style=&quot;box-sizing: border-box; font-size: 13.6px; padding: 0.2em 0.4em; margin: 0px; white-space-collapse: break-spaces; background-color: var(--bgColor-neutral-muted, var(--color-neutral-muted)); border-radius: 6px;&quot;&gt;0x2&lt;/code&gt;&amp;nbsp;for all hardware raw events and&amp;nbsp;&lt;code style=&quot;box-sizing: border-box; font-size: 13.6px; padding: 0.2em 0.4em; margin: 0px; white-space-collapse: break-spaces; background-color: var(--bgColor-neutral-muted, var(--color-neutral-muted)); border-radius: 6px;&quot;&gt;event_idx.code&lt;/code&gt;&amp;nbsp;(i.e.&amp;nbsp;&lt;span style=&quot;box-sizing: border-box; font-weight: var(--base-text-weight-semibold, 600);&quot;&gt;event code&lt;/span&gt;) should be zero.&lt;/font&gt;&lt;/p&gt;&lt;/div&gt;&lt;div dir=&quot;auto&quot; style=&quot;box-sizing: border-box; font-size: 16px; font-weight: 400;&quot;&gt;&lt;p dir=&quot;auto&quot; style=&quot;box-sizing: border-box; margin-top: 0px; margin-bottom: 16px;&quot;&gt;&lt;font face=&quot;Comic Sans MS&quot;&gt;On RISC-V platform with 32 bits wide&amp;nbsp;&lt;code style=&quot;box-sizing: border-box; font-size: 13.6px; padding: 0.2em 0.4em; margin: 0px; white-space-collapse: break-spaces; background-color: var(--bgColor-neutral-muted, var(--color-neutral-muted)); border-radius: 6px;&quot;&gt;mhpmeventX&lt;/code&gt;&amp;nbsp;CSRs, the&amp;nbsp;&lt;code style=&quot;box-sizing: border-box; font-size: 13.6px; padding: 0.2em 0.4em; margin: 0px; white-space-collapse: break-spaces; background-color: var(--bgColor-neutral-muted, var(--color-neutral-muted)); border-radius: 6px;&quot;&gt;event_data&lt;/code&gt;&amp;nbsp;configuration (or parameter) should have the 32-bit value to to be programmed in the&amp;nbsp;&lt;code style=&quot;box-sizing: border-box; font-size: 13.6px; padding: 0.2em 0.4em; margin: 0px; white-space-collapse: break-spaces; background-color: var(--bgColor-neutral-muted, var(--color-neutral-muted)); border-radius: 6px;&quot;&gt;mhpmeventX&lt;/code&gt;&amp;nbsp;CSR.&lt;/font&gt;&lt;/p&gt;&lt;/div&gt;&lt;div dir=&quot;auto&quot; style=&quot;box-sizing: border-box; font-size: 16px; font-weight: 400;&quot;&gt;&lt;p dir=&quot;auto&quot; style=&quot;box-sizing: border-box; margin-top: 0px; margin-bottom: 16px;&quot;&gt;&lt;font face=&quot;Comic Sans MS&quot;&gt;On RISC-V platform with 64 bits wide&amp;nbsp;&lt;code style=&quot;box-sizing: border-box; font-size: 13.6px; padding: 0.2em 0.4em; margin: 0px; white-space-collapse: break-spaces; background-color: var(--bgColor-neutral-muted, var(--color-neutral-muted)); border-radius: 6px;&quot;&gt;mhpmeventX&lt;/code&gt;&amp;nbsp;CSRs, the&amp;nbsp;&lt;code style=&quot;box-sizing: border-box; font-size: 13.6px; padding: 0.2em 0.4em; margin: 0px; white-space-collapse: break-spaces; background-color: var(--bgColor-neutral-muted, var(--color-neutral-muted)); border-radius: 6px;&quot;&gt;event_data&lt;/code&gt;&amp;nbsp;configuration (or parameter) should have the 48-bit value to to be programmed in the lower 48-bits of&amp;nbsp;&lt;code style=&quot;box-sizing: border-box; font-size: 13.6px; padding: 0.2em 0.4em; margin: 0px; white-space-collapse: break-spaces; background-color: var(--bgColor-neutral-muted, var(--color-neutral-muted)); border-radius: 6px;&quot;&gt;mhpmeventX&lt;/code&gt;&amp;nbsp;CSR and the SBI implementation shall determine the value to be programmed in the upper 16 bits of&amp;nbsp;&lt;code style=&quot;box-sizing: border-box; font-size: 13.6px; padding: 0.2em 0.4em; margin: 0px; white-space-collapse: break-spaces; background-color: var(--bgColor-neutral-muted, var(--color-neutral-muted)); border-radius: 6px;&quot;&gt;mhpmeventX&lt;/code&gt;&amp;nbsp;CSR.&lt;/font&gt;&lt;/p&gt;&lt;/div&gt;&lt;/h3&gt;&lt;/div&gt;" link="&lt;meta charset=&quot;utf-8&quot;&gt;&lt;div style=&quot;box-sizing: border-box; position: relative; color: rgb(31, 35, 40); font-family: -apple-system, &amp;quot;system-ui&amp;quot;, &amp;quot;Segoe UI&amp;quot;, &amp;quot;Noto Sans&amp;quot;, Helvetica, Arial, sans-serif, &amp;quot;Apple Color Emoji&amp;quot;, &amp;quot;Segoe UI Emoji&amp;quot;; font-size: 16px; font-style: normal; font-variant-ligatures: normal; font-variant-caps: normal; font-weight: 400; letter-spacing: normal; orphans: 2; text-align: start; text-indent: 0px; text-transform: none; widows: 2; word-spacing: 0px; -webkit-text-stroke-width: 0px; white-space: normal; background-color: rgb(255, 255, 255); text-decoration-thickness: initial; text-decoration-style: initial; text-decoration-color: initial;&quot; dir=&quot;auto&quot; class=&quot;markdown-heading&quot;&gt;&lt;h3 style=&quot;box-sizing: border-box; margin-top: 24px; margin-bottom: 16px; font-size: 1.25em; font-weight: var(--base-text-weight-semibold, 600); line-height: 1.25;&quot; dir=&quot;auto&quot; class=&quot;heading-element&quot; tabindex=&quot;-1&quot; id=&quot;user-content-event-hardware-raw-events-type-2&quot;&gt;Event: Hardware raw events (Type #2)&lt;/h3&gt;&lt;a style=&quot;box-sizing: border-box; background-color: transparent; color: var(--fgColor-accent, var(--color-accent-fg)); text-decoration: underline; float: left; padding-right: 4px; margin: auto; line-height: 1; position: absolute; top: 12.5px; left: -28px; display: flex; width: 28px; height: 28px; border-radius: 6px; opacity: 0; justify-content: center; align-items: center; transform: translateY(-50%); text-underline-offset: 0.2rem;&quot; href=&quot;https://github.com/riscv-non-isa/riscv-sbi-doc/blob/master/src/ext-pmu.adoc#event-hardware-raw-events-type-2&quot; aria-label=&quot;Permalink: Event: Hardware raw events (Type #2)&quot; class=&quot;anchor&quot; id=&quot;user-content-event-hardware-raw-events-type-2&quot;&gt;&lt;svg aria-hidden=&quot;true&quot; height=&quot;16&quot; width=&quot;16&quot; version=&quot;1.1&quot; viewBox=&quot;0 0 16 16&quot; class=&quot;octicon octicon-link&quot;&gt;&lt;path d=&quot;m7.775 3.275 1.25-1.25a3.5 3.5 0 1 1 4.95 4.95l-2.5 2.5a3.5 3.5 0 0 1-4.95 0 .751.751 0 0 1 .018-1.042.751.751 0 0 1 1.042-.018 1.998 1.998 0 0 0 2.83 0l2.5-2.5a2.002 2.002 0 0 0-2.83-2.83l-1.25 1.25a.751.751 0 0 1-1.042-.018.751.751 0 0 1-.018-1.042Zm-4.69 9.64a1.998 1.998 0 0 0 2.83 0l1.25-1.25a.751.751 0 0 1 1.042.018.751.751 0 0 1 .018 1.042l-1.25 1.25a3.5 3.5 0 1 1-4.95-4.95l2.5-2.5a3.5 3.5 0 0 1 4.95 0 .751.751 0 0 1-.018 1.042.751.751 0 0 1-1.042.018 1.998 1.998 0 0 0-2.83 0l-2.5 2.5a1.998 1.998 0 0 0 0 2.83Z&quot;&gt;&lt;/path&gt;&lt;/svg&gt;&lt;/a&gt;&lt;/div&gt;&lt;div style=&quot;box-sizing: border-box; color: rgb(31, 35, 40); font-family: -apple-system, &amp;quot;system-ui&amp;quot;, &amp;quot;Segoe UI&amp;quot;, &amp;quot;Noto Sans&amp;quot;, Helvetica, Arial, sans-serif, &amp;quot;Apple Color Emoji&amp;quot;, &amp;quot;Segoe UI Emoji&amp;quot;; font-size: 16px; font-style: normal; font-variant-ligatures: normal; font-variant-caps: normal; font-weight: 400; letter-spacing: normal; orphans: 2; text-align: start; text-indent: 0px; text-transform: none; widows: 2; word-spacing: 0px; -webkit-text-stroke-width: 0px; white-space: normal; background-color: rgb(255, 255, 255); text-decoration-thickness: initial; text-decoration-style: initial; text-decoration-color: initial;&quot; dir=&quot;auto&quot;&gt;&lt;p style=&quot;box-sizing: border-box; margin-top: 0px; margin-bottom: 16px;&quot; dir=&quot;auto&quot;&gt;The&lt;span&gt;&amp;nbsp;&lt;/span&gt;&lt;code style=&quot;box-sizing: border-box; font-family: var(--fontStack-monospace, ui-monospace, SFMono-Regular, SF Mono, Menlo, Consolas, Liberation Mono, monospace); font-size: 13.6px; padding: 0.2em 0.4em; margin: 0px; white-space: break-spaces; background-color: var(--bgColor-neutral-muted, var(--color-neutral-muted)); border-radius: 6px;&quot;&gt;event_idx.type&lt;/code&gt;&lt;span&gt;&amp;nbsp;&lt;/span&gt;(i.e.&lt;span&gt;&amp;nbsp;&lt;/span&gt;&lt;strong style=&quot;box-sizing: border-box; font-weight: var(--base-text-weight-semibold, 600);&quot;&gt;event type&lt;/strong&gt;) should be&lt;span&gt;&amp;nbsp;&lt;/span&gt;&lt;code style=&quot;box-sizing: border-box; font-family: var(--fontStack-monospace, ui-monospace, SFMono-Regular, SF Mono, Menlo, Consolas, Liberation Mono, monospace); font-size: 13.6px; padding: 0.2em 0.4em; margin: 0px; white-space: break-spaces; background-color: var(--bgColor-neutral-muted, var(--color-neutral-muted)); border-radius: 6px;&quot;&gt;0x2&lt;/code&gt;&lt;span&gt;&amp;nbsp;&lt;/span&gt;for all hardware raw events and&lt;span&gt;&amp;nbsp;&lt;/span&gt;&lt;code style=&quot;box-sizing: border-box; font-family: var(--fontStack-monospace, ui-monospace, SFMono-Regular, SF Mono, Menlo, Consolas, Liberation Mono, monospace); font-size: 13.6px; padding: 0.2em 0.4em; margin: 0px; white-space: break-spaces; background-color: var(--bgColor-neutral-muted, var(--color-neutral-muted)); border-radius: 6px;&quot;&gt;event_idx.code&lt;/code&gt;&lt;span&gt;&amp;nbsp;&lt;/span&gt;(i.e.&lt;span&gt;&amp;nbsp;&lt;/span&gt;&lt;strong style=&quot;box-sizing: border-box; font-weight: var(--base-text-weight-semibold, 600);&quot;&gt;event code&lt;/strong&gt;) should be zero.&lt;/p&gt;&lt;/div&gt;&lt;div style=&quot;box-sizing: border-box; color: rgb(31, 35, 40); font-family: -apple-system, &amp;quot;system-ui&amp;quot;, &amp;quot;Segoe UI&amp;quot;, &amp;quot;Noto Sans&amp;quot;, Helvetica, Arial, sans-serif, &amp;quot;Apple Color Emoji&amp;quot;, &amp;quot;Segoe UI Emoji&amp;quot;; font-size: 16px; font-style: normal; font-variant-ligatures: normal; font-variant-caps: normal; font-weight: 400; letter-spacing: normal; orphans: 2; text-align: start; text-indent: 0px; text-transform: none; widows: 2; word-spacing: 0px; -webkit-text-stroke-width: 0px; white-space: normal; background-color: rgb(255, 255, 255); text-decoration-thickness: initial; text-decoration-style: initial; text-decoration-color: initial;&quot; dir=&quot;auto&quot;&gt;&lt;p style=&quot;box-sizing: border-box; margin-top: 0px; margin-bottom: 16px;&quot; dir=&quot;auto&quot;&gt;On RISC-V platform with 32 bits wide&lt;span&gt;&amp;nbsp;&lt;/span&gt;&lt;code style=&quot;box-sizing: border-box; font-family: var(--fontStack-monospace, ui-monospace, SFMono-Regular, SF Mono, Menlo, Consolas, Liberation Mono, monospace); font-size: 13.6px; padding: 0.2em 0.4em; margin: 0px; white-space: break-spaces; background-color: var(--bgColor-neutral-muted, var(--color-neutral-muted)); border-radius: 6px;&quot;&gt;mhpmeventX&lt;/code&gt;&lt;span&gt;&amp;nbsp;&lt;/span&gt;CSRs, the&lt;span&gt;&amp;nbsp;&lt;/span&gt;&lt;code style=&quot;box-sizing: border-box; font-family: var(--fontStack-monospace, ui-monospace, SFMono-Regular, SF Mono, Menlo, Consolas, Liberation Mono, monospace); font-size: 13.6px; padding: 0.2em 0.4em; margin: 0px; white-space: break-spaces; background-color: var(--bgColor-neutral-muted, var(--color-neutral-muted)); border-radius: 6px;&quot;&gt;event_data&lt;/code&gt;&lt;span&gt;&amp;nbsp;&lt;/span&gt;configuration (or parameter) should have the 32-bit value to to be programmed in the&lt;span&gt;&amp;nbsp;&lt;/span&gt;&lt;code style=&quot;box-sizing: border-box; font-family: var(--fontStack-monospace, ui-monospace, SFMono-Regular, SF Mono, Menlo, Consolas, Liberation Mono, monospace); font-size: 13.6px; padding: 0.2em 0.4em; margin: 0px; white-space: break-spaces; background-color: var(--bgColor-neutral-muted, var(--color-neutral-muted)); border-radius: 6px;&quot;&gt;mhpmeventX&lt;/code&gt;&lt;span&gt;&amp;nbsp;&lt;/span&gt;CSR.&lt;/p&gt;&lt;/div&gt;&lt;div style=&quot;box-sizing: border-box; color: rgb(31, 35, 40); font-family: -apple-system, &amp;quot;system-ui&amp;quot;, &amp;quot;Segoe UI&amp;quot;, &amp;quot;Noto Sans&amp;quot;, Helvetica, Arial, sans-serif, &amp;quot;Apple Color Emoji&amp;quot;, &amp;quot;Segoe UI Emoji&amp;quot;; font-size: 16px; font-style: normal; font-variant-ligatures: normal; font-variant-caps: normal; font-weight: 400; letter-spacing: normal; orphans: 2; text-align: start; text-indent: 0px; text-transform: none; widows: 2; word-spacing: 0px; -webkit-text-stroke-width: 0px; white-space: normal; background-color: rgb(255, 255, 255); text-decoration-thickness: initial; text-decoration-style: initial; text-decoration-color: initial;&quot; dir=&quot;auto&quot;&gt;&lt;p style=&quot;box-sizing: border-box; margin-top: 0px; margin-bottom: 16px;&quot; dir=&quot;auto&quot;&gt;On RISC-V platform with 64 bits wide&lt;span&gt;&amp;nbsp;&lt;/span&gt;&lt;code style=&quot;box-sizing: border-box; font-family: var(--fontStack-monospace, ui-monospace, SFMono-Regular, SF Mono, Menlo, Consolas, Liberation Mono, monospace); font-size: 13.6px; padding: 0.2em 0.4em; margin: 0px; white-space: break-spaces; background-color: var(--bgColor-neutral-muted, var(--color-neutral-muted)); border-radius: 6px;&quot;&gt;mhpmeventX&lt;/code&gt;&lt;span&gt;&amp;nbsp;&lt;/span&gt;CSRs, the&lt;span&gt;&amp;nbsp;&lt;/span&gt;&lt;code style=&quot;box-sizing: border-box; font-family: var(--fontStack-monospace, ui-monospace, SFMono-Regular, SF Mono, Menlo, Consolas, Liberation Mono, monospace); font-size: 13.6px; padding: 0.2em 0.4em; margin: 0px; white-space: break-spaces; background-color: var(--bgColor-neutral-muted, var(--color-neutral-muted)); border-radius: 6px;&quot;&gt;event_data&lt;/code&gt;&lt;span&gt;&amp;nbsp;&lt;/span&gt;configuration (or parameter) should have the 48-bit value to to be programmed in the lower 48-bits of&lt;span&gt;&amp;nbsp;&lt;/span&gt;&lt;code style=&quot;box-sizing: border-box; font-family: var(--fontStack-monospace, ui-monospace, SFMono-Regular, SF Mono, Menlo, Consolas, Liberation Mono, monospace); font-size: 13.6px; padding: 0.2em 0.4em; margin: 0px; white-space: break-spaces; background-color: var(--bgColor-neutral-muted, var(--color-neutral-muted)); border-radius: 6px;&quot;&gt;mhpmeventX&lt;/code&gt;&lt;span&gt;&amp;nbsp;&lt;/span&gt;CSR and the SBI implementation shall determine the value to be programmed in the upper 16 bits of&lt;span&gt;&amp;nbsp;&lt;/span&gt;&lt;code style=&quot;box-sizing: border-box; font-family: var(--fontStack-monospace, ui-monospace, SFMono-Regular, SF Mono, Menlo, Consolas, Liberation Mono, monospace); font-size: 13.6px; padding: 0.2em 0.4em; margin: 0px; white-space: break-spaces; background-color: var(--bgColor-neutral-muted, var(--color-neutral-muted)); border-radius: 6px;&quot;&gt;mhpmeventX&lt;/code&gt;&lt;span&gt;&amp;nbsp;&lt;/span&gt;CSR.&lt;/p&gt;&lt;/div&gt;&lt;div style=&quot;box-sizing: border-box; color: rgb(31, 35, 40); font-family: -apple-system, &amp;quot;system-ui&amp;quot;, &amp;quot;Segoe UI&amp;quot;, &amp;quot;Noto Sans&amp;quot;, Helvetica, Arial, sans-serif, &amp;quot;Apple Color Emoji&amp;quot;, &amp;quot;Segoe UI Emoji&amp;quot;; font-size: 16px; font-style: normal; font-variant-ligatures: normal; font-variant-caps: normal; font-weight: 400; letter-spacing: normal; orphans: 2; text-align: start; text-indent: 0px; text-transform: none; widows: 2; word-spacing: 0px; -webkit-text-stroke-width: 0px; white-space: normal; background-color: rgb(255, 255, 255); text-decoration-thickness: initial; text-decoration-style: initial; text-decoration-color: initial;&quot; dir=&quot;auto&quot;&gt;&lt;table style=&quot;box-sizing: border-box; border-spacing: 0px; border-collapse: collapse; margin-top: 0px; margin-bottom: 16px; display: block; width: max-content; max-width: 100%; overflow: auto;&quot;&gt;&lt;tbody style=&quot;box-sizing: border-box;&quot;&gt;&lt;tr style=&quot;box-sizing: border-box; background-color: var(--bgColor-default, var(--color-canvas-default)); border-top: 1px solid var(--borderColor-muted, var(--color-border-muted));&quot;&gt;&lt;td style=&quot;box-sizing: border-box; padding: 6px 13px; border: 1px solid var(--borderColor-default, var(--color-border-default));&quot;&gt;&lt;div style=&quot;box-sizing: border-box; margin-bottom: 0px;&quot; dir=&quot;auto&quot;&gt;Note&lt;/div&gt;&lt;/td&gt;&lt;td style=&quot;box-sizing: border-box; padding: 6px 13px; border: 1px solid var(--borderColor-default, var(--color-border-default));&quot;&gt;The RISC-V platform hardware implementation may choose to define the expected value to be written to&lt;span&gt;&amp;nbsp;&lt;/span&gt;&lt;code style=&quot;box-sizing: border-box; font-family: var(--fontStack-monospace, ui-monospace, SFMono-Regular, SF Mono, Menlo, Consolas, Liberation Mono, monospace); font-size: 13.6px; padding: 0.2em 0.4em; margin: 0px; white-space: break-spaces; background-color: var(--bgColor-neutral-muted, var(--color-neutral-muted)); border-radius: 6px;&quot;&gt;mhpmeventX&lt;/code&gt;&lt;span&gt;&amp;nbsp;&lt;/span&gt;CSR for a hardware event. In case of hardware general/cache events, the RISC-V platform hardware implementation may use the zero-extended&lt;span&gt;&amp;nbsp;&lt;/span&gt;&lt;code style=&quot;box-sizing: border-box; font-family: var(--fontStack-monospace, ui-monospace, SFMono-Regular, SF Mono, Menlo, Consolas, Liberation Mono, monospace); font-size: 13.6px; padding: 0.2em 0.4em; margin: 0px; white-space: break-spaces; background-color: var(--bgColor-neutral-muted, var(--color-neutral-muted)); border-radius: 6px;&quot;&gt;event_idx&lt;/code&gt;&lt;span&gt;&amp;nbsp;&lt;/span&gt;as the expected value for simplicity.&lt;/td&gt;&lt;/tr&gt;&lt;/tbody&gt;&lt;/table&gt;&lt;/div&gt;" id="f0wCPN4-28QZL9eDYPKT-30">
          <mxCell style="text;whiteSpace=wrap;html=1;" parent="1" vertex="1">
            <mxGeometry x="-4010" y="3150" width="760" height="400" as="geometry" />
          </mxCell>
        </UserObject>
        <mxCell id="f0wCPN4-28QZL9eDYPKT-31" value="perf stat" style="rounded=0;whiteSpace=wrap;html=1;sketch=1;curveFitting=1;jiggle=2;fontFamily=Comic Sans MS;fillColor=#fad7ac;strokeColor=#b46504;fontSize=20;fontStyle=0" parent="1" vertex="1">
          <mxGeometry x="2550" y="890" width="120" height="60" as="geometry" />
        </mxCell>
        <mxCell id="f0wCPN4-28QZL9eDYPKT-32" value="" style="endArrow=none;dashed=1;html=1;strokeWidth=2;rounded=0;sketch=1;curveFitting=1;jiggle=2;" parent="1" edge="1">
          <mxGeometry width="50" height="50" relative="1" as="geometry">
            <mxPoint x="2360" y="980" as="sourcePoint" />
            <mxPoint x="3761.0526315789475" y="980" as="targetPoint" />
          </mxGeometry>
        </mxCell>
        <mxCell id="f0wCPN4-28QZL9eDYPKT-33" value="User" style="text;html=1;align=center;verticalAlign=middle;whiteSpace=wrap;rounded=0;fontFamily=Comic Sans MS;sketch=1;curveFitting=1;jiggle=2;fontSize=20;" parent="1" vertex="1">
          <mxGeometry x="2360" y="921" width="60" height="30" as="geometry" />
        </mxCell>
        <mxCell id="f0wCPN4-28QZL9eDYPKT-34" value="Kernel" style="text;html=1;align=center;verticalAlign=middle;whiteSpace=wrap;rounded=0;fontFamily=Comic Sans MS;sketch=1;curveFitting=1;jiggle=2;fontSize=20;" parent="1" vertex="1">
          <mxGeometry x="2360" y="1000" width="60" height="30" as="geometry" />
        </mxCell>
        <mxCell id="f0wCPN4-28QZL9eDYPKT-35" style="edgeStyle=orthogonalEdgeStyle;rounded=0;orthogonalLoop=1;jettySize=auto;html=1;sketch=1;curveFitting=1;jiggle=2;fontStyle=0" parent="1" source="f0wCPN4-28QZL9eDYPKT-36" target="f0wCPN4-28QZL9eDYPKT-31" edge="1">
          <mxGeometry relative="1" as="geometry" />
        </mxCell>
        <mxCell id="f0wCPN4-28QZL9eDYPKT-36" value="Counters" style="rounded=0;whiteSpace=wrap;html=1;sketch=1;curveFitting=1;jiggle=2;fontFamily=Comic Sans MS;fillColor=#dae8fc;strokeColor=#6c8ebf;fontSize=16;fontStyle=0" parent="1" vertex="1">
          <mxGeometry x="2550" y="1020" width="120" height="60" as="geometry" />
        </mxCell>
        <mxCell id="f0wCPN4-28QZL9eDYPKT-37" value="Software" style="rounded=0;whiteSpace=wrap;html=1;sketch=1;curveFitting=1;jiggle=2;fontFamily=Comic Sans MS;fillColor=#fff2cc;strokeColor=#d6b656;fontSize=20;fontStyle=0" parent="1" vertex="1">
          <mxGeometry x="2700" y="1200" width="120" height="60" as="geometry" />
        </mxCell>
        <mxCell id="f0wCPN4-28QZL9eDYPKT-38" style="edgeStyle=orthogonalEdgeStyle;rounded=0;orthogonalLoop=1;jettySize=auto;html=1;sketch=1;curveFitting=1;jiggle=2;fillColor=#f8cecc;strokeColor=#b85450;" parent="1" source="f0wCPN4-28QZL9eDYPKT-39" target="f0wCPN4-28QZL9eDYPKT-40" edge="1">
          <mxGeometry relative="1" as="geometry" />
        </mxCell>
        <mxCell id="f0wCPN4-28QZL9eDYPKT-39" value="Hardware" style="rounded=0;whiteSpace=wrap;html=1;sketch=1;curveFitting=1;jiggle=2;fontFamily=Comic Sans MS;fillColor=#f8cecc;strokeColor=#b85450;fontSize=20;fontStyle=0" parent="1" vertex="1">
          <mxGeometry x="2520" y="1200" width="120" height="60" as="geometry" />
        </mxCell>
        <mxCell id="f0wCPN4-28QZL9eDYPKT-40" value="PMU" style="rounded=0;whiteSpace=wrap;html=1;sketch=1;curveFitting=1;jiggle=2;fontFamily=Comic Sans MS;fillColor=#f8cecc;strokeColor=#b85450;fontSize=20;fontStyle=0" parent="1" vertex="1">
          <mxGeometry x="2520" y="1320" width="120" height="60" as="geometry" />
        </mxCell>
        <mxCell id="f0wCPN4-28QZL9eDYPKT-41" style="edgeStyle=orthogonalEdgeStyle;rounded=0;orthogonalLoop=1;jettySize=auto;html=1;sketch=1;curveFitting=1;jiggle=2;fontStyle=0" parent="1" source="f0wCPN4-28QZL9eDYPKT-47" target="f0wCPN4-28QZL9eDYPKT-48" edge="1">
          <mxGeometry relative="1" as="geometry" />
        </mxCell>
        <mxCell id="f0wCPN4-28QZL9eDYPKT-42" style="edgeStyle=orthogonalEdgeStyle;rounded=0;orthogonalLoop=1;jettySize=auto;html=1;entryX=1;entryY=0.5;entryDx=0;entryDy=0;sketch=1;curveFitting=1;jiggle=2;fontSize=16;fontStyle=0" parent="1" source="f0wCPN4-28QZL9eDYPKT-47" target="f0wCPN4-28QZL9eDYPKT-36" edge="1">
          <mxGeometry relative="1" as="geometry" />
        </mxCell>
        <mxCell id="f0wCPN4-28QZL9eDYPKT-43" style="edgeStyle=orthogonalEdgeStyle;rounded=0;orthogonalLoop=1;jettySize=auto;html=1;sketch=1;curveFitting=1;jiggle=2;fontSize=16;fontStyle=0" parent="1" source="f0wCPN4-28QZL9eDYPKT-47" target="f0wCPN4-28QZL9eDYPKT-57" edge="1">
          <mxGeometry relative="1" as="geometry" />
        </mxCell>
        <mxCell id="f0wCPN4-28QZL9eDYPKT-44" style="rounded=0;orthogonalLoop=1;jettySize=auto;html=1;sketch=1;curveFitting=1;jiggle=2;fontSize=16;fontStyle=0" parent="1" source="f0wCPN4-28QZL9eDYPKT-47" target="f0wCPN4-28QZL9eDYPKT-37" edge="1">
          <mxGeometry relative="1" as="geometry" />
        </mxCell>
        <mxCell id="f0wCPN4-28QZL9eDYPKT-45" style="rounded=0;orthogonalLoop=1;jettySize=auto;html=1;sketch=1;curveFitting=1;jiggle=2;fontSize=16;fontStyle=0" parent="1" source="f0wCPN4-28QZL9eDYPKT-47" target="f0wCPN4-28QZL9eDYPKT-39" edge="1">
          <mxGeometry relative="1" as="geometry" />
        </mxCell>
        <mxCell id="f0wCPN4-28QZL9eDYPKT-46" style="rounded=0;orthogonalLoop=1;jettySize=auto;html=1;sketch=1;curveFitting=1;jiggle=2;fontSize=16;fontStyle=0" parent="1" source="f0wCPN4-28QZL9eDYPKT-47" target="f0wCPN4-28QZL9eDYPKT-61" edge="1">
          <mxGeometry relative="1" as="geometry" />
        </mxCell>
        <mxCell id="f0wCPN4-28QZL9eDYPKT-47" value="perf_event" style="rounded=0;whiteSpace=wrap;html=1;sketch=1;curveFitting=1;jiggle=2;fontFamily=Comic Sans MS;fillColor=#e1d5e7;strokeColor=#9673a6;fontSize=16;fontStyle=0" parent="1" vertex="1">
          <mxGeometry x="2870" y="1020" width="120" height="60" as="geometry" />
        </mxCell>
        <mxCell id="f0wCPN4-28QZL9eDYPKT-48" value="perf list" style="rounded=0;whiteSpace=wrap;html=1;sketch=1;curveFitting=1;jiggle=2;fontFamily=Comic Sans MS;fillColor=#fad7ac;strokeColor=#b46504;fontSize=20;fontStyle=0" parent="1" vertex="1">
          <mxGeometry x="2870" y="880" width="120" height="60" as="geometry" />
        </mxCell>
        <mxCell id="f0wCPN4-28QZL9eDYPKT-49" value="perf trace" style="rounded=0;whiteSpace=wrap;html=1;sketch=1;curveFitting=1;jiggle=2;fontFamily=Comic Sans MS;fillColor=#fad7ac;strokeColor=#b46504;fontSize=20;fontStyle=0" parent="1" vertex="1">
          <mxGeometry x="3140" y="880" width="120" height="60" as="geometry" />
        </mxCell>
        <mxCell id="f0wCPN4-28QZL9eDYPKT-50" style="edgeStyle=orthogonalEdgeStyle;rounded=0;orthogonalLoop=1;jettySize=auto;html=1;sketch=1;curveFitting=1;jiggle=2;fontSize=20;fontStyle=0" parent="1" source="f0wCPN4-28QZL9eDYPKT-51" target="f0wCPN4-28QZL9eDYPKT-55" edge="1">
          <mxGeometry relative="1" as="geometry" />
        </mxCell>
        <mxCell id="f0wCPN4-28QZL9eDYPKT-51" value="perf record" style="rounded=0;whiteSpace=wrap;html=1;sketch=1;curveFitting=1;jiggle=2;fontFamily=Comic Sans MS;fillColor=#fad7ac;strokeColor=#b46504;fontSize=20;fontStyle=0" parent="1" vertex="1">
          <mxGeometry x="3330" y="880" width="120" height="60" as="geometry" />
        </mxCell>
        <mxCell id="f0wCPN4-28QZL9eDYPKT-52" value="perf report" style="rounded=0;whiteSpace=wrap;html=1;sketch=1;curveFitting=1;jiggle=2;fontFamily=Comic Sans MS;fillColor=#fad7ac;strokeColor=#b46504;fontSize=20;fontStyle=0" parent="1" vertex="1">
          <mxGeometry x="3140" y="740" width="120" height="60" as="geometry" />
        </mxCell>
        <mxCell id="f0wCPN4-28QZL9eDYPKT-53" style="edgeStyle=orthogonalEdgeStyle;rounded=0;orthogonalLoop=1;jettySize=auto;html=1;entryX=1;entryY=0.5;entryDx=0;entryDy=0;sketch=1;curveFitting=1;jiggle=2;fontSize=20;fontStyle=0" parent="1" source="f0wCPN4-28QZL9eDYPKT-55" target="f0wCPN4-28QZL9eDYPKT-52" edge="1">
          <mxGeometry relative="1" as="geometry" />
        </mxCell>
        <mxCell id="f0wCPN4-28QZL9eDYPKT-54" style="edgeStyle=orthogonalEdgeStyle;rounded=0;orthogonalLoop=1;jettySize=auto;html=1;sketch=1;curveFitting=1;jiggle=2;fontSize=20;fontStyle=0" parent="1" source="f0wCPN4-28QZL9eDYPKT-55" target="f0wCPN4-28QZL9eDYPKT-56" edge="1">
          <mxGeometry relative="1" as="geometry" />
        </mxCell>
        <mxCell id="f0wCPN4-28QZL9eDYPKT-55" value="perf.data" style="rounded=0;whiteSpace=wrap;html=1;sketch=1;curveFitting=1;jiggle=2;fontFamily=Comic Sans MS;fillColor=#d0cee2;strokeColor=#56517e;fontSize=20;fontStyle=0" parent="1" vertex="1">
          <mxGeometry x="3330" y="740" width="120" height="60" as="geometry" />
        </mxCell>
        <mxCell id="f0wCPN4-28QZL9eDYPKT-56" value="perf script" style="rounded=0;whiteSpace=wrap;html=1;sketch=1;curveFitting=1;jiggle=2;fontFamily=Comic Sans MS;fillColor=#fad7ac;strokeColor=#b46504;fontSize=20;fontStyle=0" parent="1" vertex="1">
          <mxGeometry x="3510" y="740" width="120" height="60" as="geometry" />
        </mxCell>
        <mxCell id="f0wCPN4-28QZL9eDYPKT-57" value="&lt;span style=&quot;background-color: initial; font-size: 20px;&quot;&gt;Breakpoint&lt;/span&gt;" style="rounded=0;whiteSpace=wrap;html=1;sketch=1;curveFitting=1;jiggle=2;fontFamily=Comic Sans MS;fillColor=#f8cecc;strokeColor=#b85450;fontSize=20;fontStyle=0" parent="1" vertex="1">
          <mxGeometry x="2870" y="1200" width="120" height="60" as="geometry" />
        </mxCell>
        <mxCell id="f0wCPN4-28QZL9eDYPKT-58" style="rounded=0;orthogonalLoop=1;jettySize=auto;html=1;sketch=1;curveFitting=1;jiggle=2;fillColor=#d5e8d4;strokeColor=#82b366;" parent="1" source="f0wCPN4-28QZL9eDYPKT-61" target="f0wCPN4-28QZL9eDYPKT-62" edge="1">
          <mxGeometry relative="1" as="geometry" />
        </mxCell>
        <mxCell id="f0wCPN4-28QZL9eDYPKT-59" style="rounded=0;orthogonalLoop=1;jettySize=auto;html=1;sketch=1;curveFitting=1;jiggle=2;fillColor=#d5e8d4;strokeColor=#82b366;" parent="1" source="f0wCPN4-28QZL9eDYPKT-61" target="f0wCPN4-28QZL9eDYPKT-63" edge="1">
          <mxGeometry relative="1" as="geometry" />
        </mxCell>
        <mxCell id="f0wCPN4-28QZL9eDYPKT-60" style="rounded=0;orthogonalLoop=1;jettySize=auto;html=1;sketch=1;curveFitting=1;jiggle=2;fillColor=#d5e8d4;strokeColor=#82b366;" parent="1" source="f0wCPN4-28QZL9eDYPKT-61" target="f0wCPN4-28QZL9eDYPKT-65" edge="1">
          <mxGeometry relative="1" as="geometry" />
        </mxCell>
        <mxCell id="f0wCPN4-28QZL9eDYPKT-61" value="Tracepoints" style="rounded=0;whiteSpace=wrap;html=1;sketch=1;curveFitting=1;jiggle=2;fontFamily=Comic Sans MS;fillColor=#d5e8d4;strokeColor=#82b366;fontSize=20;fontStyle=0" parent="1" vertex="1">
          <mxGeometry x="3200" y="1200" width="120" height="60" as="geometry" />
        </mxCell>
        <mxCell id="f0wCPN4-28QZL9eDYPKT-62" value="kernel&lt;div style=&quot;font-size: 20px;&quot;&gt;tracepoints&lt;/div&gt;" style="rounded=0;whiteSpace=wrap;html=1;sketch=1;curveFitting=1;jiggle=2;fontFamily=Comic Sans MS;fillColor=#d5e8d4;strokeColor=#82b366;fontSize=20;" parent="1" vertex="1">
          <mxGeometry x="2930" y="1320" width="120" height="60" as="geometry" />
        </mxCell>
        <mxCell id="f0wCPN4-28QZL9eDYPKT-63" value="kprobes" style="rounded=0;whiteSpace=wrap;html=1;sketch=1;curveFitting=1;jiggle=2;fontFamily=Comic Sans MS;fillColor=#d5e8d4;strokeColor=#82b366;fontSize=20;" parent="1" vertex="1">
          <mxGeometry x="3128" y="1320" width="120" height="60" as="geometry" />
        </mxCell>
        <mxCell id="f0wCPN4-28QZL9eDYPKT-64" value="uprobes" style="rounded=0;whiteSpace=wrap;html=1;sketch=1;curveFitting=1;jiggle=2;fontFamily=Comic Sans MS;fillColor=#d5e8d4;strokeColor=#82b366;fontSize=20;" parent="1" vertex="1">
          <mxGeometry x="3320" y="1320" width="120" height="60" as="geometry" />
        </mxCell>
        <mxCell id="f0wCPN4-28QZL9eDYPKT-65" value="USDT" style="rounded=0;whiteSpace=wrap;html=1;sketch=1;curveFitting=1;jiggle=2;fontFamily=Comic Sans MS;fillColor=#d5e8d4;strokeColor=#82b366;fontSize=20;" parent="1" vertex="1">
          <mxGeometry x="3500" y="1320" width="120" height="60" as="geometry" />
        </mxCell>
        <mxCell id="f0wCPN4-28QZL9eDYPKT-66" style="rounded=0;orthogonalLoop=1;jettySize=auto;html=1;entryX=0.5;entryY=1;entryDx=0;entryDy=0;sketch=1;curveFitting=1;jiggle=2;exitX=0.229;exitY=0.043;exitDx=0;exitDy=0;exitPerimeter=0;fontStyle=0" parent="1" source="f0wCPN4-28QZL9eDYPKT-68" target="f0wCPN4-28QZL9eDYPKT-49" edge="1">
          <mxGeometry relative="1" as="geometry">
            <mxPoint x="3266" y="1032" as="sourcePoint" />
          </mxGeometry>
        </mxCell>
        <mxCell id="f0wCPN4-28QZL9eDYPKT-67" style="rounded=0;orthogonalLoop=1;jettySize=auto;html=1;sketch=1;curveFitting=1;jiggle=2;exitX=0.729;exitY=0.057;exitDx=0;exitDy=0;exitPerimeter=0;fontStyle=0" parent="1" source="f0wCPN4-28QZL9eDYPKT-68" target="f0wCPN4-28QZL9eDYPKT-51" edge="1">
          <mxGeometry relative="1" as="geometry" />
        </mxCell>
        <mxCell id="f0wCPN4-28QZL9eDYPKT-68" value="" style="verticalLabelPosition=bottom;verticalAlign=top;html=1;shape=mxgraph.basic.donut;dx=11.17;sketch=1;curveFitting=1;jiggle=2;fillColor=#0050ef;fontColor=#ffffff;strokeColor=#001DBC;fontStyle=0" parent="1" vertex="1">
          <mxGeometry x="3230" y="1010" width="140" height="140" as="geometry" />
        </mxCell>
        <mxCell id="f0wCPN4-28QZL9eDYPKT-69" value="Ring&lt;div style=&quot;font-size: 20px;&quot;&gt;Buffer&lt;/div&gt;" style="text;html=1;align=center;verticalAlign=middle;whiteSpace=wrap;rounded=0;fontFamily=Comic Sans MS;sketch=1;curveFitting=1;jiggle=2;fontSize=20;fontStyle=0" parent="1" vertex="1">
          <mxGeometry x="3270" y="1065" width="60" height="30" as="geometry" />
        </mxCell>
        <mxCell id="f0wCPN4-28QZL9eDYPKT-70" style="rounded=0;orthogonalLoop=1;jettySize=auto;html=1;entryX=0.008;entryY=0.468;entryDx=0;entryDy=0;entryPerimeter=0;sketch=1;curveFitting=1;jiggle=2;fontSize=16;fontStyle=0" parent="1" source="f0wCPN4-28QZL9eDYPKT-47" target="f0wCPN4-28QZL9eDYPKT-68" edge="1">
          <mxGeometry relative="1" as="geometry" />
        </mxCell>
        <mxCell id="f0wCPN4-28QZL9eDYPKT-71" style="rounded=0;orthogonalLoop=1;jettySize=auto;html=1;entryX=0.412;entryY=0.008;entryDx=0;entryDy=0;entryPerimeter=0;sketch=1;curveFitting=1;jiggle=2;fillColor=#d5e8d4;strokeColor=#82b366;" parent="1" source="f0wCPN4-28QZL9eDYPKT-61" target="f0wCPN4-28QZL9eDYPKT-64" edge="1">
          <mxGeometry relative="1" as="geometry" />
        </mxCell>
        <mxCell id="f0wCPN4-28QZL9eDYPKT-72" value="" style="endArrow=none;dashed=1;html=1;strokeWidth=2;rounded=0;sketch=1;curveFitting=1;jiggle=2;" parent="1" edge="1">
          <mxGeometry width="50" height="50" relative="1" as="geometry">
            <mxPoint x="4313" y="2611.75" as="sourcePoint" />
            <mxPoint x="4853" y="2613" as="targetPoint" />
          </mxGeometry>
        </mxCell>
        <mxCell id="f0wCPN4-28QZL9eDYPKT-73" value="&lt;div&gt;RISC-V&lt;/div&gt;M-mode" style="text;html=1;align=center;verticalAlign=middle;whiteSpace=wrap;rounded=0;fontFamily=Comic Sans MS;sketch=1;curveFitting=1;jiggle=2;fontSize=20;" parent="1" vertex="1">
          <mxGeometry x="4323" y="2653" width="110" height="30" as="geometry" />
        </mxCell>
        <mxCell id="f0wCPN4-28QZL9eDYPKT-74" value="RISC-V PMU" style="text;html=1;align=center;verticalAlign=middle;whiteSpace=wrap;rounded=0;fontSize=48;fontFamily=Comic Sans MS;" parent="1" vertex="1">
          <mxGeometry x="-790" y="-110" width="420" height="90" as="geometry" />
        </mxCell>
        <mxCell id="f0wCPN4-28QZL9eDYPKT-75" style="edgeStyle=orthogonalEdgeStyle;rounded=0;orthogonalLoop=1;jettySize=auto;html=1;sketch=1;curveFitting=1;jiggle=2;fontSize=20;" parent="1" source="f0wCPN4-28QZL9eDYPKT-76" target="f0wCPN4-28QZL9eDYPKT-78" edge="1">
          <mxGeometry relative="1" as="geometry" />
        </mxCell>
        <mxCell id="f0wCPN4-28QZL9eDYPKT-76" value="perf_event" style="rounded=0;whiteSpace=wrap;html=1;sketch=1;curveFitting=1;jiggle=2;fontFamily=Comic Sans MS;fillColor=#b1ddf0;strokeColor=#10739e;fontSize=20;" parent="1" vertex="1">
          <mxGeometry x="4643" y="2383" width="220" height="60" as="geometry" />
        </mxCell>
        <mxCell id="f0wCPN4-28QZL9eDYPKT-77" style="edgeStyle=orthogonalEdgeStyle;rounded=0;orthogonalLoop=1;jettySize=auto;html=1;shadow=1;sketch=1;curveFitting=1;jiggle=2;fontSize=20;" parent="1" source="f0wCPN4-28QZL9eDYPKT-78" target="f0wCPN4-28QZL9eDYPKT-139" edge="1">
          <mxGeometry relative="1" as="geometry" />
        </mxCell>
        <mxCell id="f0wCPN4-28QZL9eDYPKT-78" value="sbi_pmu_event" style="rounded=0;whiteSpace=wrap;html=1;sketch=1;curveFitting=1;jiggle=2;fontFamily=Comic Sans MS;fillColor=#b1ddf0;strokeColor=#10739e;fontSize=20;" parent="1" vertex="1">
          <mxGeometry x="4643" y="2483" width="222" height="60" as="geometry" />
        </mxCell>
        <mxCell id="f0wCPN4-28QZL9eDYPKT-79" value="KVM SBI PMU" style="text;html=1;align=center;verticalAlign=middle;whiteSpace=wrap;rounded=0;fontSize=48;fontFamily=Comic Sans MS;" parent="1" vertex="1">
          <mxGeometry x="-2760" y="2140" width="620" height="90" as="geometry" />
        </mxCell>
        <mxCell id="f0wCPN4-28QZL9eDYPKT-80" value="" style="endArrow=none;dashed=1;html=1;strokeWidth=2;rounded=0;sketch=1;curveFitting=1;jiggle=2;" parent="1" edge="1">
          <mxGeometry width="50" height="50" relative="1" as="geometry">
            <mxPoint x="2395" y="2430" as="sourcePoint" />
            <mxPoint x="3615" y="2431" as="targetPoint" />
          </mxGeometry>
        </mxCell>
        <mxCell id="f0wCPN4-28QZL9eDYPKT-81" value="" style="endArrow=none;dashed=1;html=1;strokeWidth=2;rounded=0;sketch=1;curveFitting=1;jiggle=2;" parent="1" edge="1">
          <mxGeometry width="50" height="50" relative="1" as="geometry">
            <mxPoint x="2395" y="2730" as="sourcePoint" />
            <mxPoint x="3615" y="2731" as="targetPoint" />
          </mxGeometry>
        </mxCell>
        <mxCell id="f0wCPN4-28QZL9eDYPKT-82" value="&lt;font style=&quot;font-size: 50px;&quot;&gt;User Mode&lt;/font&gt;&lt;div&gt;&lt;/div&gt;" style="text;html=1;align=center;verticalAlign=middle;whiteSpace=wrap;rounded=0;fontFamily=Comic Sans MS;sketch=1;curveFitting=1;jiggle=2;fontSize=20;" parent="1" vertex="1">
          <mxGeometry x="2760" y="2310" width="490" height="80" as="geometry" />
        </mxCell>
        <mxCell id="f0wCPN4-28QZL9eDYPKT-83" value="&lt;font style=&quot;font-size: 50px;&quot;&gt;Supervisor Mode&lt;/font&gt;&lt;div&gt;&lt;/div&gt;" style="text;html=1;align=center;verticalAlign=middle;whiteSpace=wrap;rounded=0;fontFamily=Comic Sans MS;sketch=1;curveFitting=1;jiggle=2;fontSize=20;" parent="1" vertex="1">
          <mxGeometry x="2755" y="2550" width="490" height="80" as="geometry" />
        </mxCell>
        <mxCell id="f0wCPN4-28QZL9eDYPKT-84" value="&lt;font style=&quot;font-size: 50px;&quot;&gt;Machine Mode&lt;/font&gt;&lt;div&gt;&lt;/div&gt;" style="text;html=1;align=center;verticalAlign=middle;whiteSpace=wrap;rounded=0;fontFamily=Comic Sans MS;sketch=1;curveFitting=1;jiggle=2;fontSize=20;" parent="1" vertex="1">
          <mxGeometry x="2760" y="2770" width="490" height="80" as="geometry" />
        </mxCell>
        <mxCell id="f0wCPN4-28QZL9eDYPKT-85" value="" style="endArrow=classic;html=1;rounded=0;sketch=1;curveFitting=1;jiggle=2;strokeWidth=5;" parent="1" edge="1">
          <mxGeometry width="50" height="50" relative="1" as="geometry">
            <mxPoint x="2496" y="2350" as="sourcePoint" />
            <mxPoint x="2495" y="2500" as="targetPoint" />
          </mxGeometry>
        </mxCell>
        <mxCell id="f0wCPN4-28QZL9eDYPKT-86" value="" style="endArrow=classic;html=1;rounded=0;sketch=1;curveFitting=1;jiggle=2;strokeWidth=5;" parent="1" edge="1">
          <mxGeometry width="50" height="50" relative="1" as="geometry">
            <mxPoint x="2497" y="2670" as="sourcePoint" />
            <mxPoint x="2496" y="2820" as="targetPoint" />
          </mxGeometry>
        </mxCell>
        <mxCell id="f0wCPN4-28QZL9eDYPKT-87" value="" style="endArrow=classic;html=1;rounded=0;sketch=1;curveFitting=1;jiggle=2;strokeWidth=5;" parent="1" edge="1">
          <mxGeometry width="50" height="50" relative="1" as="geometry">
            <mxPoint x="3463.5" y="2820" as="sourcePoint" />
            <mxPoint x="3462.5" y="2640" as="targetPoint" />
          </mxGeometry>
        </mxCell>
        <mxCell id="f0wCPN4-28QZL9eDYPKT-88" value="" style="endArrow=classic;html=1;rounded=0;sketch=1;curveFitting=1;jiggle=2;strokeWidth=5;" parent="1" edge="1">
          <mxGeometry width="50" height="50" relative="1" as="geometry">
            <mxPoint x="3456" y="2520" as="sourcePoint" />
            <mxPoint x="3455" y="2340" as="targetPoint" />
          </mxGeometry>
        </mxCell>
        <mxCell id="f0wCPN4-28QZL9eDYPKT-89" value="&lt;font style=&quot;font-size: 40px;&quot;&gt;ecall&lt;/font&gt;&lt;div&gt;&lt;/div&gt;" style="text;html=1;align=center;verticalAlign=middle;whiteSpace=wrap;rounded=0;fontFamily=Comic Sans MS;sketch=1;curveFitting=1;jiggle=2;fontSize=20;" parent="1" vertex="1">
          <mxGeometry x="2335" y="2350" width="140" height="80" as="geometry" />
        </mxCell>
        <mxCell id="f0wCPN4-28QZL9eDYPKT-90" value="&lt;font style=&quot;font-size: 40px;&quot;&gt;ecall&lt;/font&gt;&lt;div&gt;&lt;/div&gt;" style="text;html=1;align=center;verticalAlign=middle;whiteSpace=wrap;rounded=0;fontFamily=Comic Sans MS;sketch=1;curveFitting=1;jiggle=2;fontSize=20;" parent="1" vertex="1">
          <mxGeometry x="2335" y="2660" width="140" height="80" as="geometry" />
        </mxCell>
        <mxCell id="f0wCPN4-28QZL9eDYPKT-91" value="&lt;font style=&quot;font-size: 40px;&quot;&gt;sret&lt;/font&gt;&lt;div&gt;&lt;/div&gt;" style="text;html=1;align=center;verticalAlign=middle;whiteSpace=wrap;rounded=0;fontFamily=Comic Sans MS;sketch=1;curveFitting=1;jiggle=2;fontSize=20;" parent="1" vertex="1">
          <mxGeometry x="3475" y="2440" width="140" height="80" as="geometry" />
        </mxCell>
        <mxCell id="f0wCPN4-28QZL9eDYPKT-92" value="&lt;font style=&quot;font-size: 40px;&quot;&gt;mret&lt;/font&gt;&lt;div&gt;&lt;/div&gt;" style="text;html=1;align=center;verticalAlign=middle;whiteSpace=wrap;rounded=0;fontFamily=Comic Sans MS;sketch=1;curveFitting=1;jiggle=2;fontSize=20;" parent="1" vertex="1">
          <mxGeometry x="3475" y="2740" width="140" height="80" as="geometry" />
        </mxCell>
        <mxCell id="f0wCPN4-28QZL9eDYPKT-93" value="&lt;font style=&quot;font-size: 50px;&quot;&gt;RISC-V&amp;nbsp; Privilege&amp;nbsp; Level&lt;/font&gt;&lt;div&gt;&lt;/div&gt;" style="text;html=1;align=center;verticalAlign=middle;whiteSpace=wrap;rounded=0;fontFamily=Comic Sans MS;sketch=1;curveFitting=1;jiggle=2;fontSize=20;" parent="1" vertex="1">
          <mxGeometry x="2320" y="2190" width="630" height="80" as="geometry" />
        </mxCell>
        <mxCell id="f0wCPN4-28QZL9eDYPKT-94" value="Hardware&lt;div style=&quot;font-size: 20px;&quot;&gt;Cache&lt;/div&gt;" style="rounded=0;whiteSpace=wrap;html=1;sketch=1;curveFitting=1;jiggle=2;fontFamily=Comic Sans MS;fillColor=#f8cecc;strokeColor=#b85450;fontSize=20;fontStyle=0" parent="1" vertex="1">
          <mxGeometry x="2350" y="1200" width="120" height="60" as="geometry" />
        </mxCell>
        <mxCell id="f0wCPN4-28QZL9eDYPKT-95" style="rounded=0;orthogonalLoop=1;jettySize=auto;html=1;sketch=1;curveFitting=1;jiggle=2;entryX=0.5;entryY=0;entryDx=0;entryDy=0;fontSize=16;fontStyle=1" parent="1" source="f0wCPN4-28QZL9eDYPKT-47" target="f0wCPN4-28QZL9eDYPKT-94" edge="1">
          <mxGeometry relative="1" as="geometry">
            <mxPoint x="2882" y="1090" as="sourcePoint" />
            <mxPoint x="2648" y="1210" as="targetPoint" />
          </mxGeometry>
        </mxCell>
        <mxCell id="f0wCPN4-28QZL9eDYPKT-96" value="&lt;span style=&quot;background-color: initial; font-size: 20px;&quot;&gt;Raw&lt;/span&gt;" style="rounded=0;whiteSpace=wrap;html=1;sketch=1;curveFitting=1;jiggle=2;fontFamily=Comic Sans MS;fillColor=#f8cecc;strokeColor=#b85450;fontSize=20;fontStyle=0" parent="1" vertex="1">
          <mxGeometry x="3030" y="1200" width="120" height="60" as="geometry" />
        </mxCell>
        <mxCell id="f0wCPN4-28QZL9eDYPKT-97" style="rounded=0;orthogonalLoop=1;jettySize=auto;html=1;sketch=1;curveFitting=1;jiggle=2;fontSize=16;fontStyle=0" parent="1" source="f0wCPN4-28QZL9eDYPKT-47" target="f0wCPN4-28QZL9eDYPKT-96" edge="1">
          <mxGeometry relative="1" as="geometry">
            <mxPoint x="2940" y="1090" as="sourcePoint" />
            <mxPoint x="2940" y="1210" as="targetPoint" />
          </mxGeometry>
        </mxCell>
        <mxCell id="f0wCPN4-28QZL9eDYPKT-98" value="&lt;div&gt;RISC-V&lt;/div&gt;S-mode" style="text;html=1;align=center;verticalAlign=middle;whiteSpace=wrap;rounded=0;fontFamily=Comic Sans MS;sketch=1;curveFitting=1;jiggle=2;fontSize=20;" parent="1" vertex="1">
          <mxGeometry x="4323" y="2413" width="110" height="30" as="geometry" />
        </mxCell>
        <mxCell id="f0wCPN4-28QZL9eDYPKT-99" value="&lt;ul style=&quot;font-size: 16px;&quot;&gt;&lt;li style=&quot;text-align: left;&quot;&gt;cycle&lt;/li&gt;&lt;li style=&quot;text-align: left;&quot;&gt;instruction&lt;/li&gt;&lt;li style=&quot;text-align: left;&quot;&gt;branch&lt;/li&gt;&lt;li style=&quot;text-align: left;&quot;&gt;...&lt;/li&gt;&lt;/ul&gt;&lt;div&gt;&lt;/div&gt;" style="text;html=1;align=center;verticalAlign=middle;whiteSpace=wrap;rounded=0;fontFamily=Comic Sans MS;sketch=1;curveFitting=1;jiggle=2;fontSize=20;" parent="1" vertex="1">
          <mxGeometry x="2480" y="1390" width="180" height="100" as="geometry" />
        </mxCell>
        <mxCell id="f0wCPN4-28QZL9eDYPKT-100" value="&lt;ul style=&quot;font-size: 16px;&quot;&gt;&lt;li style=&quot;text-align: left;&quot;&gt;L1D&lt;/li&gt;&lt;li style=&quot;text-align: left;&quot;&gt;L1I&lt;/li&gt;&lt;li style=&quot;text-align: left;&quot;&gt;LL&lt;/li&gt;&lt;li style=&quot;text-align: left;&quot;&gt;DTLB&lt;/li&gt;&lt;li style=&quot;text-align: left;&quot;&gt;ITLB&lt;/li&gt;&lt;li style=&quot;text-align: left;&quot;&gt;...&lt;/li&gt;&lt;/ul&gt;&lt;div&gt;&lt;/div&gt;" style="text;html=1;align=center;verticalAlign=middle;whiteSpace=wrap;rounded=0;fontFamily=Comic Sans MS;sketch=1;curveFitting=1;jiggle=2;fontSize=20;" parent="1" vertex="1">
          <mxGeometry x="2301" y="1280" width="180" height="140" as="geometry" />
        </mxCell>
        <mxCell id="f0wCPN4-28QZL9eDYPKT-101" value="&lt;ul style=&quot;font-size: 16px;&quot;&gt;&lt;li style=&quot;text-align: left;&quot;&gt;cpu_clock&lt;/li&gt;&lt;li style=&quot;text-align: left;&quot;&gt;page_fault&lt;/li&gt;&lt;li style=&quot;text-align: left;&quot;&gt;context_switch&lt;/li&gt;&lt;li style=&quot;text-align: left;&quot;&gt;cpu_migration&lt;/li&gt;&lt;li style=&quot;text-align: left;&quot;&gt;...&lt;/li&gt;&lt;/ul&gt;&lt;div&gt;&lt;/div&gt;" style="text;html=1;align=center;verticalAlign=middle;whiteSpace=wrap;rounded=0;fontFamily=Comic Sans MS;sketch=1;curveFitting=1;jiggle=2;fontSize=20;" parent="1" vertex="1">
          <mxGeometry x="2670" y="1270" width="180" height="130" as="geometry" />
        </mxCell>
        <mxCell id="f0wCPN4-28QZL9eDYPKT-102" value="&lt;span style=&quot;font-size: 16px;&quot;&gt;static tracing&lt;/span&gt;&lt;div&gt;&lt;/div&gt;" style="text;html=1;align=center;verticalAlign=middle;whiteSpace=wrap;rounded=0;fontFamily=Comic Sans MS;sketch=1;curveFitting=1;jiggle=2;fontSize=20;" parent="1" vertex="1">
          <mxGeometry x="2910" y="1400" width="150" height="40" as="geometry" />
        </mxCell>
        <mxCell id="f0wCPN4-28QZL9eDYPKT-103" value="&lt;span style=&quot;font-size: 16px;&quot;&gt;static tracing&lt;/span&gt;&lt;div&gt;&lt;/div&gt;" style="text;html=1;align=center;verticalAlign=middle;whiteSpace=wrap;rounded=0;fontFamily=Comic Sans MS;sketch=1;curveFitting=1;jiggle=2;fontSize=20;" parent="1" vertex="1">
          <mxGeometry x="3485" y="1400" width="150" height="40" as="geometry" />
        </mxCell>
        <mxCell id="f0wCPN4-28QZL9eDYPKT-104" value="&lt;span style=&quot;font-size: 16px;&quot;&gt;dynamic tracing&lt;/span&gt;&lt;div&gt;&lt;/div&gt;" style="text;html=1;align=center;verticalAlign=middle;whiteSpace=wrap;rounded=0;fontFamily=Comic Sans MS;sketch=1;curveFitting=1;jiggle=2;fontSize=20;" parent="1" vertex="1">
          <mxGeometry x="3113" y="1400" width="150" height="40" as="geometry" />
        </mxCell>
        <mxCell id="f0wCPN4-28QZL9eDYPKT-105" value="&lt;span style=&quot;font-size: 16px;&quot;&gt;dynamic tracing&lt;/span&gt;&lt;div&gt;&lt;/div&gt;" style="text;html=1;align=center;verticalAlign=middle;whiteSpace=wrap;rounded=0;fontFamily=Comic Sans MS;sketch=1;curveFitting=1;jiggle=2;fontSize=20;" parent="1" vertex="1">
          <mxGeometry x="3305" y="1400" width="150" height="40" as="geometry" />
        </mxCell>
        <mxCell id="f0wCPN4-28QZL9eDYPKT-106" value="&lt;div&gt;struct sbi_pmu_event_data {&lt;/div&gt;&lt;div&gt;&lt;span style=&quot;white-space: normal;&quot;&gt;&lt;span style=&quot;white-space:pre&quot;&gt;&#x9;&lt;/span&gt;union {&lt;/span&gt;&lt;/div&gt;&lt;div&gt;&lt;span style=&quot;white-space: normal;&quot;&gt;&lt;span style=&quot;white-space:pre&quot;&gt;&#x9;&#x9;&lt;/span&gt;union {&lt;/span&gt;&lt;/div&gt;&lt;div&gt;&lt;span style=&quot;white-space: normal;&quot;&gt;&lt;span style=&quot;white-space:pre&quot;&gt;&#x9;&#x9;&#x9;&lt;/span&gt;struct hw_gen_event {&lt;/span&gt;&lt;/div&gt;&lt;div&gt;&lt;span style=&quot;white-space: normal;&quot;&gt;&lt;span style=&quot;white-space:pre&quot;&gt;&#x9;&#x9;&#x9;&#x9;&lt;/span&gt;uint32_t event_code:16;&lt;/span&gt;&lt;/div&gt;&lt;div&gt;&lt;span style=&quot;white-space: normal;&quot;&gt;&lt;span style=&quot;white-space:pre&quot;&gt;&#x9;&#x9;&#x9;&#x9;&lt;/span&gt;uint32_t event_type:4;&lt;/span&gt;&lt;/div&gt;&lt;div&gt;&lt;span style=&quot;white-space: normal;&quot;&gt;&lt;span style=&quot;white-space:pre&quot;&gt;&#x9;&#x9;&#x9;&#x9;&lt;/span&gt;uint32_t reserved:12;&lt;/span&gt;&lt;/div&gt;&lt;div&gt;&lt;span style=&quot;white-space: normal;&quot;&gt;&lt;span style=&quot;white-space:pre&quot;&gt;&#x9;&#x9;&#x9;&lt;/span&gt;} hw_gen_event;&lt;/span&gt;&lt;/div&gt;&lt;div&gt;&lt;span style=&quot;white-space: normal;&quot;&gt;&lt;span style=&quot;white-space:pre&quot;&gt;&#x9;&#x9;&#x9;&lt;/span&gt;struct hw_cache_event {&lt;/span&gt;&lt;/div&gt;&lt;div&gt;&lt;span style=&quot;white-space: normal;&quot;&gt;&lt;span style=&quot;white-space:pre&quot;&gt;&#x9;&#x9;&#x9;&#x9;&lt;/span&gt;uint32_t result_id:1;&lt;/span&gt;&lt;/div&gt;&lt;div&gt;&lt;span style=&quot;white-space: normal;&quot;&gt;&lt;span style=&quot;white-space:pre&quot;&gt;&#x9;&#x9;&#x9;&#x9;&lt;/span&gt;uint32_t op_id:2;&lt;/span&gt;&lt;/div&gt;&lt;div&gt;&lt;span style=&quot;white-space: normal;&quot;&gt;&lt;span style=&quot;white-space:pre&quot;&gt;&#x9;&#x9;&#x9;&#x9;&lt;/span&gt;uint32_t cache_id:13;&lt;/span&gt;&lt;/div&gt;&lt;div&gt;&lt;span style=&quot;white-space: normal;&quot;&gt;&lt;span style=&quot;white-space:pre&quot;&gt;&#x9;&#x9;&#x9;&#x9;&lt;/span&gt;uint32_t event_type:4;&lt;/span&gt;&lt;/div&gt;&lt;div&gt;&lt;span style=&quot;white-space: normal;&quot;&gt;&lt;span style=&quot;white-space:pre&quot;&gt;&#x9;&#x9;&#x9;&#x9;&lt;/span&gt;uint32_t reserved:12;&lt;/span&gt;&lt;/div&gt;&lt;div&gt;&lt;span style=&quot;white-space: normal;&quot;&gt;&lt;span style=&quot;white-space:pre&quot;&gt;&#x9;&#x9;&#x9;&lt;/span&gt;} hw_cache_event;&lt;/span&gt;&lt;/div&gt;&lt;div&gt;&lt;span style=&quot;white-space: normal;&quot;&gt;&lt;span style=&quot;white-space:pre&quot;&gt;&#x9;&#x9;&lt;/span&gt;};&lt;/span&gt;&lt;/div&gt;&lt;div&gt;&lt;span style=&quot;white-space: normal;&quot;&gt;&lt;span style=&quot;white-space:pre&quot;&gt;&#x9;&#x9;&lt;/span&gt;uint32_t event_idx;&lt;/span&gt;&lt;/div&gt;&lt;div&gt;&lt;span style=&quot;white-space: normal;&quot;&gt;&lt;span style=&quot;white-space:pre&quot;&gt;&#x9;&lt;/span&gt;};&lt;/span&gt;&lt;/div&gt;" style="rounded=0;whiteSpace=wrap;html=1;sketch=1;curveFitting=1;jiggle=2;fontFamily=Comic Sans MS;align=left;" parent="1" vertex="1">
          <mxGeometry x="-4000" y="3932" width="370" height="320" as="geometry" />
        </mxCell>
        <mxCell id="f0wCPN4-28QZL9eDYPKT-107" value="SBI PMU event data" style="text;html=1;align=center;verticalAlign=middle;whiteSpace=wrap;rounded=0;fontSize=48;fontFamily=Comic Sans MS;" parent="1" vertex="1">
          <mxGeometry x="-4090" y="3820" width="620" height="90" as="geometry" />
        </mxCell>
        <mxCell id="cyiH5vPEEtHlB9A3_SNS-18" style="edgeStyle=orthogonalEdgeStyle;rounded=0;orthogonalLoop=1;jettySize=auto;html=1;" parent="1" source="f0wCPN4-28QZL9eDYPKT-108" target="f0wCPN4-28QZL9eDYPKT-109" edge="1">
          <mxGeometry relative="1" as="geometry" />
        </mxCell>
        <mxCell id="f0wCPN4-28QZL9eDYPKT-108" value="&lt;font face=&quot;Comic Sans MS&quot;&gt;pmu_sbi_event_map&lt;/font&gt;" style="rounded=1;whiteSpace=wrap;html=1;sketch=1;curveFitting=1;jiggle=2;" parent="1" vertex="1">
          <mxGeometry x="-2880" y="4562" width="150" height="50" as="geometry" />
        </mxCell>
        <mxCell id="f0wCPN4-28QZL9eDYPKT-109" value="&lt;font face=&quot;Comic Sans MS&quot;&gt;pmu_hw_event_map&lt;/font&gt;" style="rounded=1;whiteSpace=wrap;html=1;sketch=1;curveFitting=1;jiggle=2;fillColor=#f8cecc;strokeColor=#b85450;" parent="1" vertex="1">
          <mxGeometry x="-2880" y="4660" width="150" height="50" as="geometry" />
        </mxCell>
        <mxCell id="f0wCPN4-28QZL9eDYPKT-110" value="&lt;font face=&quot;Comic Sans MS&quot;&gt;riscv_pmu_event_init&lt;/font&gt;" style="rounded=1;whiteSpace=wrap;html=1;sketch=1;curveFitting=1;jiggle=2;" parent="1" vertex="1">
          <mxGeometry x="-3410" y="3910" width="150" height="50" as="geometry" />
        </mxCell>
        <mxCell id="f0wCPN4-28QZL9eDYPKT-111" value="&lt;font face=&quot;Comic Sans MS&quot;&gt;mapped_event = rvpmu-&amp;gt;event_map(event, &amp;amp;event_config);&lt;/font&gt;" style="rounded=1;whiteSpace=wrap;html=1;sketch=1;curveFitting=1;jiggle=2;" parent="1" vertex="1">
          <mxGeometry x="-3308" y="3990" width="370" height="50" as="geometry" />
        </mxCell>
        <mxCell id="f0wCPN4-28QZL9eDYPKT-112" value="&lt;font face=&quot;Comic Sans MS&quot;&gt;rvpmu-&amp;gt;event_init(event);&lt;/font&gt;" style="rounded=1;whiteSpace=wrap;html=1;sketch=1;curveFitting=1;jiggle=2;" parent="1" vertex="1">
          <mxGeometry x="-3410" y="4080" width="190" height="50" as="geometry" />
        </mxCell>
        <mxCell id="f0wCPN4-28QZL9eDYPKT-113" style="rounded=0;orthogonalLoop=1;jettySize=auto;html=1;sketch=1;curveFitting=1;jiggle=2;" parent="1" source="f0wCPN4-28QZL9eDYPKT-114" target="f0wCPN4-28QZL9eDYPKT-124" edge="1">
          <mxGeometry relative="1" as="geometry" />
        </mxCell>
        <mxCell id="f0wCPN4-28QZL9eDYPKT-114" value="perf" style="rounded=0;whiteSpace=wrap;html=1;sketch=1;curveFitting=1;jiggle=2;fontFamily=Comic Sans MS;fillColor=#d5e8d4;strokeColor=#82b366;fontSize=25;fontStyle=0" parent="1" vertex="1">
          <mxGeometry x="4902" y="580" width="290" height="90" as="geometry" />
        </mxCell>
        <mxCell id="f0wCPN4-28QZL9eDYPKT-115" value="" style="endArrow=none;dashed=1;html=1;strokeWidth=2;rounded=0;sketch=1;curveFitting=1;jiggle=2;" parent="1" edge="1">
          <mxGeometry width="50" height="50" relative="1" as="geometry">
            <mxPoint x="4320" y="749" as="sourcePoint" />
            <mxPoint x="5741.0526315789475" y="749" as="targetPoint" />
          </mxGeometry>
        </mxCell>
        <mxCell id="f0wCPN4-28QZL9eDYPKT-116" value="User" style="text;html=1;align=center;verticalAlign=middle;whiteSpace=wrap;rounded=0;fontFamily=Comic Sans MS;sketch=1;curveFitting=1;jiggle=2;fontSize=25;" parent="1" vertex="1">
          <mxGeometry x="4340" y="690" width="60" height="30" as="geometry" />
        </mxCell>
        <mxCell id="f0wCPN4-28QZL9eDYPKT-117" value="Kernel" style="text;html=1;align=center;verticalAlign=middle;whiteSpace=wrap;rounded=0;fontFamily=Comic Sans MS;sketch=1;curveFitting=1;jiggle=2;fontSize=25;" parent="1" vertex="1">
          <mxGeometry x="4340" y="909" width="60" height="30" as="geometry" />
        </mxCell>
        <mxCell id="f0wCPN4-28QZL9eDYPKT-118" value="" style="endArrow=none;dashed=1;html=1;strokeWidth=2;rounded=0;sketch=1;curveFitting=1;jiggle=2;" parent="1" edge="1">
          <mxGeometry width="50" height="50" relative="1" as="geometry">
            <mxPoint x="4330" y="1218" as="sourcePoint" />
            <mxPoint x="5731.0526315789475" y="1218" as="targetPoint" />
          </mxGeometry>
        </mxCell>
        <mxCell id="f0wCPN4-28QZL9eDYPKT-119" value="CPU" style="text;html=1;align=center;verticalAlign=middle;whiteSpace=wrap;rounded=0;fontFamily=Comic Sans MS;sketch=1;curveFitting=1;jiggle=2;fontSize=25;" parent="1" vertex="1">
          <mxGeometry x="4310" y="1249" width="100" height="30" as="geometry" />
        </mxCell>
        <mxCell id="f0wCPN4-28QZL9eDYPKT-120" style="edgeStyle=orthogonalEdgeStyle;rounded=0;orthogonalLoop=1;jettySize=auto;html=1;sketch=1;curveFitting=1;jiggle=2;" parent="1" source="f0wCPN4-28QZL9eDYPKT-121" target="f0wCPN4-28QZL9eDYPKT-145" edge="1">
          <mxGeometry relative="1" as="geometry" />
        </mxCell>
        <mxCell id="f0wCPN4-28QZL9eDYPKT-121" value="perf event" style="rounded=0;whiteSpace=wrap;html=1;sketch=1;curveFitting=1;jiggle=2;fontFamily=Comic Sans MS;fillColor=#fff2cc;strokeColor=#d6b656;fontSize=25;fontStyle=0" parent="1" vertex="1">
          <mxGeometry x="4877.5" y="950" width="290" height="90" as="geometry" />
        </mxCell>
        <mxCell id="f0wCPN4-28QZL9eDYPKT-122" value="" style="rounded=0;whiteSpace=wrap;html=1;sketch=1;curveFitting=1;jiggle=2;fontFamily=Comic Sans MS;fillColor=#dae8fc;strokeColor=#6c8ebf;fontSize=25;fontStyle=0" parent="1" vertex="1">
          <mxGeometry x="4768" y="1334" width="509" height="180" as="geometry" />
        </mxCell>
        <mxCell id="f0wCPN4-28QZL9eDYPKT-123" value="PMU&lt;div&gt;（performance monitor unit）&lt;/div&gt;" style="text;html=1;align=center;verticalAlign=middle;whiteSpace=wrap;rounded=0;fontFamily=Comic Sans MS;fontSize=25;" parent="1" vertex="1">
          <mxGeometry x="4360" y="1384" width="390" height="70" as="geometry" />
        </mxCell>
        <mxCell id="f0wCPN4-28QZL9eDYPKT-124" value="perf_event_open" style="rounded=0;whiteSpace=wrap;html=1;sketch=1;curveFitting=1;jiggle=2;fontFamily=Comic Sans MS;fillColor=#f8cecc;strokeColor=#b85450;fontSize=25;fontStyle=0" parent="1" vertex="1">
          <mxGeometry x="4637" y="770" width="290" height="90" as="geometry" />
        </mxCell>
        <mxCell id="f0wCPN4-28QZL9eDYPKT-125" value="read" style="rounded=0;whiteSpace=wrap;html=1;sketch=1;curveFitting=1;jiggle=2;fontFamily=Comic Sans MS;fillColor=#f8cecc;strokeColor=#b85450;fontSize=25;fontStyle=0" parent="1" vertex="1">
          <mxGeometry x="5167" y="770" width="290" height="90" as="geometry" />
        </mxCell>
        <mxCell id="f0wCPN4-28QZL9eDYPKT-126" value="Event&lt;div style=&quot;font-size: 25px;&quot;&gt;generator&lt;/div&gt;" style="rounded=0;whiteSpace=wrap;html=1;sketch=1;curveFitting=1;jiggle=2;fontFamily=Comic Sans MS;fillColor=#fff2cc;strokeColor=#d6b656;fontSize=25;fontStyle=0" parent="1" vertex="1">
          <mxGeometry x="4808" y="1374" width="150" height="90" as="geometry" />
        </mxCell>
        <mxCell id="f0wCPN4-28QZL9eDYPKT-127" value="" style="rounded=0;whiteSpace=wrap;html=1;sketch=1;curveFitting=1;jiggle=2;fontFamily=Comic Sans MS;fillColor=#fff2cc;strokeColor=#d6b656;fontSize=25;fontStyle=0" parent="1" vertex="1">
          <mxGeometry x="5030" y="1374" width="150" height="90" as="geometry" />
        </mxCell>
        <mxCell id="f0wCPN4-28QZL9eDYPKT-128" value="" style="rounded=0;whiteSpace=wrap;html=1;sketch=1;curveFitting=1;jiggle=2;fontFamily=Comic Sans MS;fillColor=#fff2cc;strokeColor=#d6b656;fontSize=25;fontStyle=0" parent="1" vertex="1">
          <mxGeometry x="5040" y="1384" width="150" height="90" as="geometry" />
        </mxCell>
        <mxCell id="f0wCPN4-28QZL9eDYPKT-129" value="PMC" style="rounded=0;whiteSpace=wrap;html=1;sketch=1;curveFitting=1;jiggle=2;fontFamily=Comic Sans MS;fillColor=#fff2cc;strokeColor=#d6b656;fontSize=25;fontStyle=0" parent="1" vertex="1">
          <mxGeometry x="5050" y="1394" width="150" height="90" as="geometry" />
        </mxCell>
        <mxCell id="f0wCPN4-28QZL9eDYPKT-130" style="rounded=0;orthogonalLoop=1;jettySize=auto;html=1;sketch=1;curveFitting=1;jiggle=2;" parent="1" source="f0wCPN4-28QZL9eDYPKT-124" target="f0wCPN4-28QZL9eDYPKT-121" edge="1">
          <mxGeometry relative="1" as="geometry">
            <mxPoint x="4983" y="700" as="sourcePoint" />
            <mxPoint x="4861" y="780" as="targetPoint" />
          </mxGeometry>
        </mxCell>
        <mxCell id="f0wCPN4-28QZL9eDYPKT-131" style="rounded=0;orthogonalLoop=1;jettySize=auto;html=1;sketch=1;curveFitting=1;jiggle=2;exitX=0.75;exitY=0;exitDx=0;exitDy=0;" parent="1" source="f0wCPN4-28QZL9eDYPKT-121" target="f0wCPN4-28QZL9eDYPKT-125" edge="1">
          <mxGeometry relative="1" as="geometry">
            <mxPoint x="4882" y="870" as="sourcePoint" />
            <mxPoint x="4942" y="900" as="targetPoint" />
          </mxGeometry>
        </mxCell>
        <mxCell id="f0wCPN4-28QZL9eDYPKT-132" style="rounded=0;orthogonalLoop=1;jettySize=auto;html=1;sketch=1;curveFitting=1;jiggle=2;" parent="1" source="f0wCPN4-28QZL9eDYPKT-125" target="f0wCPN4-28QZL9eDYPKT-114" edge="1">
          <mxGeometry relative="1" as="geometry">
            <mxPoint x="5105" y="900" as="sourcePoint" />
            <mxPoint x="5192" y="870" as="targetPoint" />
          </mxGeometry>
        </mxCell>
        <mxCell id="f0wCPN4-28QZL9eDYPKT-133" style="rounded=0;orthogonalLoop=1;jettySize=auto;html=1;sketch=1;curveFitting=1;jiggle=2;entryX=0.3;entryY=-0.03;entryDx=0;entryDy=0;entryPerimeter=0;" parent="1" source="f0wCPN4-28QZL9eDYPKT-145" target="f0wCPN4-28QZL9eDYPKT-122" edge="1">
          <mxGeometry relative="1" as="geometry">
            <mxPoint x="4995" y="1350" as="sourcePoint" />
            <mxPoint x="4867" y="1270" as="targetPoint" />
          </mxGeometry>
        </mxCell>
        <mxCell id="f0wCPN4-28QZL9eDYPKT-134" style="rounded=0;orthogonalLoop=1;jettySize=auto;html=1;sketch=1;curveFitting=1;jiggle=2;exitX=0.707;exitY=-0.002;exitDx=0;exitDy=0;exitPerimeter=0;" parent="1" source="f0wCPN4-28QZL9eDYPKT-122" target="f0wCPN4-28QZL9eDYPKT-145" edge="1">
          <mxGeometry relative="1" as="geometry">
            <mxPoint x="5100" y="1200" as="sourcePoint" />
            <mxPoint x="5122" y="1345" as="targetPoint" />
          </mxGeometry>
        </mxCell>
        <mxCell id="f0wCPN4-28QZL9eDYPKT-135" value="&lt;font style=&quot;font-size: 50px;&quot;&gt;Perf architecture&lt;/font&gt;&lt;div&gt;&lt;/div&gt;" style="text;html=1;align=center;verticalAlign=middle;whiteSpace=wrap;rounded=0;fontFamily=Comic Sans MS;sketch=1;curveFitting=1;jiggle=2;fontSize=20;" parent="1" vertex="1">
          <mxGeometry x="2265" y="612" width="630" height="80" as="geometry" />
        </mxCell>
        <mxCell id="f0wCPN4-28QZL9eDYPKT-136" value="&lt;font style=&quot;font-size: 50px;&quot;&gt;Perf PMU&lt;/font&gt;&lt;div&gt;&lt;/div&gt;" style="text;html=1;align=center;verticalAlign=middle;whiteSpace=wrap;rounded=0;fontFamily=Comic Sans MS;sketch=1;curveFitting=1;jiggle=2;fontSize=20;" parent="1" vertex="1">
          <mxGeometry x="4250" y="410" width="380" height="80" as="geometry" />
        </mxCell>
        <mxCell id="f0wCPN4-28QZL9eDYPKT-137" value="" style="endArrow=none;dashed=1;html=1;strokeWidth=2;rounded=0;sketch=1;curveFitting=1;jiggle=2;" parent="1" edge="1">
          <mxGeometry width="50" height="50" relative="1" as="geometry">
            <mxPoint x="4481" y="2612" as="sourcePoint" />
            <mxPoint x="5021" y="2613.25" as="targetPoint" />
          </mxGeometry>
        </mxCell>
        <mxCell id="f0wCPN4-28QZL9eDYPKT-138" value="SBI" style="rounded=0;whiteSpace=wrap;html=1;sketch=1;curveFitting=1;jiggle=2;fontFamily=Comic Sans MS;fillColor=#f8cecc;strokeColor=#b85450;fillStyle=solid;fontSize=20;" parent="1" vertex="1">
          <mxGeometry x="4483" y="2583" width="120" height="60" as="geometry" />
        </mxCell>
        <mxCell id="f0wCPN4-28QZL9eDYPKT-139" value="SBI_PMU" style="rounded=0;whiteSpace=wrap;html=1;sketch=1;curveFitting=1;jiggle=2;fontFamily=Comic Sans MS;fillColor=#f8cecc;strokeColor=#b85450;fillStyle=solid;fontSize=20;" parent="1" vertex="1">
          <mxGeometry x="4643" y="2583" width="222" height="60" as="geometry" />
        </mxCell>
        <mxCell id="f0wCPN4-28QZL9eDYPKT-140" value="" style="endArrow=none;dashed=1;html=1;strokeWidth=2;rounded=0;sketch=1;curveFitting=1;jiggle=2;" parent="1" edge="1">
          <mxGeometry width="50" height="50" relative="1" as="geometry">
            <mxPoint x="4323" y="2322" as="sourcePoint" />
            <mxPoint x="4988" y="2318" as="targetPoint" />
          </mxGeometry>
        </mxCell>
        <mxCell id="f0wCPN4-28QZL9eDYPKT-141" value="&lt;div style=&quot;font-size: 20px;&quot;&gt;RISC-V&lt;/div&gt;&lt;span style=&quot;font-size: 20px;&quot;&gt;U-mode&lt;/span&gt;" style="text;html=1;align=center;verticalAlign=middle;whiteSpace=wrap;rounded=0;fontFamily=Comic Sans MS;sketch=1;curveFitting=1;jiggle=2;fontSize=25;" parent="1" vertex="1">
          <mxGeometry x="4292" y="2187" width="172" height="80" as="geometry" />
        </mxCell>
        <mxCell id="f0wCPN4-28QZL9eDYPKT-142" style="edgeStyle=orthogonalEdgeStyle;rounded=0;orthogonalLoop=1;jettySize=auto;html=1;" parent="1" source="f0wCPN4-28QZL9eDYPKT-143" target="f0wCPN4-28QZL9eDYPKT-76" edge="1">
          <mxGeometry relative="1" as="geometry" />
        </mxCell>
        <mxCell id="f0wCPN4-28QZL9eDYPKT-143" value="perf" style="rounded=0;whiteSpace=wrap;html=1;sketch=1;curveFitting=1;jiggle=2;fontFamily=Comic Sans MS;fillColor=#b1ddf0;strokeColor=#10739e;fontSize=20;" parent="1" vertex="1">
          <mxGeometry x="4643" y="2210" width="220" height="60" as="geometry" />
        </mxCell>
        <mxCell id="f0wCPN4-28QZL9eDYPKT-144" value="PMC&lt;div&gt;（performance monitor counter）&lt;/div&gt;" style="text;html=1;align=center;verticalAlign=middle;whiteSpace=wrap;rounded=0;fontFamily=Comic Sans MS;fontSize=25;" parent="1" vertex="1">
          <mxGeometry x="5210" y="1390" width="390" height="70" as="geometry" />
        </mxCell>
        <mxCell id="f0wCPN4-28QZL9eDYPKT-145" value="cpu PMU event" style="rounded=0;whiteSpace=wrap;html=1;sketch=1;curveFitting=1;jiggle=2;fontFamily=Comic Sans MS;fillColor=#fff2cc;strokeColor=#d6b656;fontSize=25;fontStyle=0" parent="1" vertex="1">
          <mxGeometry x="4877" y="1090" width="290" height="90" as="geometry" />
        </mxCell>
        <mxCell id="cyiH5vPEEtHlB9A3_SNS-1" value="&lt;font face=&quot;Comic Sans MS&quot; style=&quot;font-size: 48px;&quot;&gt;Userspace perf code&lt;/font&gt;" style="text;html=1;align=center;verticalAlign=middle;whiteSpace=wrap;rounded=0;fontSize=17;" parent="1" vertex="1">
          <mxGeometry x="-770" y="-4330" width="470" height="80" as="geometry" />
        </mxCell>
        <mxCell id="cyiH5vPEEtHlB9A3_SNS-2" value="print_counter_value_std" style="rounded=0;whiteSpace=wrap;html=1;sketch=1;curveFitting=1;jiggle=2;fontFamily=Comic Sans MS;" parent="1" vertex="1">
          <mxGeometry x="230" y="-3590" width="280" height="70" as="geometry" />
        </mxCell>
        <mxCell id="cyiH5vPEEtHlB9A3_SNS-3" value="print_counter_value" style="rounded=0;whiteSpace=wrap;html=1;sketch=1;curveFitting=1;jiggle=2;fontFamily=Comic Sans MS;" parent="1" vertex="1">
          <mxGeometry x="230" y="-3730" width="280" height="70" as="geometry" />
        </mxCell>
        <mxCell id="cyiH5vPEEtHlB9A3_SNS-4" value="abs_printout" style="rounded=0;whiteSpace=wrap;html=1;sketch=1;curveFitting=1;jiggle=2;fontFamily=Comic Sans MS;" parent="1" vertex="1">
          <mxGeometry x="230" y="-3860" width="280" height="70" as="geometry" />
        </mxCell>
        <mxCell id="cyiH5vPEEtHlB9A3_SNS-5" value="printout" style="rounded=0;whiteSpace=wrap;html=1;sketch=1;curveFitting=1;jiggle=2;fontFamily=Comic Sans MS;" parent="1" vertex="1">
          <mxGeometry x="230" y="-3980" width="280" height="70" as="geometry" />
        </mxCell>
        <mxCell id="cyiH5vPEEtHlB9A3_SNS-6" value="print_counter_aggrdata" style="rounded=0;whiteSpace=wrap;html=1;sketch=1;curveFitting=1;jiggle=2;fontFamily=Comic Sans MS;" parent="1" vertex="1">
          <mxGeometry x="230" y="-4110" width="280" height="70" as="geometry" />
        </mxCell>
        <mxCell id="cyiH5vPEEtHlB9A3_SNS-7" value="print_counter" style="rounded=0;whiteSpace=wrap;html=1;sketch=1;curveFitting=1;jiggle=2;fontFamily=Comic Sans MS;" parent="1" vertex="1">
          <mxGeometry x="230" y="-4230" width="280" height="70" as="geometry" />
        </mxCell>
        <mxCell id="cyiH5vPEEtHlB9A3_SNS-9" value="evlist__print_counters" style="rounded=0;whiteSpace=wrap;html=1;sketch=1;curveFitting=1;jiggle=2;fontFamily=Comic Sans MS;" parent="1" vertex="1">
          <mxGeometry x="230" y="-4370" width="280" height="70" as="geometry" />
        </mxCell>
        <mxCell id="cyiH5vPEEtHlB9A3_SNS-10" value="print_counters" style="rounded=0;whiteSpace=wrap;html=1;sketch=1;curveFitting=1;jiggle=2;fontFamily=Comic Sans MS;" parent="1" vertex="1">
          <mxGeometry x="230" y="-4490" width="280" height="70" as="geometry" />
        </mxCell>
        <mxCell id="cyiH5vPEEtHlB9A3_SNS-11" value="cmd_stat" style="rounded=0;whiteSpace=wrap;html=1;sketch=1;curveFitting=1;jiggle=2;fontFamily=Comic Sans MS;" parent="1" vertex="1">
          <mxGeometry x="230" y="-4600" width="280" height="70" as="geometry" />
        </mxCell>
        <mxCell id="cyiH5vPEEtHlB9A3_SNS-12" value="&lt;div&gt;static struct cmd_struct commands[] = {&lt;/div&gt;&lt;div&gt;&lt;span style=&quot;white-space: normal;&quot;&gt;&lt;span style=&quot;white-space:pre&quot;&gt;&#x9;&lt;/span&gt;{ &quot;archive&quot;,&lt;span style=&quot;white-space:pre&quot;&gt;&#x9;&lt;/span&gt;NULL,&lt;span style=&quot;white-space:pre&quot;&gt;&#x9;&lt;/span&gt;0 },&lt;/span&gt;&lt;/div&gt;&lt;div&gt;&lt;span style=&quot;white-space: normal;&quot;&gt;&lt;span style=&quot;white-space:pre&quot;&gt;&#x9;&lt;/span&gt;{ &quot;buildid-cache&quot;, cmd_buildid_cache, 0 },&lt;/span&gt;&lt;/div&gt;&lt;div&gt;&lt;span style=&quot;white-space: normal;&quot;&gt;&lt;span style=&quot;white-space:pre&quot;&gt;&#x9;&lt;/span&gt;{ &quot;buildid-list&quot;, cmd_buildid_list, 0 },&lt;/span&gt;&lt;/div&gt;&lt;div&gt;&lt;span style=&quot;white-space: normal;&quot;&gt;&lt;span style=&quot;white-space:pre&quot;&gt;&#x9;&lt;/span&gt;{ &quot;config&quot;,&lt;span style=&quot;white-space:pre&quot;&gt;&#x9;&lt;/span&gt;cmd_config,&lt;span style=&quot;white-space:pre&quot;&gt;&#x9;&lt;/span&gt;0 },&lt;/span&gt;&lt;/div&gt;&lt;div&gt;&lt;span style=&quot;white-space: normal;&quot;&gt;&lt;span style=&quot;white-space:pre&quot;&gt;&#x9;&lt;/span&gt;{ &quot;c2c&quot;,&lt;span style=&quot;white-space:pre&quot;&gt;&#x9;&lt;/span&gt;cmd_c2c,&lt;span style=&quot;white-space:pre&quot;&gt;&#x9;&lt;/span&gt;0 },&lt;/span&gt;&lt;/div&gt;&lt;div&gt;&lt;span style=&quot;white-space: normal;&quot;&gt;&lt;span style=&quot;white-space:pre&quot;&gt;&#x9;&lt;/span&gt;{ &quot;diff&quot;,&lt;span style=&quot;white-space:pre&quot;&gt;&#x9;&lt;/span&gt;cmd_diff,&lt;span style=&quot;white-space:pre&quot;&gt;&#x9;&lt;/span&gt;0 },&lt;/span&gt;&lt;/div&gt;&lt;div&gt;&lt;span style=&quot;white-space: normal;&quot;&gt;&lt;span style=&quot;white-space:pre&quot;&gt;&#x9;&lt;/span&gt;{ &quot;evlist&quot;,&lt;span style=&quot;white-space:pre&quot;&gt;&#x9;&lt;/span&gt;cmd_evlist,&lt;span style=&quot;white-space:pre&quot;&gt;&#x9;&lt;/span&gt;0 },&lt;/span&gt;&lt;/div&gt;&lt;div&gt;&lt;span style=&quot;white-space: normal;&quot;&gt;&lt;span style=&quot;white-space:pre&quot;&gt;&#x9;&lt;/span&gt;{ &quot;help&quot;,&lt;span style=&quot;white-space:pre&quot;&gt;&#x9;&lt;/span&gt;cmd_help,&lt;span style=&quot;white-space:pre&quot;&gt;&#x9;&lt;/span&gt;0 },&lt;/span&gt;&lt;/div&gt;&lt;div&gt;&lt;span style=&quot;white-space: normal;&quot;&gt;&lt;span style=&quot;white-space:pre&quot;&gt;&#x9;&lt;/span&gt;{ &quot;iostat&quot;,&lt;span style=&quot;white-space:pre&quot;&gt;&#x9;&lt;/span&gt;NULL,&lt;span style=&quot;white-space:pre&quot;&gt;&#x9;&lt;/span&gt;0 },&lt;/span&gt;&lt;/div&gt;&lt;div&gt;&lt;span style=&quot;white-space: normal;&quot;&gt;&lt;span style=&quot;white-space:pre&quot;&gt;&#x9;&lt;/span&gt;{ &quot;kallsyms&quot;,&lt;span style=&quot;white-space:pre&quot;&gt;&#x9;&lt;/span&gt;cmd_kallsyms,&lt;span style=&quot;white-space:pre&quot;&gt;&#x9;&lt;/span&gt;0 },&lt;/span&gt;&lt;/div&gt;&lt;div&gt;&lt;span style=&quot;white-space: normal;&quot;&gt;&lt;span style=&quot;white-space:pre&quot;&gt;&#x9;&lt;/span&gt;{ &quot;list&quot;,&lt;span style=&quot;white-space:pre&quot;&gt;&#x9;&lt;/span&gt;cmd_list,&lt;span style=&quot;white-space:pre&quot;&gt;&#x9;&lt;/span&gt;0 },&lt;/span&gt;&lt;/div&gt;&lt;div&gt;&lt;span style=&quot;white-space: normal;&quot;&gt;&lt;span style=&quot;white-space:pre&quot;&gt;&#x9;&lt;/span&gt;{ &quot;record&quot;,&lt;span style=&quot;white-space:pre&quot;&gt;&#x9;&lt;/span&gt;cmd_record,&lt;span style=&quot;white-space:pre&quot;&gt;&#x9;&lt;/span&gt;0 },&lt;/span&gt;&lt;/div&gt;&lt;div&gt;&lt;span style=&quot;white-space: normal;&quot;&gt;&lt;span style=&quot;white-space:pre&quot;&gt;&#x9;&lt;/span&gt;{ &quot;report&quot;,&lt;span style=&quot;white-space:pre&quot;&gt;&#x9;&lt;/span&gt;cmd_report,&lt;span style=&quot;white-space:pre&quot;&gt;&#x9;&lt;/span&gt;0 },&lt;/span&gt;&lt;/div&gt;&lt;div&gt;&lt;span style=&quot;white-space: normal;&quot;&gt;&lt;span style=&quot;white-space:pre&quot;&gt;&#x9;&lt;/span&gt;{ &quot;bench&quot;,&lt;span style=&quot;white-space:pre&quot;&gt;&#x9;&lt;/span&gt;cmd_bench,&lt;span style=&quot;white-space:pre&quot;&gt;&#x9;&lt;/span&gt;0 },&lt;/span&gt;&lt;/div&gt;&lt;div style=&quot;&quot;&gt;&lt;span style=&quot;white-space: normal;&quot;&gt;&lt;span style=&quot;white-space:pre&quot;&gt;&#x9;&lt;/span&gt;{ &quot;stat&quot;,&lt;span style=&quot;white-space:pre&quot;&gt;&#x9;&lt;/span&gt;cmd_stat,&lt;span style=&quot;white-space:pre&quot;&gt;&#x9;&lt;/span&gt;0 },&lt;/span&gt;&lt;/div&gt;" style="rounded=0;whiteSpace=wrap;html=1;sketch=1;curveFitting=1;jiggle=2;fontFamily=Comic Sans MS;align=left;" parent="1" vertex="1">
          <mxGeometry x="440" y="-4970" width="330" height="280" as="geometry" />
        </mxCell>
        <mxCell id="cyiH5vPEEtHlB9A3_SNS-13" value="main" style="rounded=0;whiteSpace=wrap;html=1;sketch=1;curveFitting=1;jiggle=2;fontFamily=Comic Sans MS;" parent="1" vertex="1">
          <mxGeometry x="230" y="-5090" width="280" height="70" as="geometry" />
        </mxCell>
        <mxCell id="cyiH5vPEEtHlB9A3_SNS-14" value="&lt;div&gt;&lt;font face=&quot;Comic Sans MS&quot;&gt;&lt;span style=&quot;white-space: normal;&quot;&gt;&lt;span style=&quot;white-space:pre&quot;&gt;&#x9;&lt;/span&gt;pmu-&amp;gt;pmu.attr_groups = riscv_pmu_attr_groups;&lt;/span&gt;&lt;/font&gt;&lt;/div&gt;&lt;div&gt;&lt;font face=&quot;Comic Sans MS&quot;&gt;&lt;span style=&quot;white-space: normal;&quot;&gt;&lt;span style=&quot;white-space:pre&quot;&gt;&#x9;&lt;/span&gt;pmu-&amp;gt;pmu.parent = &amp;amp;pdev-&amp;gt;dev;&lt;/span&gt;&lt;/font&gt;&lt;/div&gt;&lt;div&gt;&lt;font face=&quot;Comic Sans MS&quot;&gt;&lt;span style=&quot;white-space: normal;&quot;&gt;&lt;span style=&quot;white-space:pre&quot;&gt;&#x9;&lt;/span&gt;pmu-&amp;gt;cmask = cmask;&lt;/span&gt;&lt;/font&gt;&lt;/div&gt;&lt;div&gt;&lt;font face=&quot;Comic Sans MS&quot;&gt;&lt;span style=&quot;white-space: normal;&quot;&gt;&lt;span style=&quot;white-space:pre&quot;&gt;&#x9;&lt;/span&gt;pmu-&amp;gt;ctr_start = pmu_sbi_ctr_start;&lt;/span&gt;&lt;/font&gt;&lt;/div&gt;&lt;div&gt;&lt;font face=&quot;Comic Sans MS&quot;&gt;&lt;span style=&quot;white-space: normal;&quot;&gt;&lt;span style=&quot;white-space:pre&quot;&gt;&#x9;&lt;/span&gt;pmu-&amp;gt;ctr_stop = pmu_sbi_ctr_stop;&lt;/span&gt;&lt;/font&gt;&lt;/div&gt;&lt;div&gt;&lt;font face=&quot;Comic Sans MS&quot;&gt;&lt;span style=&quot;white-space: normal;&quot;&gt;&lt;span style=&quot;white-space:pre&quot;&gt;&#x9;&lt;/span&gt;pmu-&amp;gt;event_map = &lt;font color=&quot;#ff3333&quot;&gt;pmu_sbi_event_map&lt;/font&gt;;&lt;/span&gt;&lt;/font&gt;&lt;/div&gt;&lt;div&gt;&lt;font face=&quot;Comic Sans MS&quot;&gt;&lt;span style=&quot;white-space: normal;&quot;&gt;&lt;span style=&quot;white-space:pre&quot;&gt;&#x9;&lt;/span&gt;pmu-&amp;gt;ctr_get_idx = pmu_sbi_ctr_get_idx;&lt;/span&gt;&lt;/font&gt;&lt;/div&gt;&lt;div&gt;&lt;font face=&quot;Comic Sans MS&quot;&gt;&lt;span style=&quot;white-space: normal;&quot;&gt;&lt;span style=&quot;white-space:pre&quot;&gt;&#x9;&lt;/span&gt;pmu-&amp;gt;ctr_get_width = pmu_sbi_ctr_get_width;&lt;/span&gt;&lt;/font&gt;&lt;/div&gt;&lt;div&gt;&lt;font face=&quot;Comic Sans MS&quot;&gt;&lt;span style=&quot;white-space: normal;&quot;&gt;&lt;span style=&quot;white-space:pre&quot;&gt;&#x9;&lt;/span&gt;pmu-&amp;gt;ctr_clear_idx = pmu_sbi_ctr_clear_idx;&lt;/span&gt;&lt;/font&gt;&lt;/div&gt;&lt;div&gt;&lt;font face=&quot;Comic Sans MS&quot;&gt;&lt;span style=&quot;white-space: normal;&quot;&gt;&lt;span style=&quot;white-space:pre&quot;&gt;&#x9;&lt;/span&gt;pmu-&amp;gt;ctr_read = pmu_sbi_ctr_read;&lt;/span&gt;&lt;/font&gt;&lt;/div&gt;&lt;div&gt;&lt;font face=&quot;Comic Sans MS&quot;&gt;&lt;span style=&quot;white-space: normal;&quot;&gt;&lt;span style=&quot;white-space:pre&quot;&gt;&#x9;&lt;/span&gt;pmu-&amp;gt;event_init = pmu_sbi_event_init;&lt;/span&gt;&lt;/font&gt;&lt;/div&gt;&lt;div&gt;&lt;font face=&quot;Comic Sans MS&quot;&gt;&lt;span style=&quot;white-space: normal;&quot;&gt;&lt;span style=&quot;white-space:pre&quot;&gt;&#x9;&lt;/span&gt;pmu-&amp;gt;event_mapped = &lt;font color=&quot;#ff3333&quot;&gt;pmu_sbi_event_mapped&lt;/font&gt;;&lt;/span&gt;&lt;/font&gt;&lt;/div&gt;&lt;div&gt;&lt;font face=&quot;Comic Sans MS&quot;&gt;&lt;span style=&quot;white-space: normal;&quot;&gt;&lt;span style=&quot;white-space:pre&quot;&gt;&#x9;&lt;/span&gt;pmu-&amp;gt;event_unmapped = pmu_sbi_event_unmapped;&lt;/span&gt;&lt;/font&gt;&lt;/div&gt;&lt;div&gt;&lt;font face=&quot;Comic Sans MS&quot;&gt;&lt;span style=&quot;white-space: normal;&quot;&gt;&lt;span style=&quot;white-space:pre&quot;&gt;&#x9;&lt;/span&gt;pmu-&amp;gt;csr_index = pmu_sbi_csr_index;&lt;/span&gt;&lt;/font&gt;&lt;/div&gt;" style="rounded=0;whiteSpace=wrap;html=1;sketch=1;curveFitting=1;jiggle=2;align=left;" parent="1" vertex="1">
          <mxGeometry x="-2760" y="4252" width="340" height="240" as="geometry" />
        </mxCell>
        <mxCell id="cyiH5vPEEtHlB9A3_SNS-15" value="&lt;span style=&quot;color: rgb(255, 51, 51); font-family: &amp;quot;Comic Sans MS&amp;quot;; text-align: left;&quot;&gt;pmu_sbi_event_mapped&lt;/span&gt;" style="rounded=1;whiteSpace=wrap;html=1;sketch=1;curveFitting=1;jiggle=2;" parent="1" vertex="1">
          <mxGeometry x="-2290" y="4562" width="150" height="50" as="geometry" />
        </mxCell>
        <mxCell id="cyiH5vPEEtHlB9A3_SNS-16" value="riscv_pmu_event_mapped" style="rounded=1;whiteSpace=wrap;html=1;sketch=1;curveFitting=1;jiggle=2;" parent="1" vertex="1">
          <mxGeometry x="-2290" y="4350" width="180" height="50" as="geometry" />
        </mxCell>
        <mxCell id="cyiH5vPEEtHlB9A3_SNS-17" value="rvpmu-&amp;gt;event_mapped(event, mm);" style="rounded=1;whiteSpace=wrap;html=1;sketch=1;curveFitting=1;jiggle=2;" parent="1" vertex="1">
          <mxGeometry x="-2210" y="4442" width="230" height="50" as="geometry" />
        </mxCell>
        <mxCell id="tAJddqhChWdHqmRAOHaR-1" value="&lt;font face=&quot;Comic Sans MS&quot;&gt;riscv_pmu_stop&lt;/font&gt;" style="rounded=1;whiteSpace=wrap;html=1;sketch=1;curveFitting=1;jiggle=2;fillColor=#ffff88;strokeColor=#36393d;" vertex="1" parent="1">
          <mxGeometry x="-3320" y="6380" width="180" height="50" as="geometry" />
        </mxCell>
        <mxCell id="tAJddqhChWdHqmRAOHaR-3" value="&lt;font face=&quot;Comic Sans MS&quot;&gt;riscv_pmu_start&lt;/font&gt;" style="rounded=1;whiteSpace=wrap;html=1;sketch=1;curveFitting=1;jiggle=2;fillColor=#ffff88;strokeColor=#36393d;" vertex="1" parent="1">
          <mxGeometry x="-3770" y="6380" width="180" height="50" as="geometry" />
        </mxCell>
        <mxCell id="tAJddqhChWdHqmRAOHaR-4" value="&lt;font face=&quot;Comic Sans MS&quot;&gt;riscv_pmu_add&lt;/font&gt;" style="rounded=1;whiteSpace=wrap;html=1;sketch=1;curveFitting=1;jiggle=2;fillColor=#ffcc99;strokeColor=#36393d;" vertex="1" parent="1">
          <mxGeometry x="-3890" y="6290" width="180" height="50" as="geometry" />
        </mxCell>
        <mxCell id="tAJddqhChWdHqmRAOHaR-5" value="&lt;font face=&quot;Comic Sans MS&quot;&gt;event_sched_in&lt;/font&gt;" style="rounded=1;whiteSpace=wrap;html=1;sketch=1;curveFitting=1;jiggle=2;" vertex="1" parent="1">
          <mxGeometry x="-3890" y="6190" width="180" height="50" as="geometry" />
        </mxCell>
        <mxCell id="tAJddqhChWdHqmRAOHaR-6" value="&lt;font face=&quot;Comic Sans MS&quot;&gt;group_sched_in&lt;/font&gt;" style="rounded=1;whiteSpace=wrap;html=1;sketch=1;curveFitting=1;jiggle=2;" vertex="1" parent="1">
          <mxGeometry x="-3890" y="6110" width="180" height="50" as="geometry" />
        </mxCell>
        <mxCell id="tAJddqhChWdHqmRAOHaR-8" value="&lt;font face=&quot;Comic Sans MS&quot;&gt;visit_groups_merge&lt;/font&gt;" style="rounded=1;whiteSpace=wrap;html=1;sketch=1;curveFitting=1;jiggle=2;" vertex="1" parent="1">
          <mxGeometry x="-3890" y="6030" width="180" height="50" as="geometry" />
        </mxCell>
        <mxCell id="tAJddqhChWdHqmRAOHaR-9" value="&lt;font face=&quot;Comic Sans MS&quot;&gt;pmu_groups_sched_in&lt;/font&gt;" style="rounded=1;whiteSpace=wrap;html=1;sketch=1;curveFitting=1;jiggle=2;" vertex="1" parent="1">
          <mxGeometry x="-3890" y="5940" width="180" height="50" as="geometry" />
        </mxCell>
        <mxCell id="tAJddqhChWdHqmRAOHaR-10" value="&lt;font face=&quot;Comic Sans MS&quot;&gt;perf_ioctl&lt;/font&gt;" style="rounded=1;whiteSpace=wrap;html=1;sketch=1;curveFitting=1;jiggle=2;" vertex="1" parent="1">
          <mxGeometry x="-3890" y="5010" width="180" height="50" as="geometry" />
        </mxCell>
        <mxCell id="tAJddqhChWdHqmRAOHaR-11" value="&lt;font face=&quot;Comic Sans MS&quot;&gt;_perf_ioctl&lt;/font&gt;" style="rounded=1;whiteSpace=wrap;html=1;sketch=1;curveFitting=1;jiggle=2;" vertex="1" parent="1">
          <mxGeometry x="-3890" y="5080" width="180" height="50" as="geometry" />
        </mxCell>
        <mxCell id="tAJddqhChWdHqmRAOHaR-12" value="&lt;font face=&quot;Comic Sans MS&quot;&gt;perf_event_for_each_child&lt;/font&gt;" style="rounded=1;whiteSpace=wrap;html=1;sketch=1;curveFitting=1;jiggle=2;" vertex="1" parent="1">
          <mxGeometry x="-3890" y="5150" width="180" height="50" as="geometry" />
        </mxCell>
        <mxCell id="tAJddqhChWdHqmRAOHaR-13" value="&lt;font face=&quot;Comic Sans MS&quot;&gt;_perf_event_enable&lt;/font&gt;" style="rounded=1;whiteSpace=wrap;html=1;sketch=1;curveFitting=1;jiggle=2;fillColor=#ffcc99;strokeColor=#36393d;" vertex="1" parent="1">
          <mxGeometry x="-3890" y="5230" width="180" height="50" as="geometry" />
        </mxCell>
        <mxCell id="tAJddqhChWdHqmRAOHaR-14" value="&lt;font face=&quot;Comic Sans MS&quot;&gt;cpu_function_call&lt;/font&gt;" style="rounded=1;whiteSpace=wrap;html=1;sketch=1;curveFitting=1;jiggle=2;" vertex="1" parent="1">
          <mxGeometry x="-3890" y="5310" width="180" height="50" as="geometry" />
        </mxCell>
        <mxCell id="tAJddqhChWdHqmRAOHaR-15" value="&lt;font face=&quot;Comic Sans MS&quot;&gt;smp_call_function_single&lt;/font&gt;" style="rounded=1;whiteSpace=wrap;html=1;sketch=1;curveFitting=1;jiggle=2;" vertex="1" parent="1">
          <mxGeometry x="-3890" y="5390" width="180" height="50" as="geometry" />
        </mxCell>
        <mxCell id="tAJddqhChWdHqmRAOHaR-16" value="&lt;font face=&quot;Comic Sans MS&quot;&gt;csd_do_func&lt;/font&gt;" style="rounded=1;whiteSpace=wrap;html=1;sketch=1;curveFitting=1;jiggle=2;" vertex="1" parent="1">
          <mxGeometry x="-3890" y="5470" width="180" height="50" as="geometry" />
        </mxCell>
        <mxCell id="tAJddqhChWdHqmRAOHaR-17" value="&lt;font face=&quot;Comic Sans MS&quot;&gt;remote_function&lt;/font&gt;" style="rounded=1;whiteSpace=wrap;html=1;sketch=1;curveFitting=1;jiggle=2;" vertex="1" parent="1">
          <mxGeometry x="-3890" y="5560" width="180" height="50" as="geometry" />
        </mxCell>
        <mxCell id="tAJddqhChWdHqmRAOHaR-18" value="&lt;font face=&quot;Comic Sans MS&quot;&gt;event_function&lt;/font&gt;" style="rounded=1;whiteSpace=wrap;html=1;sketch=1;curveFitting=1;jiggle=2;" vertex="1" parent="1">
          <mxGeometry x="-3890" y="5631" width="180" height="50" as="geometry" />
        </mxCell>
        <mxCell id="tAJddqhChWdHqmRAOHaR-19" value="&lt;font face=&quot;Comic Sans MS&quot;&gt;__perf_event_enable&lt;/font&gt;" style="rounded=1;whiteSpace=wrap;html=1;sketch=1;curveFitting=1;jiggle=2;fillColor=#ffcc99;strokeColor=#36393d;" vertex="1" parent="1">
          <mxGeometry x="-3890" y="5710" width="180" height="50" as="geometry" />
        </mxCell>
        <mxCell id="tAJddqhChWdHqmRAOHaR-20" value="perf_event_sched_in" style="rounded=1;whiteSpace=wrap;html=1;sketch=1;curveFitting=1;jiggle=2;" vertex="1" parent="1">
          <mxGeometry x="-3890" y="5780" width="180" height="50" as="geometry" />
        </mxCell>
        <mxCell id="tAJddqhChWdHqmRAOHaR-21" value="ctx_sched_in" style="rounded=1;whiteSpace=wrap;html=1;sketch=1;curveFitting=1;jiggle=2;" vertex="1" parent="1">
          <mxGeometry x="-3890" y="5860" width="180" height="50" as="geometry" />
        </mxCell>
        <mxCell id="tAJddqhChWdHqmRAOHaR-22" value="&lt;font face=&quot;Comic Sans MS&quot;&gt;perf_ioctl&lt;/font&gt;" style="rounded=1;whiteSpace=wrap;html=1;sketch=1;curveFitting=1;jiggle=2;" vertex="1" parent="1">
          <mxGeometry x="-3390" y="5010" width="180" height="50" as="geometry" />
        </mxCell>
        <mxCell id="tAJddqhChWdHqmRAOHaR-23" value="&lt;span style=&quot;font-family: &amp;quot;Comic Sans MS&amp;quot;;&quot;&gt;_perf_ioctl&lt;/span&gt;" style="rounded=1;whiteSpace=wrap;html=1;sketch=1;curveFitting=1;jiggle=2;" vertex="1" parent="1">
          <mxGeometry x="-3390" y="5080" width="180" height="50" as="geometry" />
        </mxCell>
        <mxCell id="tAJddqhChWdHqmRAOHaR-24" value="&lt;font face=&quot;Comic Sans MS&quot;&gt;perf_event_for_each_child&lt;/font&gt;" style="rounded=1;whiteSpace=wrap;html=1;sketch=1;curveFitting=1;jiggle=2;" vertex="1" parent="1">
          <mxGeometry x="-3390" y="5162" width="180" height="50" as="geometry" />
        </mxCell>
        <mxCell id="tAJddqhChWdHqmRAOHaR-25" value="&lt;font face=&quot;Comic Sans MS&quot;&gt;_perf_event_disable&lt;/font&gt;" style="rounded=1;whiteSpace=wrap;html=1;sketch=1;curveFitting=1;jiggle=2;fillColor=#ffcc99;strokeColor=#36393d;" vertex="1" parent="1">
          <mxGeometry x="-3390" y="5240" width="180" height="50" as="geometry" />
        </mxCell>
        <mxCell id="tAJddqhChWdHqmRAOHaR-27" value="&lt;font face=&quot;Comic Sans MS&quot;&gt;cpu_function_call&lt;/font&gt;" style="rounded=1;whiteSpace=wrap;html=1;sketch=1;curveFitting=1;jiggle=2;" vertex="1" parent="1">
          <mxGeometry x="-3390" y="5320" width="180" height="50" as="geometry" />
        </mxCell>
        <mxCell id="tAJddqhChWdHqmRAOHaR-28" value="&lt;font face=&quot;Comic Sans MS&quot;&gt;smp_call_function_single&lt;/font&gt;" style="rounded=1;whiteSpace=wrap;html=1;sketch=1;curveFitting=1;jiggle=2;" vertex="1" parent="1">
          <mxGeometry x="-3390" y="5400" width="180" height="50" as="geometry" />
        </mxCell>
        <mxCell id="tAJddqhChWdHqmRAOHaR-29" value="&lt;font face=&quot;Comic Sans MS&quot;&gt;csd_do_func&lt;/font&gt;" style="rounded=1;whiteSpace=wrap;html=1;sketch=1;curveFitting=1;jiggle=2;" vertex="1" parent="1">
          <mxGeometry x="-3390" y="5480" width="180" height="50" as="geometry" />
        </mxCell>
        <mxCell id="tAJddqhChWdHqmRAOHaR-30" value="&lt;font face=&quot;Comic Sans MS&quot;&gt;remote_function&lt;/font&gt;" style="rounded=1;whiteSpace=wrap;html=1;sketch=1;curveFitting=1;jiggle=2;" vertex="1" parent="1">
          <mxGeometry x="-3390" y="5570" width="180" height="50" as="geometry" />
        </mxCell>
        <mxCell id="tAJddqhChWdHqmRAOHaR-31" value="&lt;font face=&quot;Comic Sans MS&quot;&gt;event_function&lt;/font&gt;" style="rounded=1;whiteSpace=wrap;html=1;sketch=1;curveFitting=1;jiggle=2;" vertex="1" parent="1">
          <mxGeometry x="-3390" y="5641" width="180" height="50" as="geometry" />
        </mxCell>
        <mxCell id="tAJddqhChWdHqmRAOHaR-32" value="&lt;font face=&quot;Comic Sans MS&quot;&gt;__perf_event_disable&lt;/font&gt;" style="rounded=1;whiteSpace=wrap;html=1;sketch=1;curveFitting=1;jiggle=2;fillColor=#ffcc99;strokeColor=#36393d;" vertex="1" parent="1">
          <mxGeometry x="-3390" y="5720" width="180" height="50" as="geometry" />
        </mxCell>
        <mxCell id="tAJddqhChWdHqmRAOHaR-33" value="&lt;font face=&quot;Comic Sans MS&quot;&gt;group_sched_out&lt;/font&gt;" style="rounded=1;whiteSpace=wrap;html=1;sketch=1;curveFitting=1;jiggle=2;" vertex="1" parent="1">
          <mxGeometry x="-3400" y="6110" width="180" height="50" as="geometry" />
        </mxCell>
        <mxCell id="tAJddqhChWdHqmRAOHaR-34" value="&lt;font face=&quot;Comic Sans MS&quot;&gt;event_sched_out&lt;/font&gt;" style="rounded=1;whiteSpace=wrap;html=1;sketch=1;curveFitting=1;jiggle=2;" vertex="1" parent="1">
          <mxGeometry x="-3400" y="6190" width="180" height="50" as="geometry" />
        </mxCell>
        <mxCell id="tAJddqhChWdHqmRAOHaR-35" value="&lt;font face=&quot;Comic Sans MS&quot;&gt;riscv_pmu_del&lt;/font&gt;" style="rounded=1;whiteSpace=wrap;html=1;sketch=1;curveFitting=1;jiggle=2;fillColor=#ffcc99;strokeColor=#36393d;" vertex="1" parent="1">
          <mxGeometry x="-3400" y="6290" width="180" height="50" as="geometry" />
        </mxCell>
        <mxCell id="tAJddqhChWdHqmRAOHaR-36" value="&lt;font face=&quot;Comic Sans MS&quot;&gt;riscv_pmu_event_update&lt;/font&gt;" style="rounded=1;whiteSpace=wrap;html=1;sketch=1;curveFitting=1;jiggle=2;fillColor=#ffff88;strokeColor=#36393d;" vertex="1" parent="1">
          <mxGeometry x="-3300" y="6460" width="180" height="50" as="geometry" />
        </mxCell>
        <mxCell id="tAJddqhChWdHqmRAOHaR-38" value="&lt;font face=&quot;Comic Sans MS&quot;&gt;rvpmu-&amp;gt;ctr_get_idx(event);&lt;/font&gt;" style="rounded=1;whiteSpace=wrap;html=1;sketch=1;curveFitting=1;jiggle=2;fillColor=#ffff88;strokeColor=#36393d;" vertex="1" parent="1">
          <mxGeometry x="-4020" y="6380" width="180" height="50" as="geometry" />
        </mxCell>
        <mxCell id="tAJddqhChWdHqmRAOHaR-40" value="&lt;font face=&quot;Comic Sans MS&quot;&gt;pmu_sbi_ctr_get_idx&lt;/font&gt;" style="rounded=1;whiteSpace=wrap;html=1;sketch=1;curveFitting=1;jiggle=2;fillColor=#ffff88;strokeColor=#36393d;" vertex="1" parent="1">
          <mxGeometry x="-4020" y="6490" width="180" height="50" as="geometry" />
        </mxCell>
        <mxCell id="tAJddqhChWdHqmRAOHaR-41" value="&lt;div&gt;&lt;font face=&quot;Comic Sans MS&quot;&gt;ret = sbi_ecall(SBI_EXT_PMU, SBI_EXT_PMU_COUNTER_CFG_MATCH, cbase,&lt;/font&gt;&lt;/div&gt;&lt;div&gt;&lt;font face=&quot;Comic Sans MS&quot;&gt;&lt;span style=&quot;white-space: normal;&quot;&gt;&lt;span style=&quot;white-space:pre&quot;&gt;&#x9;&#x9;&#x9;&lt;/span&gt;cmask, cflags, hwc-&amp;gt;event_base, hwc-&amp;gt;config, 0);&lt;/span&gt;&lt;/font&gt;&lt;/div&gt;" style="rounded=1;whiteSpace=wrap;html=1;sketch=1;curveFitting=1;jiggle=2;fillColor=#ffff88;strokeColor=#36393d;align=left;" vertex="1" parent="1">
          <mxGeometry x="-4020" y="6590" width="480" height="60" as="geometry" />
        </mxCell>
        <mxCell id="tAJddqhChWdHqmRAOHaR-42" value="" style="endArrow=none;dashed=1;html=1;dashPattern=1 3;strokeWidth=2;rounded=0;" edge="1" parent="1">
          <mxGeometry width="50" height="50" relative="1" as="geometry">
            <mxPoint x="-4260" y="6680" as="sourcePoint" />
            <mxPoint x="-3340" y="6680" as="targetPoint" />
          </mxGeometry>
        </mxCell>
        <mxCell id="tAJddqhChWdHqmRAOHaR-43" value="&lt;font face=&quot;Comic Sans MS&quot;&gt;sbi_ecall_pmu_handler&lt;/font&gt;" style="rounded=1;whiteSpace=wrap;html=1;sketch=1;curveFitting=1;jiggle=2;fillColor=#ffff88;strokeColor=#36393d;" vertex="1" parent="1">
          <mxGeometry x="-3660" y="6720" width="180" height="50" as="geometry" />
        </mxCell>
        <mxCell id="tAJddqhChWdHqmRAOHaR-44" value="sbi_pmu_ctr_cfg_match" style="rounded=1;whiteSpace=wrap;html=1;sketch=1;curveFitting=1;jiggle=2;fillColor=#ffff88;strokeColor=#36393d;" vertex="1" parent="1">
          <mxGeometry x="-4010" y="6860" width="180" height="50" as="geometry" />
        </mxCell>
        <mxCell id="tAJddqhChWdHqmRAOHaR-45" value="&lt;font style=&quot;font-size: 40px;&quot; face=&quot;Comic Sans MS&quot;&gt;SBI&lt;/font&gt;" style="text;html=1;align=center;verticalAlign=middle;whiteSpace=wrap;rounded=0;" vertex="1" parent="1">
          <mxGeometry x="-4230" y="6730" width="60" height="30" as="geometry" />
        </mxCell>
        <mxCell id="tAJddqhChWdHqmRAOHaR-46" value="&lt;font style=&quot;font-size: 40px;&quot; face=&quot;Comic Sans MS&quot;&gt;Kernel&lt;/font&gt;" style="text;html=1;align=center;verticalAlign=middle;whiteSpace=wrap;rounded=0;" vertex="1" parent="1">
          <mxGeometry x="-4220" y="6605" width="60" height="35" as="geometry" />
        </mxCell>
        <mxCell id="tAJddqhChWdHqmRAOHaR-47" value="pmu_ctr_find_fw" style="rounded=1;whiteSpace=wrap;html=1;sketch=1;curveFitting=1;jiggle=2;fillColor=#ffff88;strokeColor=#36393d;" vertex="1" parent="1">
          <mxGeometry x="-3905" y="6960" width="180" height="50" as="geometry" />
        </mxCell>
        <mxCell id="tAJddqhChWdHqmRAOHaR-49" value="pmu_ctr_find_hw" style="rounded=1;whiteSpace=wrap;html=1;sketch=1;curveFitting=1;jiggle=2;fillColor=#ffff88;strokeColor=#36393d;" vertex="1" parent="1">
          <mxGeometry x="-3905" y="7050" width="180" height="50" as="geometry" />
        </mxCell>
      </root>
    </mxGraphModel>
  </diagram>
</mxfile>
